{
.appVersion = "939";
DisplayStrings = (
/RehSep/uni0699
);
copyright = "Copyright 2016 Google Inc. All Rights Reserved.";
customParameters = (
{
name = description;
value = "Designed by Monotype design team.";
},
{
name = license;
value = "This Font Software is licensed under the SIL Open Font License, Version 1.1. This Font Software is distributed on an \"AS IS\" BASIS, WITHOUT WARRANTIES OR CONDITIONS OF ANY KIND, either express or implied. See the SIL Open Font License for the specific language, permissions and limitations governing your use of this Font Software.";
},
{
name = licenseURL;
value = "http://scripts.sil.org/OFL";
},
{
name = vendorID;
value = GOOG;
},
{
name = trademark;
value = "Noto is a trademark of Google Inc.";
},
{
name = fsType;
value = (
);
},
{
name = panose;
value = (
2,
11,
5,
2,
4,
5,
4,
2,
2,
4
);
},
{
name = unicodeRanges;
value = (
13
);
},
{
name = codePageRanges;
value = (
1252,
1256
);
},
{
name = glyphOrder;
value = (
.notdef,
null,
uni000D,
space,
NBspace,
uni007C,
ZWSP,
uni200C,
uni200D,
uni200E,
uni200F,
OneDot,
TwoDots,
ThreeDotsUp,
ThreeDotsDown,
OneDotAboveNS,
TwoDotsAboveNS,
ThreeDotsUpAboveNS,
OneDotBelowNS,
TwoDotsBelowNS,
ThreeDotsDownBelowNS,
ThreeDotsDownAboveNS,
OneDotEnclNS,
OneDotEnclTNS,
ThreeDotsDownEnclNS,
ThreeDotsUpEnclNS,
TwoDotsEnclNS,
TwoDotsVertEnclNS,
FourDotsEnclNS,
TwoDotsVert,
TwoDotsVertAboveNS,
TwoDotsVertBelowNS,
FourDotsAboveNS,
FourDotsBelowNS,
FourDots,
MaddaNS,
Madda.shortNS,
Madda.shorterNS,
WaslaNS,
HamzaAboveNS,
HamzaBelowNS,
HamzaAboveAF_NS,
HamzaBelowAF_NS,
AlayhissalamNS,
AlefSuperiorNS,
AlefSuperiorTallNS,
AlefInferiorNS,
DammaNS,
UltapeshNS,
DammatanNS,
FathaNS,
FathatanNS,
KasraNS,
KasratanNS,
NoonGhunnaMarkNS,
NoonGhunnaMarkKshmrNS,
RadiallahNS,
RahmatullahNS,
SallallahNS,
ShaddaNS,
SharetKafNS,
SharetYehPashtoNS,
Crossbar,
SukunHahNS,
SukunJazmNS,
SukunNS,
SukunZeroNS,
TahSmallNS,
TahSmallBelowNS,
TahSmallEnclNS,
Tah2DotsEnclNS,
Tah2DotsBelowNS,
Tah2DotsAboveNS,
TakhallusNS,

glyphs = (
{
glyphname = .notdef;
lastChange = "2016-12-06 15:22:26 +0000";
layers = (
{
layerId = "B831CC2C-6991-4D3A-BB51-B9DC9D9CB4BD";
paths = (
{
closed = 1;
nodes = (
"145 0 LINE",
"1698 0 LINE",
"1698 2452 LINE",
"145 2452 LINE"
);
},
{
closed = 1;
nodes = (
"1525 2279 LINE",
"1525 173 LINE",
"318 173 LINE",
"318 2279 LINE"
);
}
);
width = 1843;
}
);
note = .notdef;
},
{
glyphname = uni200C;
lastChange = "2016-12-06 15:22:26 +0000";
layers = (
{
layerId = "B831CC2C-6991-4D3A-BB51-B9DC9D9CB4BD";
paths = (
{
closed = 1;
nodes = (
"-65 329 LINE",
"65 329 LINE",
"65 3001 LINE",
"-65 3001 LINE"
);
}
);
width = 0;
}
);
note = uni200C;
unicode = 200C;
},
{
glyphname = uni200D;
lastChange = "2016-12-06 15:22:26 +0000";
layers = (
{
layerId = "B831CC2C-6991-4D3A-BB51-B9DC9D9CB4BD";
paths = (
{
closed = 1;
nodes = (
"306 2218 LINE",
"394 2306 LINE",
"86 2610 LINE",
"394 2912 LINE",
"306 3001 LINE",
"0 2693 LINE",
"-306 3001 LINE",
"-394 2912 LINE",
"-86 2610 LINE",
"-394 2306 LINE",
"-306 2218 LINE",
"-65 2462 LINE",
"-65 329 LINE",
"65 329 LINE",
"65 2462 LINE"
);
}
);
width = 0;
}
);
note = uni200D;
unicode = 200D;
},
{
glyphname = uni200E;
lastChange = "2016-12-06 15:22:26 +0000";
layers = (
{
layerId = "B831CC2C-6991-4D3A-BB51-B9DC9D9CB4BD";
paths = (
{
closed = 1;
nodes = (
"295 2912 LINE",
"542 2678 LINE",
"-65 2678 LINE",
"-65 329 LINE",
"63 329 LINE",
"63 2551 LINE",
"542 2551 LINE",
"295 2317 LINE",
"383 2228 LINE",
"774 2614 LINE",
"383 3001 LINE"
);
}
);
width = 0;
}
);
note = uni200E;
unicode = 200E;
},
{
glyphname = uni200F;
lastChange = "2016-12-06 15:22:26 +0000";
layers = (
{
layerId = "B831CC2C-6991-4D3A-BB51-B9DC9D9CB4BD";
paths = (
{
closed = 1;
nodes = (
"-544 2678 LINE",
"-297 2912 LINE",
"-385 3001 LINE",
"-776 2614 LINE",
"-385 2228 LINE",
"-297 2317 LINE",
"-544 2551 LINE",
"-65 2551 LINE",
"-65 329 LINE",
"63 329 LINE",
"63 2678 LINE"
);
}
);
width = 0;
}
);
note = uni200F;
unicode = 200F;
},
{
glyphname = OneDot;
lastChange = "2016-12-06 15:22:26 +0000";
layers = (
{
layerId = "B831CC2C-6991-4D3A-BB51-B9DC9D9CB4BD";
paths = (
{
closed = 1;
nodes = (
"239 97 LINE",
"284 54 LINE",
"319 20 LINE",
"337 20 LINE",
"396 62 OFFCURVE",
"439 99 OFFCURVE",
"466 132 CURVE SMOOTH",
"493 164 OFFCURVE",
"506 191 OFFCURVE",
"506 214 CURVE SMOOTH",
"506 271 OFFCURVE",
"454 320 OFFCURVE",
"346 387 CURVE",
"328 387 LINE",
"301 370 OFFCURVE",
"185 246 OFFCURVE",
"149 191 CURVE",
"149 173 LINE"
);
}
);
width = 0;
}
);
note = OneDot;
},
{
glyphname = TwoDots;
lastChange = "2016-12-06 15:22:26 +0000";
layers = (
{
layerId = "B831CC2C-6991-4D3A-BB51-B9DC9D9CB4BD";
paths = (
{
closed = 1;
nodes = (
"90 77 LINE",
"135 34 LINE",
"169 0 LINE",
"187 0 LINE",
"256 51 OFFCURVE",
"322 106 OFFCURVE",
"347 157 CURVE",
"371 136 OFFCURVE",
"395 115 OFFCURVE",
"419 92 CURVE SMOOTH",
"477 38 LINE",
"495 38 LINE",
"582 101 OFFCURVE",
"659 177 OFFCURVE",
"659 232 CURVE SMOOTH",
"659 289 OFFCURVE",
"607 338 OFFCURVE",
"499 405 CURVE",
"481 405 LINE",
"475 402 OFFCURVE",
"467 395 OFFCURVE",
"457 385 CURVE SMOOTH",
"421 349 LINE SMOOTH",
"393 321 OFFCURVE",
"362 287 OFFCURVE",
"337 254 CURVE",
"310 287 OFFCURVE",
"264 324 OFFCURVE",
"196 367 CURVE",
"178 367 LINE",
"151 351 OFFCURVE",
"36 226 OFFCURVE",
"0 171 CURVE",
"0 153 LINE"
);
}
);
width = 0;
}
);
note = TwoDots;
},
{
glyphname = ThreeDotsUp;
lastChange = "2016-12-06 15:22:26 +0000";
layers = (
{
layerId = "B831CC2C-6991-4D3A-BB51-B9DC9D9CB4BD";
paths = (
{
closed = 1;
nodes = (
"54 110 OFFCURVE",
"110 59 OFFCURVE",
"169 0 CURVE",
"187 0 LINE",
"272 63 OFFCURVE",
"326 115 OFFCURVE",
"347 157 CURVE",
"387 123 OFFCURVE",
"430 83 OFFCURVE",
"477 38 CURVE",
"495 38 LINE",
"604 117 OFFCURVE",
"659 182 OFFCURVE",
"659 232 CURVE SMOOTH",
"659 289 OFFCURVE",
"604 338 OFFCURVE",
"499 405 CURVE",
"481 405 LINE",
"449 384 OFFCURVE",
"366 290 OFFCURVE",
"335 254 CURVE",
"330 261 OFFCURVE",
"324 269 OFFCURVE",
"315 277 CURVE",
"288 304 OFFCURVE",
"249 334 OFFCURVE",
"196 367 CURVE",
"178 367 LINE",
"147 348 OFFCURVE",
"33 222 OFFCURVE",
"0 171 CURVE",
"0 153 LINE"
);
},
{
closed = 1;
nodes = (
"171 487 OFFCURVE",
"283 391 OFFCURVE",
"311 356 CURVE",
"329 356 LINE",
"395 409 OFFCURVE",
"438 450 OFFCURVE",
"459 477 CURVE SMOOTH",
"480 504 OFFCURVE",
"490 526 OFFCURVE",
"490 544 CURVE SMOOTH",
"490 592 OFFCURVE",
"422 641 OFFCURVE",
"338 698 CURVE",
"322 698 LINE",
"303 689 OFFCURVE",
"207 595 OFFCURVE",
"151 518 CURVE",
"151 502 LINE"
);
}
);
width = 0;
}
);
note = ThreeDotsUp;
},
{
glyphname = ThreeDotsDown;
lastChange = "2016-12-06 15:22:26 +0000";
layers = (
{
layerId = "B831CC2C-6991-4D3A-BB51-B9DC9D9CB4BD";
paths = (
{
closed = 1;
nodes = (
"175 -563 OFFCURVE",
"188 -574 OFFCURVE",
"203 -587 CURVE SMOOTH",
"248 -626 LINE SMOOTH",
"280 -655 OFFCURVE",
"309 -684 OFFCURVE",
"324 -700 CURVE",
"342 -700 LINE",
"426 -637 OFFCURVE",
"502 -577 OFFCURVE",
"502 -522 CURVE SMOOTH",
"502 -474 OFFCURVE",
"440 -415 OFFCURVE",
"356 -358 CURVE",
"340 -358 LINE",
"316 -373 OFFCURVE",
"215 -466 OFFCURVE",
"164 -538 CURVE",
"164 -554 LINE"
);
},
{
closed = 1;
nodes = (
"90 -328 LINE",
"135 -371 LINE",
"169 -405 LINE",
"187 -405 LINE",
"256 -354 OFFCURVE",
"322 -299 OFFCURVE",
"347 -248 CURVE",
"395 -289 OFFCURVE",
"448 -339 OFFCURVE",
"477 -367 CURVE",
"495 -367 LINE",
"582 -304 OFFCURVE",
"659 -228 OFFCURVE",
"659 -173 CURVE SMOOTH",
"659 -116 OFFCURVE",
"607 -67 OFFCURVE",
"499 0 CURVE",
"481 0 LINE",
"469 -7 OFFCURVE",
"446 -27 OFFCURVE",
"419 -56 CURVE SMOOTH",
"335 -151 LINE",
"308 -115 OFFCURVE",
"264 -81 OFFCURVE",
"196 -38 CURVE",
"178 -38 LINE",
"151 -54 OFFCURVE",
"36 -179 OFFCURVE",
"0 -234 CURVE",
"0 -252 LINE"
);
}
);
width = 0;
}
);
note = ThreeDotsDown;
},
{
glyphname = OneDotAboveNS;
lastChange = "2016-12-06 15:22:26 +0000";
layers = (
{
layerId = "B831CC2C-6991-4D3A-BB51-B9DC9D9CB4BD";
paths = (
{
closed = 1;
nodes = (
"-123 1813 OFFCURVE",
"-66 1762 OFFCURVE",
"-9 1703 CURVE",
"9 1703 LINE",
"122 1784 OFFCURVE",
"178 1849 OFFCURVE",
"178 1897 CURVE SMOOTH",
"178 1953 OFFCURVE",
"121 2005 OFFCURVE",
"18 2070 CURVE",
"0 2070 LINE",
"-33 2049 OFFCURVE",
"-145 1925 OFFCURVE",
"-178 1874 CURVE",
"-178 1856 LINE"
);
}
);
width = 0;
}
);
note = OneDotAboveNS;
},
{
glyphname = TwoDotsAboveNS;
lastChange = "2016-12-06 15:22:26 +0000";
layers = (
{
layerId = "B831CC2C-6991-4D3A-BB51-B9DC9D9CB4BD";
paths = (
{
closed = 1;
nodes = (
"-274 1797 OFFCURVE",
"-217 1746 OFFCURVE",
"-158 1687 CURVE",
"-140 1687 LINE",
"-55 1748 OFFCURVE",
"-2 1800 OFFCURVE",
"19 1843 CURVE",
"60 1810 OFFCURVE",
"103 1771 OFFCURVE",
"149 1724 CURVE",
"167 1724 LINE",
"276 1803 OFFCURVE",
"331 1868 OFFCURVE",
"331 1919 CURVE SMOOTH",
"331 1976 OFFCURVE",
"276 2024 OFFCURVE",
"171 2092 CURVE",
"153 2092 LINE",
"128 2076 OFFCURVE",
"42 1983 OFFCURVE",
"9 1940 CURVE",
"-16 1974 OFFCURVE",
"-63 2012 OFFCURVE",
"-131 2054 CURVE",
"-149 2054 LINE",
"-181 2034 OFFCURVE",
"-293 1907 OFFCURVE",
"-328 1858 CURVE",
"-328 1840 LINE"
);
}
);
width = 0;
}
);
note = TwoDotsAboveNS;
},
{
glyphname = ThreeDotsUpAboveNS;
lastChange = "2016-12-06 15:22:26 +0000";
layers = (
{
layerId = "B831CC2C-6991-4D3A-BB51-B9DC9D9CB4BD";
paths = (
{
closed = 1;
nodes = (
"-274 1797 OFFCURVE",
"-217 1746 OFFCURVE",
"-158 1687 CURVE",
"-140 1687 LINE",
"-55 1748 OFFCURVE",
"-2 1800 OFFCURVE",
"19 1843 CURVE",
"60 1810 OFFCURVE",
"103 1771 OFFCURVE",
"149 1724 CURVE",
"167 1724 LINE",
"276 1803 OFFCURVE",
"331 1868 OFFCURVE",
"331 1919 CURVE SMOOTH",
"331 1976 OFFCURVE",
"276 2024 OFFCURVE",
"171 2092 CURVE",
"153 2092 LINE",
"126 2075 OFFCURVE",
"44 1984 OFFCURVE",
"8 1940 CURVE",
"-11 1969 OFFCURVE",
"-57 2007 OFFCURVE",
"-131 2054 CURVE",
"-149 2054 LINE",
"-181 2034 OFFCURVE",
"-293 1907 OFFCURVE",
"-328 1858 CURVE",
"-328 1840 LINE"
);
},
{
closed = 1;
nodes = (
"-157 2174 OFFCURVE",
"-45 2076 OFFCURVE",
"-16 2043 CURVE",
"2 2043 LINE",
"68 2097 OFFCURVE",
"111 2137 OFFCURVE",
"132 2164 CURVE SMOOTH",
"152 2190 OFFCURVE",
"162 2212 OFFCURVE",
"162 2230 CURVE SMOOTH",
"162 2278 OFFCURVE",
"95 2328 OFFCURVE",
"11 2385 CURVE",
"-5 2385 LINE",
"-25 2376 OFFCURVE",
"-121 2282 OFFCURVE",
"-176 2205 CURVE",
"-176 2189 LINE"
);
}
);
width = 0;
}
);
note = ThreeDotsUpAboveNS;
},
{
glyphname = OneDotBelowNS;
lastChange = "2016-12-06 15:22:26 +0000";
layers = (
{
layerId = "B831CC2C-6991-4D3A-BB51-B9DC9D9CB4BD";
paths = (
{
closed = 1;
nodes = (
"-123 -273 OFFCURVE",
"-66 -324 OFFCURVE",
"-9 -383 CURVE",
"9 -383 LINE",
"122 -302 OFFCURVE",
"178 -237 OFFCURVE",
"178 -189 CURVE SMOOTH",
"178 -134 OFFCURVE",
"121 -81 OFFCURVE",
"18 -16 CURVE",
"0 -16 LINE",
"-33 -37 OFFCURVE",
"-145 -163 OFFCURVE",
"-178 -212 CURVE",
"-178 -230 LINE"
);
}
);
width = 0;
}
);
note = OneDotBelowNS;
},
{
glyphname = TwoDotsBelowNS;
lastChange = "2016-12-06 15:22:26 +0000";
layers = (
{
layerId = "B831CC2C-6991-4D3A-BB51-B9DC9D9CB4BD";
paths = (
{
closed = 1;
nodes = (
"-274 -295 OFFCURVE",
"-217 -346 OFFCURVE",
"-158 -405 CURVE",
"-140 -405 LINE",
"-54 -343 OFFCURVE",
"-1 -291 OFFCURVE",
"19 -248 CURVE",
"60 -281 OFFCURVE",
"103 -321 OFFCURVE",
"149 -367 CURVE",
"167 -367 LINE",
"276 -288 OFFCURVE",
"331 -223 OFFCURVE",
"331 -173 CURVE SMOOTH",
"331 -116 OFFCURVE",
"276 -67 OFFCURVE",
"171 0 CURVE",
"153 0 LINE",
"126 -16 OFFCURVE",
"42 -108 OFFCURVE",
"9 -151 CURVE",
"-13 -119 OFFCURVE",
"-60 -81 OFFCURVE",
"-131 -38 CURVE",
"-149 -38 LINE",
"-181 -57 OFFCURVE",
"-293 -183 OFFCURVE",
"-328 -234 CURVE",
"-328 -252 LINE"
);
}
);
width = 0;
}
);
note = TwoDotsBelowNS;
},
{
glyphname = ThreeDotsDownBelowNS;
lastChange = "2016-12-06 15:22:26 +0000";
layers = (
{
layerId = "B831CC2C-6991-4D3A-BB51-B9DC9D9CB4BD";
paths = (
{
closed = 1;
nodes = (
"-148 -569 OFFCURVE",
"-36 -667 OFFCURVE",
"-7 -700 CURVE",
"11 -700 LINE",
"95 -637 OFFCURVE",
"171 -577 OFFCURVE",
"171 -522 CURVE SMOOTH",
"171 -480 OFFCURVE",
"122 -425 OFFCURVE",
"25 -358 CURVE",
"9 -358 LINE",
"-15 -373 OFFCURVE",
"-115 -466 OFFCURVE",
"-167 -538 CURVE",
"-167 -554 LINE"
);
},
{
closed = 1;
nodes = (
"-277 -295 OFFCURVE",
"-221 -346 OFFCURVE",
"-162 -405 CURVE",
"-144 -405 LINE",
"-58 -343 OFFCURVE",
"-5 -291 OFFCURVE",
"15 -248 CURVE",
"56 -281 OFFCURVE",
"99 -321 OFFCURVE",
"146 -367 CURVE",
"164 -367 LINE",
"273 -288 OFFCURVE",
"328 -223 OFFCURVE",
"328 -173 CURVE SMOOTH",
"328 -116 OFFCURVE",
"274 -67 OFFCURVE",
"167 0 CURVE",
"149 0 LINE",
"125 -15 OFFCURVE",
"43 -104 OFFCURVE",
"4 -151 CURVE",
"-11 -124 OFFCURVE",
"-58 -87 OFFCURVE",
"-135 -38 CURVE",
"-153 -38 LINE",
"-184 -57 OFFCURVE",
"-298 -183 OFFCURVE",
"-331 -234 CURVE",
"-331 -252 LINE"
);
}
);
width = 0;
}
);
note = ThreeDotsDownBelowNS;
},
{
glyphname = OneDotEnclNS;
lastChange = "2016-12-06 15:22:26 +0000";
layers = (
{
layerId = "B831CC2C-6991-4D3A-BB51-B9DC9D9CB4BD";
paths = (
{
closed = 1;
nodes = (
"-123 373 OFFCURVE",
"-66 322 OFFCURVE",
"-9 263 CURVE",
"9 263 LINE",
"122 344 OFFCURVE",
"178 409 OFFCURVE",
"178 457 CURVE SMOOTH",
"178 513 OFFCURVE",
"121 565 OFFCURVE",
"18 630 CURVE",
"0 630 LINE",
"-33 609 OFFCURVE",
"-145 485 OFFCURVE",
"-178 434 CURVE",
"-178 416 LINE"
);
}
);
width = 0;
}
);
note = OneDotEnclNS;
},
{
glyphname = ThreeDotsDownEnclNS;
lastChange = "2016-12-06 15:22:26 +0000";
layers = (
{
layerId = "B831CC2C-6991-4D3A-BB51-B9DC9D9CB4BD";
paths = (
{
closed = 1;
nodes = (
"-152 79 OFFCURVE",
"-39 -19 OFFCURVE",
"-11 -52 CURVE",
"7 -52 LINE",
"91 8 OFFCURVE",
"167 71 OFFCURVE",
"167 126 CURVE SMOOTH",
"167 168 OFFCURVE",
"119 223 OFFCURVE",
"22 290 CURVE",
"5 290 LINE",
"-19 275 OFFCURVE",
"-118 182 OFFCURVE",
"-171 110 CURVE",
"-171 94 LINE"
);
},
{
closed = 1;
nodes = (
"-281 353 OFFCURVE",
"-225 302 OFFCURVE",
"-166 243 CURVE",
"-148 243 LINE",
"-62 304 OFFCURVE",
"-9 356 OFFCURVE",
"12 399 CURVE",
"52 366 OFFCURVE",
"95 327 OFFCURVE",
"142 281 CURVE",
"160 281 LINE",
"269 360 OFFCURVE",
"324 425 OFFCURVE",
"324 475 CURVE SMOOTH",
"324 532 OFFCURVE",
"269 581 OFFCURVE",
"164 648 CURVE",
"146 648 LINE",
"119 633 OFFCURVE",
"71 582 OFFCURVE",
"1 497 CURVE",
"-14 524 OFFCURVE",
"-61 561 OFFCURVE",
"-139 610 CURVE",
"-157 610 LINE",
"-188 591 OFFCURVE",
"-302 465 OFFCURVE",
"-335 414 CURVE",
"-335 396 LINE"
);
}
);
width = 0;
}
);
note = ThreeDotsDownEnclNS;
},
{
glyphname = ThreeDotsUpEnclNS;
lastChange = "2016-12-06 15:22:26 +0000";
layers = (
{
layerId = "B831CC2C-6991-4D3A-BB51-B9DC9D9CB4BD";
paths = (
{
closed = 1;
nodes = (
"-270 56 OFFCURVE",
"-214 5 OFFCURVE",
"-155 -54 CURVE",
"-137 -54 LINE",
"-51 8 OFFCURVE",
"2 60 OFFCURVE",
"22 102 CURVE",
"63 69 OFFCURVE",
"107 30 OFFCURVE",
"153 -16 CURVE",
"171 -16 LINE",
"280 63 OFFCURVE",
"335 128 OFFCURVE",
"335 178 CURVE SMOOTH",
"335 235 OFFCURVE",
"280 284 OFFCURVE",
"175 351 CURVE",
"157 351 LINE",
"131 336 OFFCURVE",
"83 285 OFFCURVE",
"12 199 CURVE",
"-12 231 OFFCURVE",
"-59 269 OFFCURVE",
"-128 313 CURVE",
"-146 313 LINE",
"-177 294 OFFCURVE",
"-291 168 OFFCURVE",
"-324 117 CURVE",
"-324 99 LINE"
);
},
{
closed = 1;
nodes = (
"-153 433 OFFCURVE",
"-41 337 OFFCURVE",
"-13 302 CURVE",
"5 302 LINE",
"71 356 OFFCURVE",
"114 396 OFFCURVE",
"135 423 CURVE SMOOTH",
"156 450 OFFCURVE",
"166 472 OFFCURVE",
"166 490 CURVE SMOOTH",
"166 538 OFFCURVE",
"98 587 OFFCURVE",
"14 644 CURVE",
"-2 644 LINE",
"-21 635 OFFCURVE",
"-117 541 OFFCURVE",
"-173 464 CURVE",
"-173 448 LINE"
);
}
);
width = 0;
}
);
note = ThreeDotsUpEnclNS;
},
{
glyphname = TwoDotsVert;
lastChange = "2016-12-06 15:22:26 +0000";
layers = (
{
layerId = "B831CC2C-6991-4D3A-BB51-B9DC9D9CB4BD";
paths = (
{
closed = 1;
nodes = (
"183 144 OFFCURVE",
"236 99 OFFCURVE",
"283 56 CURVE",
"319 20 LINE",
"337 20 LINE",
"422 83 OFFCURVE",
"500 159 OFFCURVE",
"500 214 CURVE SMOOTH",
"500 262 OFFCURVE",
"459 306 OFFCURVE",
"380 362 CURVE",
"443 414 OFFCURVE",
"495 467 OFFCURVE",
"495 515 CURVE SMOOTH",
"495 572 OFFCURVE",
"443 620 OFFCURVE",
"335 688 CURVE",
"317 688 LINE",
"290 671 OFFCURVE",
"175 547 OFFCURVE",
"139 491 CURVE",
"139 473 LINE",
"175 445 OFFCURVE",
"238 390 OFFCURVE",
"279 349 CURVE",
"238 306 OFFCURVE",
"177 242 OFFCURVE",
"144 191 CURVE",
"144 173 LINE"
);
}
);
width = 0;
}
);
note = TwoDotsVert;
},
{
glyphname = FourDotsAboveNS;
lastChange = "2016-12-06 15:22:26 +0000";
layers = (
{
layerId = "B831CC2C-6991-4D3A-BB51-B9DC9D9CB4BD";
paths = (
{
closed = 1;
nodes = (
"21 364 LINE",
"53 336 LINE",
"87 304 LINE",
"113 277 LINE",
"87 249 LINE",
"52 214 OFFCURVE",
"19 173 OFFCURVE",
"0 146 CURVE",
"0 133 LINE",
"9 126 OFFCURVE",
"19 118 OFFCURVE",
"32 107 CURVE",
"44 96 OFFCURVE",
"56 86 OFFCURVE",
"69 75 CURVE",
"105 40 LINE SMOOTH",
"116 29 OFFCURVE",
"124 21 OFFCURVE",
"130 14 CURVE",
"144 14 LINE",
"203 58 OFFCURVE",
"262 106 OFFCURVE",
"271 149 CURVE",
"290 133 OFFCURVE",
"311 115 OFFCURVE",
"332 94 CURVE",
"384 47 LINE",
"399 47 LINE",
"463 95 OFFCURVE",
"523 153 OFFCURVE",
"523 196 CURVE SMOOTH",
"523 237 OFFCURVE",
"486 273 OFFCURVE",
"413 320 CURVE",
"469 367 OFFCURVE",
"514 413 OFFCURVE",
"514 452 CURVE SMOOTH",
"514 497 OFFCURVE",
"473 533 OFFCURVE",
"389 585 CURVE",
"376 585 LINE",
"367 578 OFFCURVE",
"347 560 OFFCURVE",
"326 536 CURVE",
"288 498 LINE",
"275 482 OFFCURVE",
"264 468 OFFCURVE",
"255 455 CURVE",
"236 486 OFFCURVE",
"199 513 OFFCURVE",
"139 553 CURVE",
"126 553 LINE",
"109 544 OFFCURVE",
"31 460 OFFCURVE",
"-10 400 CURVE",
"-10 387 LINE"
);
},
{
closed = 1;
nodes = (
"252 232 OFFCURVE",
"214 257 OFFCURVE",
"162 290 CURVE",
"207 327 OFFCURVE",
"253 365 OFFCURVE",
"261 401 CURVE",
"278 388 OFFCURVE",
"297 373 OFFCURVE",
"316 356 CURVE SMOOTH",
"364 311 LINE",
"337 283 OFFCURVE",
"296 244 OFFCURVE",
"265 184 CURVE"
);
}
);
width = 0;
}
);
note = FourDotsAboveNS;
},
{
glyphname = FourDots;
lastChange = "2016-12-06 15:22:26 +0000";
layers = (
{
layerId = "B831CC2C-6991-4D3A-BB51-B9DC9D9CB4BD";
paths = (
{
closed = 1;
nodes = (
"23 405 LINE",
"59 373 LINE",
"97 338 LINE",
"126 308 LINE",
"97 277 LINE SMOOTH",
"58 238 OFFCURVE",
"21 193 OFFCURVE",
"0 162 CURVE",
"0 148 LINE",
"9 141 OFFCURVE",
"21 131 OFFCURVE",
"35 119 CURVE SMOOTH",
"49 107 OFFCURVE",
"63 95 OFFCURVE",
"77 83 CURVE",
"117 45 LINE SMOOTH",
"129 33 OFFCURVE",
"138 23 OFFCURVE",
"144 16 CURVE",
"160 16 LINE",
"225 64 OFFCURVE",
"290 118 OFFCURVE",
"301 166 CURVE",
"322 148 OFFCURVE",
"345 127 OFFCURVE",
"369 104 CURVE SMOOTH",
"427 52 LINE",
"443 52 LINE",
"515 105 OFFCURVE",
"581 170 OFFCURVE",
"581 218 CURVE SMOOTH",
"581 263 OFFCURVE",
"540 304 OFFCURVE",
"459 356 CURVE",
"522 407 OFFCURVE",
"571 459 OFFCURVE",
"571 502 CURVE SMOOTH",
"571 553 OFFCURVE",
"525 593 OFFCURVE",
"432 650 CURVE",
"418 650 LINE",
"407 642 OFFCURVE",
"386 623 OFFCURVE",
"362 596 CURVE",
"320 553 LINE",
"306 536 OFFCURVE",
"294 520 OFFCURVE",
"283 506 CURVE",
"263 539 OFFCURVE",
"222 570 OFFCURVE",
"155 614 CURVE",
"140 614 LINE",
"121 605 OFFCURVE",
"34 512 OFFCURVE",
"-11 445 CURVE",
"-11 430 LINE"
);
},
{
closed = 1;
nodes = (
"279 258 OFFCURVE",
"237 286 OFFCURVE",
"180 322 CURVE",
"231 363 OFFCURVE",
"281 406 OFFCURVE",
"290 446 CURVE",
"309 432 OFFCURVE",
"330 415 OFFCURVE",
"351 396 CURVE SMOOTH",
"405 346 LINE",
"374 314 OFFCURVE",
"328 270 OFFCURVE",
"295 205 CURVE"
);
}
);
width = 0;
}
);
note = FourDots;
},
{
glyphname = MaddaNS;
lastChange = "2016-12-06 15:22:26 +0000";
layers = (
{
layerId = "B831CC2C-6991-4D3A-BB51-B9DC9D9CB4BD";
paths = (
{
closed = 1;
nodes = (
"-447 1875 OFFCURVE",
"-422 1895 OFFCURVE",
"-374 1895 CURVE",
"-363 1894 OFFCURVE",
"-353 1894 OFFCURVE",
"-344 1894 CURVE",
"-315 1890 LINE",
"-227 1874 LINE SMOOTH",
"-140 1859 OFFCURVE",
"-71 1858 OFFCURVE",
"-22 1858 CURVE SMOOTH",
"206 1858 OFFCURVE",
"419 1964 OFFCURVE",
"571 2165 CURVE",
"544 2187 LINE",
"431 2091 OFFCURVE",
"289 2066 OFFCURVE",
"121 2066 CURVE SMOOTH",
"77 2066 OFFCURVE",
"-24 2069 OFFCURVE",
"-124 2088 CURVE SMOOTH",
"-209 2102 LINE SMOOTH",
"-232 2106 OFFCURVE",
"-250 2108 OFFCURVE",
"-263 2108 CURVE SMOOTH",
"-305 2108 OFFCURVE",
"-349 2087 OFFCURVE",
"-395 2044 CURVE SMOOTH",
"-441 2001 OFFCURVE",
"-488 1930 OFFCURVE",
"-536 1829 CURVE",
"-495 1811 LINE"
);
}
);
width = 0;
}
);
note = MaddaNS;
unicode = 0653;
},
{
glyphname = Madda.shortNS;
lastChange = "2016-12-06 15:22:26 +0000";
layers = (
{
layerId = "B831CC2C-6991-4D3A-BB51-B9DC9D9CB4BD";
paths = (
{
closed = 1;
nodes = (
"-350 1875 OFFCURVE",
"-325 1895 OFFCURVE",
"-277 1895 CURVE",
"-266 1894 OFFCURVE",
"-256 1894 OFFCURVE",
"-247 1894 CURVE",
"-218 1890 LINE",
"-130 1874 LINE SMOOTH",
"-84 1867 OFFCURVE",
"-48 1862 OFFCURVE",
"-23 1861 CURVE",
"2 1859 OFFCURVE",
"21 1858 OFFCURVE",
"34 1858 CURVE SMOOTH",
"270 1858 OFFCURVE",
"406 1955 OFFCURVE",
"547 2144 CURVE",
"520 2165 LINE",
"451 2104 OFFCURVE",
"368 2066 OFFCURVE",
"164 2066 CURVE SMOOTH",
"151 2066 OFFCURVE",
"128 2067 OFFCURVE",
"97 2070 CURVE SMOOTH",
"66 2073 OFFCURVE",
"24 2079 OFFCURVE",
"-27 2088 CURVE SMOOTH",
"-112 2102 LINE SMOOTH",
"-135 2106 OFFCURVE",
"-153 2108 OFFCURVE",
"-166 2108 CURVE SMOOTH",
"-208 2108 OFFCURVE",
"-252 2087 OFFCURVE",
"-298 2044 CURVE SMOOTH",
"-344 2001 OFFCURVE",
"-391 1930 OFFCURVE",
"-439 1829 CURVE",
"-398 1811 LINE"
);
}
);
width = 0;
}
);
note = Madda.shortNS;
},
{
glyphname = Madda.shorterNS;
lastChange = "2016-12-06 15:22:26 +0000";
layers = (
{
layerId = "B831CC2C-6991-4D3A-BB51-B9DC9D9CB4BD";
paths = (
{
closed = 1;
nodes = (
"-271 1875 OFFCURVE",
"-249 1895 OFFCURVE",
"-209 1895 CURVE",
"-200 1894 OFFCURVE",
"-192 1894 OFFCURVE",
"-184 1894 CURVE",
"-158 1890 LINE",
"-85 1874 LINE",
"-46 1867 OFFCURVE",
"-16 1862 OFFCURVE",
"6 1861 CURVE",
"27 1859 OFFCURVE",
"44 1858 OFFCURVE",
"56 1858 CURVE SMOOTH",
"251 1858 OFFCURVE",
"364 1944 OFFCURVE",
"491 2144 CURVE",
"466 2162 LINE",
"403 2099 OFFCURVE",
"343 2066 OFFCURVE",
"178 2066 CURVE SMOOTH",
"133 2066 OFFCURVE",
"82 2072 OFFCURVE",
"26 2084 CURVE SMOOTH",
"-31 2096 OFFCURVE",
"-72 2102 OFFCURVE",
"-97 2102 CURVE SMOOTH",
"-186 2102 OFFCURVE",
"-276 2010 OFFCURVE",
"-353 1827 CURVE",
"-311 1811 LINE"
);
}
);
width = 0;
}
);
note = Madda.shorterNS;
},
{
glyphname = WaslaNS;
lastChange = "2016-12-06 15:22:26 +0000";
layers = (
{
layerId = "B831CC2C-6991-4D3A-BB51-B9DC9D9CB4BD";
paths = (
{
closed = 1;
nodes = (
"-223 1822 OFFCURVE",
"-202 1838 OFFCURVE",
"-167 1838 CURVE SMOOTH",
"-150 1838 OFFCURVE",
"-129 1832 OFFCURVE",
"-103 1821 CURVE SMOOTH",
"-78 1810 OFFCURVE",
"-53 1804 OFFCURVE",
"-29 1804 CURVE SMOOTH",
"132 1804 OFFCURVE",
"274 1967 OFFCURVE",
"274 2090 CURVE SMOOTH",
"274 2123 OFFCURVE",
"250 2149 OFFCURVE",
"205 2149 CURVE SMOOTH",
"105 2149 OFFCURVE",
"3 2048 OFFCURVE",
"-54 1975 CURVE SMOOTH",
"-90 1926 LINE",
"-102 1932 OFFCURVE",
"-117 1935 OFFCURVE",
"-135 1935 CURVE SMOOTH",
"-190 1935 OFFCURVE",
"-241 1881 OFFCURVE",
"-270 1800 CURVE",
"-252 1791 LINE"
);
},
{
closed = 1;
nodes = (
"52 1910 OFFCURVE",
"25 1904 OFFCURVE",
"-4 1904 CURVE",
"-13 1905 OFFCURVE",
"-22 1906 OFFCURVE",
"-29 1906 CURVE SMOOTH",
"-37 1906 OFFCURVE",
"-45 1908 OFFCURVE",
"-54 1913 CURVE",
"-20 1951 LINE SMOOTH",
"43 2023 OFFCURVE",
"89 2043 OFFCURVE",
"137 2043 CURVE SMOOTH",
"156 2043 OFFCURVE",
"198 2034 OFFCURVE",
"198 2005 CURVE SMOOTH",
"198 1978 OFFCURVE",
"164 1951 OFFCURVE",
"113 1931 CURVE SMOOTH",
"77 1917 LINE"
);
}
);
width = 0;
}
);
note = WaslaNS;
},
{
glyphname = HamzaAboveNS;
lastChange = "2016-12-06 15:22:26 +0000";
layers = (
{
layerId = "B831CC2C-6991-4D3A-BB51-B9DC9D9CB4BD";
paths = (
{
closed = 1;
nodes = (
"-55 1928 OFFCURVE",
"-71 1909 OFFCURVE",
"-83 1902 CURVE",
"-95 1894 OFFCURVE",
"-107 1890 OFFCURVE",
"-119 1890 CURVE SMOOTH",
"-140 1890 OFFCURVE",
"-158 1909 OFFCURVE",
"-158 1942 CURVE",
"-193 1949 LINE",
"-224 1916 OFFCURVE",
"-256 1861 OFFCURVE",
"-256 1805 CURVE SMOOTH",
"-256 1757 OFFCURVE",
"-226 1737 OFFCURVE",
"-185 1737 CURVE SMOOTH",
"-133 1737 OFFCURVE",
"-90 1775 OFFCURVE",
"-38 1854 CURVE SMOOTH",
"31 1960 LINE SMOOTH",
"50 1989 OFFCURVE",
"65 2007 OFFCURVE",
"77 2015 CURVE SMOOTH",
"89 2023 OFFCURVE",
"101 2027 OFFCURVE",
"113 2027 CURVE SMOOTH",
"136 2027 OFFCURVE",
"153 2008 OFFCURVE",
"153 1975 CURVE",
"187 1967 LINE",
"219 2002 OFFCURVE",
"250 2056 OFFCURVE",
"250 2111 CURVE SMOOTH",
"250 2159 OFFCURVE",
"221 2180 OFFCURVE",
"180 2180 CURVE SMOOTH",
"127 2180 OFFCURVE",
"85 2141 OFFCURVE",
"34 2065 CURVE SMOOTH",
"-36 1958 LINE SMOOTH"
);
}
);
width = 0;
}
);
note = HamzaAboveNS;
unicode = 0654;
},
{
glyphname = HamzaAboveAF_NS;
lastChange = "2016-12-06 15:22:26 +0000";
layers = (
{
layerId = "B831CC2C-6991-4D3A-BB51-B9DC9D9CB4BD";
paths = (
{
closed = 1;
nodes = (
"209 1971 OFFCURVE",
"142 1930 OFFCURVE",
"95 1930 CURVE SMOOTH",
"16 1930 OFFCURVE",
"-32 1966 OFFCURVE",
"-32 2014 CURVE SMOOTH",
"-32 2062 OFFCURVE",
"23 2097 OFFCURVE",
"74 2097 CURVE SMOOTH",
"101 2097 OFFCURVE",
"125 2087 OFFCURVE",
"144 2068 CURVE",
"153 2068 LINE",
"170 2076 OFFCURVE",
"185 2097 OFFCURVE",
"185 2124 CURVE SMOOTH",
"185 2163 OFFCURVE",
"150 2182 OFFCURVE",
"110 2182 CURVE SMOOTH",
"11 2182 OFFCURVE",
"-144 2027 OFFCURVE",
"-144 1926 CURVE SMOOTH",
"-144 1899 OFFCURVE",
"-137 1879 OFFCURVE",
"-124 1867 CURVE SMOOTH",
"-111 1855 OFFCURVE",
"-102 1845 OFFCURVE",
"-97 1836 CURVE",
"-99 1829 LINE",
"-135 1808 OFFCURVE",
"-191 1754 OFFCURVE",
"-211 1687 CURVE",
"-196 1674 LINE",
"-136 1717 OFFCURVE",
"-64 1758 OFFCURVE",
"19 1796 CURVE SMOOTH",
"186 1871 OFFCURVE",
"233 1894 OFFCURVE",
"272 2005 CURVE",
"254 2016 LINE"
);
}
);
width = 0;
}
);
note = HamzaAboveAF_NS;
},
{
glyphname = AlayhissalamNS;
lastChange = "2016-12-06 15:22:26 +0000";
layers = (
{
layerId = "B831CC2C-6991-4D3A-BB51-B9DC9D9CB4BD";
paths = (
{
closed = 1;
nodes = (
"-149 1771 OFFCURVE",
"-140 1808 OFFCURVE",
"-140 1955 CURVE",
"-116 1935 OFFCURVE",
"-85 1930 OFFCURVE",
"-50 1930 CURVE SMOOTH",
"74 1930 OFFCURVE",
"239 2018 OFFCURVE",
"306 2169 CURVE",
"290 2180 LINE",
"257 2147 OFFCURVE",
"179 2084 OFFCURVE",
"126 2084 CURVE SMOOTH",
"66 2084 OFFCURVE",
"7 2114 OFFCURVE",
"7 2162 CURVE SMOOTH",
"7 2210 OFFCURVE",
"58 2239 OFFCURVE",
"106 2239 CURVE SMOOTH",
"133 2239 OFFCURVE",
"155 2230 OFFCURVE",
"173 2212 CURVE",
"180 2212 LINE",
"197 2220 OFFCURVE",
"211 2239 OFFCURVE",
"211 2264 CURVE SMOOTH",
"211 2300 OFFCURVE",
"176 2318 OFFCURVE",
"140 2318 CURVE SMOOTH",
"49 2318 OFFCURVE",
"-95 2174 OFFCURVE",
"-95 2081 CURVE SMOOTH",
"-95 2065 OFFCURVE",
"-93 2052 OFFCURVE",
"-88 2041 CURVE",
"-128 2053 OFFCURVE",
"-149 2089 OFFCURVE",
"-152 2148 CURVE SMOOTH",
"-155 2207 OFFCURVE",
"-162 2250 OFFCURVE",
"-171 2275 CURVE",
"-180 2275 LINE",
"-203 2218 LINE",
"-214 2194 OFFCURVE",
"-222 2174 OFFCURVE",
"-227 2158 CURVE",
"-227 2143 OFFCURVE",
"-222 2103 OFFCURVE",
"-211 2039 CURVE SMOOTH",
"-201 1974 OFFCURVE",
"-196 1894 OFFCURVE",
"-196 1798 CURVE",
"-197 1771 OFFCURVE",
"-198 1748 OFFCURVE",
"-198 1729 CURVE SMOOTH",
"-198 1710 OFFCURVE",
"-199 1698 OFFCURVE",
"-202 1692 CURVE",
"-182 1688 LINE"
);
}
);
width = 0;
}
);
note = AlayhissalamNS;
unicode = 0611;
},
{
glyphname = AlefSuperiorNS;
lastChange = "2016-12-06 15:22:26 +0000";
layers = (
{
layerId = "B831CC2C-6991-4D3A-BB51-B9DC9D9CB4BD";
paths = (
{
closed = 1;
nodes = (
"30 1834 OFFCURVE",
"57 1938 OFFCURVE",
"61 2025 CURVE SMOOTH",
"63 2061 LINE SMOOTH",
"66 2121 OFFCURVE",
"69 2167 OFFCURVE",
"72 2199 CURVE SMOOTH",
"75 2230 OFFCURVE",
"78 2253 OFFCURVE",
"81 2266 CURVE",
"59 2273 LINE",
"7 2170 OFFCURVE",
"-8 2133 OFFCURVE",
"-13 2032 CURVE SMOOTH",
"-16 1942 LINE SMOOTH",
"-21 1851 OFFCURVE",
"-30 1772 OFFCURVE",
"-34 1748 CURVE",
"-11 1742 LINE"
);
}
);
width = 0;
}
);
note = AlefSuperiorNS;
unicode = 0670;
},
{
glyphname = AlefSuperiorTallNS;
lastChange = "2016-12-06 15:22:26 +0000";
layers = (
{
layerId = "B831CC2C-6991-4D3A-BB51-B9DC9D9CB4BD";
paths = (
{
closed = 1;
nodes = (
"17 1762 OFFCURVE",
"42 1866 OFFCURVE",
"47 1953 CURVE SMOOTH",
"58 2126 LINE SMOOTH",
"62 2217 OFFCURVE",
"71 2304 OFFCURVE",
"83 2333 CURVE",
"61 2340 LINE",
"13 2244 OFFCURVE",
"-20 2144 OFFCURVE",
"-20 2084 CURVE",
"-29 1870 LINE SMOOTH",
"-33 1779 OFFCURVE",
"-42 1700 OFFCURVE",
"-47 1676 CURVE",
"-23 1670 LINE"
);
}
);
width = 0;
}
);
note = AlefSuperiorTallNS;
},
{
glyphname = AlefInferiorNS;
lastChange = "2016-12-06 15:22:26 +0000";
layers = (
{
layerId = "B831CC2C-6991-4D3A-BB51-B9DC9D9CB4BD";
paths = (
{
closed = 1;
nodes = (
"30 -456 OFFCURVE",
"57 -350 OFFCURVE",
"61 -265 CURVE SMOOTH",
"63 -229 LINE SMOOTH",
"66 -169 OFFCURVE",
"69 -123 OFFCURVE",
"72 -91 CURVE SMOOTH",
"75 -59 OFFCURVE",
"78 -36 OFFCURVE",
"81 -23 CURVE",
"59 -16 LINE",
"7 -120 OFFCURVE",
"-8 -157 OFFCURVE",
"-13 -257 CURVE SMOOTH",
"-16 -347 LINE SMOOTH",
"-21 -439 OFFCURVE",
"-30 -518 OFFCURVE",
"-34 -542 CURVE",
"-11 -547 LINE"
);
}
);
width = 0;
}
);
note = AlefInferiorNS;
unicode = 0656;
},
{
glyphname = DammaNS;
lastChange = "2016-12-06 15:22:26 +0000";
layers = (
{
layerId = "B831CC2C-6991-4D3A-BB51-B9DC9D9CB4BD";
paths = (
{
closed = 1;
nodes = (
"-195 1779 OFFCURVE",
"-148 1802 OFFCURVE",
"-103 1829 CURVE SMOOTH",
"14 1894 LINE",
"169 1999 OFFCURVE",
"223 2076 OFFCURVE",
"223 2167 CURVE SMOOTH",
"223 2215 OFFCURVE",
"201 2257 OFFCURVE",
"146 2257 CURVE SMOOTH",
"77 2257 OFFCURVE",
"-5 2167 OFFCURVE",
"-5 2095 CURVE SMOOTH",
"-5 2068 OFFCURVE",
"7 2033 OFFCURVE",
"34 2002 CURVE",
"1 1978 OFFCURVE",
"-185 1829 OFFCURVE",
"-238 1777 CURVE",
"-227 1764 LINE"
);
},
{
closed = 1;
nodes = (
"137 2180 OFFCURVE",
"153 2165 OFFCURVE",
"153 2138 CURVE SMOOTH",
"153 2107 OFFCURVE",
"132 2082 OFFCURVE",
"108 2061 CURVE",
"77 2090 OFFCURVE",
"58 2110 OFFCURVE",
"58 2131 CURVE SMOOTH",
"58 2163 OFFCURVE",
"83 2180 OFFCURVE",
"110 2180 CURVE SMOOTH"
);
}
);
width = 0;
}
);
note = DammaNS;
unicode = 064F;
},
{
glyphname = UltapeshNS;
lastChange = "2016-12-06 15:22:26 +0000";
layers = (
{
layerId = "B831CC2C-6991-4D3A-BB51-B9DC9D9CB4BD";
paths = (
{
closed = 1;
nodes = (
"204 2252 OFFCURVE",
"185 2242 OFFCURVE",
"163 2231 CURVE SMOOTH",
"141 2220 OFFCURVE",
"118 2208 OFFCURVE",
"95 2196 CURVE",
"-22 2129 LINE",
"-92 2077 LINE SMOOTH",
"-176 2013 OFFCURVE",
"-230 1937 OFFCURVE",
"-230 1856 CURVE SMOOTH",
"-230 1808 OFFCURVE",
"-208 1766 OFFCURVE",
"-153 1766 CURVE SMOOTH",
"-84 1766 OFFCURVE",
"-2 1856 OFFCURVE",
"-2 1928 CURVE SMOOTH",
"-2 1955 OFFCURVE",
"-16 1990 OFFCURVE",
"-41 2021 CURVE",
"-8 2045 OFFCURVE",
"178 2194 OFFCURVE",
"230 2246 CURVE",
"220 2259 LINE"
);
},
{
closed = 1;
nodes = (
"-144 1843 OFFCURVE",
"-160 1858 OFFCURVE",
"-160 1885 CURVE SMOOTH",
"-160 1916 OFFCURVE",
"-139 1941 OFFCURVE",
"-115 1962 CURVE",
"-84 1933 OFFCURVE",
"-65 1913 OFFCURVE",
"-65 1892 CURVE SMOOTH",
"-65 1860 OFFCURVE",
"-90 1843 OFFCURVE",
"-117 1843 CURVE SMOOTH"
);
}
);
width = 0;
}
);
note = UltapeshNS;
unicode = 0657;
},
{
glyphname = DammatanNS;
lastChange = "2016-12-06 15:22:26 +0000";
layers = (
{
layerId = "B831CC2C-6991-4D3A-BB51-B9DC9D9CB4BD";
paths = (
{
closed = 1;
nodes = (
"-178 2003 OFFCURVE",
"-189 1959 OFFCURVE",
"-189 1928 CURVE SMOOTH",
"-189 1835 OFFCURVE",
"-154 1780 OFFCURVE",
"-59 1780 CURVE SMOOTH",
"82 1780 OFFCURVE",
"279 1970 OFFCURVE",
"279 2110 CURVE SMOOTH",
"279 2155 OFFCURVE",
"259 2194 OFFCURVE",
"203 2194 CURVE SMOOTH",
"139 2194 OFFCURVE",
"63 2109 OFFCURVE",
"63 2041 CURVE SMOOTH",
"63 2008 OFFCURVE",
"73 1975 OFFCURVE",
"106 1940 CURVE",
"51 1896 OFFCURVE",
"1 1874 OFFCURVE",
"-43 1874 CURVE SMOOTH",
"-106 1874 OFFCURVE",
"-131 1912 OFFCURVE",
"-131 1975 CURVE",
"-130 2003 LINE",
"-130 2019 OFFCURVE",
"-128 2034 OFFCURVE",
"-124 2047 CURVE",
"-121 2060 OFFCURVE",
"-119 2071 OFFCURVE",
"-119 2081 CURVE SMOOTH",
"-119 2105 OFFCURVE",
"-135 2111 OFFCURVE",
"-151 2111 CURVE SMOOTH",
"-196 2111 OFFCURVE",
"-272 2062 OFFCURVE",
"-315 2007 CURVE",
"-301 1991 LINE",
"-265 2018 OFFCURVE",
"-219 2036 OFFCURVE",
"-180 2036 CURVE SMOOTH",
"-169 2036 LINE"
);
},
{
closed = 1;
nodes = (
"196 2120 OFFCURVE",
"212 2108 OFFCURVE",
"212 2081 CURVE SMOOTH",
"212 2049 OFFCURVE",
"200 2032 OFFCURVE",
"173 2005 CURVE",
"137 2034 OFFCURVE",
"122 2054 OFFCURVE",
"122 2075 CURVE SMOOTH",
"122 2104 OFFCURVE",
"145 2120 OFFCURVE",
"169 2120 CURVE SMOOTH"
);
}
);
width = 0;
}
);
note = DammatanNS;
unicode = 064C;
},
{
glyphname = FathaNS;
lastChange = "2016-12-06 15:22:26 +0000";
layers = (
{
layerId = "B831CC2C-6991-4D3A-BB51-B9DC9D9CB4BD";
paths = (
{
closed = 1;
nodes = (
"-178 1887 OFFCURVE",
"-218 1859 OFFCURVE",
"-238 1782 CURVE",
"-223 1771 LINE",
"-202 1795 OFFCURVE",
"-163 1818 OFFCURVE",
"-115 1845 CURVE SMOOTH",
"169 2000 LINE SMOOTH",
"217 2027 OFFCURVE",
"254 2062 OFFCURVE",
"283 2137 CURVE",
"265 2147 LINE",
"255 2140 OFFCURVE",
"240 2131 OFFCURVE",
"220 2119 CURVE SMOOTH",
"162 2086 LINE",
"11 2003 LINE",
"-65 1960 LINE",
"-121 1926 LINE"
);
}
);
width = 0;
}
);
note = FathaNS;
unicode = 064E;
},
{
glyphname = FathatanNS;
lastChange = "2016-12-06 15:22:26 +0000";
layers = (
{
layerId = "B831CC2C-6991-4D3A-BB51-B9DC9D9CB4BD";
paths = (
{
closed = 1;
nodes = (
"-178 1887 OFFCURVE",
"-218 1859 OFFCURVE",
"-238 1782 CURVE",
"-223 1771 LINE",
"-202 1795 OFFCURVE",
"-163 1818 OFFCURVE",
"-115 1845 CURVE SMOOTH",
"169 2000 LINE SMOOTH",
"217 2027 OFFCURVE",
"254 2062 OFFCURVE",
"283 2137 CURVE",
"265 2147 LINE",
"255 2140 OFFCURVE",
"240 2131 OFFCURVE",
"220 2119 CURVE SMOOTH",
"162 2086 LINE",
"11 2003 LINE",
"-65 1960 LINE",
"-121 1926 LINE"
);
},
{
closed = 1;
nodes = (
"-151 2092 OFFCURVE",
"-191 2064 OFFCURVE",
"-211 1987 CURVE",
"-196 1976 LINE",
"-175 2000 OFFCURVE",
"-136 2023 OFFCURVE",
"-88 2050 CURVE SMOOTH",
"196 2205 LINE SMOOTH",
"244 2232 OFFCURVE",
"281 2267 OFFCURVE",
"310 2342 CURVE",
"292 2353 LINE",
"282 2346 OFFCURVE",
"267 2336 OFFCURVE",
"247 2324 CURVE SMOOTH",
"189 2291 LINE",
"38 2209 LINE",
"-38 2165 LINE",
"-94 2131 LINE"
);
}
);
width = 0;
}
);
note = FathatanNS;
unicode = 064B;
},
{
glyphname = KasraNS;
lastChange = "2016-12-06 15:22:26 +0000";
layers = (
{
layerId = "B831CC2C-6991-4D3A-BB51-B9DC9D9CB4BD";
paths = (
{
closed = 1;
nodes = (
"-185 -262 OFFCURVE",
"-225 -291 OFFCURVE",
"-245 -367 CURVE",
"-230 -378 LINE",
"-209 -354 OFFCURVE",
"-170 -331 OFFCURVE",
"-122 -304 CURVE SMOOTH",
"162 -149 LINE SMOOTH",
"210 -124 OFFCURVE",
"247 -86 OFFCURVE",
"275 -13 CURVE",
"257 -2 LINE",
"248 -9 OFFCURVE",
"233 -19 OFFCURVE",
"212 -31 CURVE SMOOTH",
"155 -63 LINE",
"4 -146 LINE",
"-72 -189 LINE",
"-128 -223 LINE"
);
}
);
width = 0;
}
);
note = KasraNS;
unicode = 0650;
},
{
glyphname = KasratanNS;
lastChange = "2016-12-06 15:22:26 +0000";
layers = (
{
layerId = "B831CC2C-6991-4D3A-BB51-B9DC9D9CB4BD";
paths = (
{
closed = 1;
nodes = (
"-214 -467 OFFCURVE",
"-254 -496 OFFCURVE",
"-274 -572 CURVE",
"-259 -583 LINE",
"-238 -559 OFFCURVE",
"-199 -536 OFFCURVE",
"-151 -509 CURVE SMOOTH",
"133 -355 LINE SMOOTH",
"181 -328 OFFCURVE",
"218 -293 OFFCURVE",
"247 -218 CURVE",
"229 -207 LINE",
"219 -214 OFFCURVE",
"204 -224 OFFCURVE",
"184 -236 CURVE",
"126 -268 LINE",
"-25 -351 LINE",
"-101 -394 LINE",
"-157 -428 LINE"
);
},
{
closed = 1;
nodes = (
"-187 -262 OFFCURVE",
"-227 -291 OFFCURVE",
"-247 -367 CURVE",
"-232 -378 LINE",
"-211 -354 OFFCURVE",
"-172 -331 OFFCURVE",
"-124 -304 CURVE SMOOTH",
"160 -149 LINE SMOOTH",
"208 -124 OFFCURVE",
"245 -86 OFFCURVE",
"274 -13 CURVE",
"256 -2 LINE",
"246 -9 OFFCURVE",
"231 -19 OFFCURVE",
"211 -31 CURVE",
"153 -63 LINE",
"2 -146 LINE",
"-74 -189 LINE",
"-130 -223 LINE"
);
}
);
width = 0;
}
);
note = KasratanNS;
unicode = 064D;
},
{
glyphname = NoonGhunnaMarkNS;
lastChange = "2016-12-06 15:22:26 +0000";
layers = (
{
layerId = "B831CC2C-6991-4D3A-BB51-B9DC9D9CB4BD";
paths = (
{
closed = 1;
nodes = (
"190 1998 OFFCURVE",
"99 1940 OFFCURVE",
"-25 1940 CURVE SMOOTH",
"-117 1940 OFFCURVE",
"-178 1973 OFFCURVE",
"-178 2074 CURVE SMOOTH",
"-178 2101 LINE SMOOTH",
"-178 2109 OFFCURVE",
"-177 2118 OFFCURVE",
"-175 2128 CURVE",
"-220 2131 LINE",
"-232 2083 OFFCURVE",
"-238 2048 OFFCURVE",
"-238 2012 CURVE SMOOTH",
"-238 1873 OFFCURVE",
"-155 1807 OFFCURVE",
"-32 1807 CURVE SMOOTH",
"133 1807 OFFCURVE",
"265 1967 OFFCURVE",
"270 2142 CURVE",
"223 2142 LINE"
);
}
);
width = 0;
}
);
note = NoonGhunnaMarkNS;
unicode = 0658;
},
{
glyphname = NoonGhunnaMarkKshmrNS;
lastChange = "2016-12-06 15:22:26 +0000";
layers = (
{
layerId = "B831CC2C-6991-4D3A-BB51-B9DC9D9CB4BD";
paths = (
{
closed = 1;
nodes = (
"-186 2077 OFFCURVE",
"-95 2135 OFFCURVE",
"29 2135 CURVE SMOOTH",
"121 2135 OFFCURVE",
"182 2102 OFFCURVE",
"182 2001 CURVE SMOOTH",
"182 1974 LINE SMOOTH",
"182 1966 OFFCURVE",
"181 1957 OFFCURVE",
"179 1947 CURVE",
"224 1944 LINE",
"236 1992 OFFCURVE",
"242 2027 OFFCURVE",
"242 2063 CURVE SMOOTH",
"242 2202 OFFCURVE",
"159 2268 OFFCURVE",
"36 2268 CURVE SMOOTH",
"-129 2268 OFFCURVE",
"-261 2108 OFFCURVE",
"-266 1933 CURVE",
"-219 1933 LINE"
);
}
);
width = 0;
}
);
note = NoonGhunnaMarkKshmrNS;
},
{
glyphname = RadiallahNS;
lastChange = "2016-12-06 15:22:26 +0000";
layers = (
{
layerId = "B831CC2C-6991-4D3A-BB51-B9DC9D9CB4BD";
paths = (
{
closed = 1;
nodes = (
"349 2157 OFFCURVE",
"322 2096 OFFCURVE",
"292 2045 CURVE SMOOTH",
"232 1941 OFFCURVE",
"46 1801 OFFCURVE",
"-14 1769 CURVE",
"-11 1746 LINE",
"119 1773 OFFCURVE",
"197 1798 OFFCURVE",
"224 1819 CURVE SMOOTH",
"276 1861 OFFCURVE",
"352 2017 OFFCURVE",
"403 2221 CURVE",
"373 2227 LINE"
);
},
{
closed = 1;
nodes = (
"-271 1775 OFFCURVE",
"-263 1813 OFFCURVE",
"-263 1960 CURVE",
"-231 1936 OFFCURVE",
"-192 1935 OFFCURVE",
"-160 1935 CURVE SMOOTH",
"23 1935 OFFCURVE",
"187 2133 OFFCURVE",
"187 2261 CURVE SMOOTH",
"187 2297 OFFCURVE",
"160 2324 OFFCURVE",
"115 2324 CURVE SMOOTH",
"52 2324 OFFCURVE",
"-19 2293 OFFCURVE",
"-124 2174 CURVE SMOOTH",
"-198 2084 LINE SMOOTH",
"-207 2073 OFFCURVE",
"-213 2064 OFFCURVE",
"-218 2057 CURVE",
"-254 2069 OFFCURVE",
"-273 2103 OFFCURVE",
"-274 2158 CURVE SMOOTH",
"-276 2213 OFFCURVE",
"-282 2254 OFFCURVE",
"-293 2281 CURVE",
"-302 2281 LINE",
"-326 2223 LINE",
"-337 2199 OFFCURVE",
"-344 2179 OFFCURVE",
"-349 2164 CURVE",
"-349 2148 OFFCURVE",
"-344 2108 OFFCURVE",
"-334 2044 CURVE SMOOTH",
"-324 1980 OFFCURVE",
"-319 1900 OFFCURVE",
"-319 1804 CURVE",
"-320 1776 OFFCURVE",
"-320 1753 OFFCURVE",
"-320 1734 CURVE SMOOTH",
"-320 1715 OFFCURVE",
"-321 1703 OFFCURVE",
"-324 1697 CURVE",
"-304 1694 LINE"
);
},
{
closed = 1;
nodes = (
"101 2109 OFFCURVE",
"-19 2045 OFFCURVE",
"-144 2045 CURVE SMOOTH",
"-153 2045 OFFCURVE",
"-164 2046 OFFCURVE",
"-176 2048 CURVE",
"-148 2083 LINE SMOOTH",
"-92 2152 OFFCURVE",
"-36 2200 OFFCURVE",
"36 2200 CURVE SMOOTH",
"57 2200 OFFCURVE",
"101 2191 OFFCURVE",
"101 2160 CURVE SMOOTH"
);
},
{
closed = 1;
nodes = (
"-130 2369 LINE SMOOTH",
"-115 2357 OFFCURVE",
"-105 2347 OFFCURVE",
"-99 2340 CURVE",
"-90 2340 LINE",
"-57 2364 OFFCURVE",
"-22 2392 OFFCURVE",
"-22 2419 CURVE SMOOTH",
"-22 2440 OFFCURVE",
"-43 2461 OFFCURVE",
"-86 2488 CURVE",
"-94 2488 LINE",
"-103 2480 OFFCURVE",
"-146 2438 OFFCURVE",
"-167 2407 CURVE",
"-167 2398 LINE"
);
}
);
width = 0;
}
);
note = RadiallahNS;
unicode = 0613;
},
{
glyphname = RahmatullahNS;
lastChange = "2016-12-06 15:22:26 +0000";
layers = (
{
layerId = "B831CC2C-6991-4D3A-BB51-B9DC9D9CB4BD";
paths = (
{
closed = 1;
nodes = (
"300 2188 OFFCURVE",
"273 2127 OFFCURVE",
"243 2076 CURVE SMOOTH",
"183 1972 OFFCURVE",
"-3 1831 OFFCURVE",
"-63 1800 CURVE",
"-59 1777 LINE",
"70 1804 OFFCURVE",
"148 1829 OFFCURVE",
"175 1850 CURVE SMOOTH",
"227 1892 OFFCURVE",
"304 2048 OFFCURVE",
"355 2252 CURVE",
"324 2257 LINE"
);
},
{
closed = 1;
nodes = (
"-266 1760 LINE",
"-226 1928 OFFCURVE",
"-32 2105 OFFCURVE",
"77 2166 CURVE SMOOTH",
"131 2197 OFFCURVE",
"170 2237 OFFCURVE",
"194 2286 CURVE",
"194 2293 LINE",
"163 2308 OFFCURVE",
"41 2329 OFFCURVE",
"-43 2329 CURVE SMOOTH",
"-166 2329 OFFCURVE",
"-208 2285 OFFCURVE",
"-247 2174 CURVE",
"-220 2165 LINE",
"-193 2218 OFFCURVE",
"-161 2219 OFFCURVE",
"-108 2219 CURVE",
"-85 2218 OFFCURVE",
"-64 2218 OFFCURVE",
"-43 2218 CURVE",
"7 2214 LINE SMOOTH",
"38 2211 OFFCURVE",
"54 2208 OFFCURVE",
"54 2205 CURVE",
"-114 2100 OFFCURVE",
"-246 1980 OFFCURVE",
"-315 1800 CURVE",
"-284 1760 LINE"
);
}
);
width = 0;
}
);
note = RahmatullahNS;
unicode = 0612;
},
{
glyphname = SallallahNS;
lastChange = "2016-12-06 15:22:26 +0000";
layers = (
{
layerId = "B831CC2C-6991-4D3A-BB51-B9DC9D9CB4BD";
paths = (
{
closed = 1;
nodes = (
"-161 1789 OFFCURVE",
"-153 1826 OFFCURVE",
"-153 1973 CURVE",
"-122 1949 OFFCURVE",
"-82 1948 OFFCURVE",
"-50 1948 CURVE SMOOTH",
"131 1948 OFFCURVE",
"297 2146 OFFCURVE",
"297 2273 CURVE SMOOTH",
"297 2309 OFFCURVE",
"270 2336 OFFCURVE",
"225 2336 CURVE SMOOTH",
"162 2336 OFFCURVE",
"91 2304 OFFCURVE",
"-14 2187 CURVE",
"-88 2097 LINE SMOOTH",
"-97 2086 OFFCURVE",
"-103 2077 OFFCURVE",
"-108 2070 CURVE",
"-144 2082 OFFCURVE",
"-163 2116 OFFCURVE",
"-164 2171 CURVE SMOOTH",
"-166 2226 OFFCURVE",
"-173 2267 OFFCURVE",
"-184 2293 CURVE",
"-193 2293 LINE",
"-216 2236 LINE",
"-227 2212 OFFCURVE",
"-234 2192 OFFCURVE",
"-239 2176 CURVE",
"-239 2161 OFFCURVE",
"-234 2121 OFFCURVE",
"-224 2057 CURVE SMOOTH",
"-214 1992 OFFCURVE",
"-209 1912 OFFCURVE",
"-209 1816 CURVE",
"-210 1789 OFFCURVE",
"-211 1766 OFFCURVE",
"-211 1747 CURVE SMOOTH",
"-211 1728 OFFCURVE",
"-212 1716 OFFCURVE",
"-214 1710 CURVE",
"-194 1706 LINE"
);
},
{
closed = 1;
nodes = (
"211 2122 OFFCURVE",
"90 2057 OFFCURVE",
"-34 2057 CURVE SMOOTH",
"-44 2057 OFFCURVE",
"-55 2058 OFFCURVE",
"-67 2061 CURVE",
"-38 2095 LINE SMOOTH",
"18 2164 OFFCURVE",
"74 2212 OFFCURVE",
"146 2212 CURVE SMOOTH",
"167 2212 OFFCURVE",
"211 2204 OFFCURVE",
"211 2173 CURVE SMOOTH"
);
}
);
width = 0;
}
);
note = SallallahNS;
unicode = 0610;
},
{
glyphname = ShaddaNS;
lastChange = "2016-12-06 15:22:26 +0000";
layers = (
{
layerId = "B831CC2C-6991-4D3A-BB51-B9DC9D9CB4BD";
paths = (
{
closed = 1;
nodes = (
"-221 1951 OFFCURVE",
"-227 1923 OFFCURVE",
"-227 1890 CURVE SMOOTH",
"-227 1847 OFFCURVE",
"-207 1804 OFFCURVE",
"-151 1804 CURVE SMOOTH",
"-88 1804 OFFCURVE",
"-46 1850 OFFCURVE",
"-13 1930 CURVE",
"-1 1919 OFFCURVE",
"21 1913 OFFCURVE",
"38 1913 CURVE SMOOTH",
"146 1913 OFFCURVE",
"198 2012 OFFCURVE",
"198 2137 CURVE SMOOTH",
"198 2158 LINE",
"162 2153 LINE",
"155 2100 OFFCURVE",
"145 2065 OFFCURVE",
"133 2046 CURVE SMOOTH",
"121 2027 OFFCURVE",
"104 2018 OFFCURVE",
"81 2018 CURVE SMOOTH",
"60 2018 OFFCURVE",
"31 2027 OFFCURVE",
"16 2054 CURVE",
"-16 2048 LINE",
"-43 1943 OFFCURVE",
"-71 1908 OFFCURVE",
"-126 1908 CURVE SMOOTH",
"-157 1908 OFFCURVE",
"-174 1924 OFFCURVE",
"-182 1969 CURVE",
"-182 1978 LINE",
"-209 1975 LINE"
);
}
);
width = 0;
}
);
note = ShaddaNS;
unicode = 0651;
},
{
glyphname = SharetKafNS;
lastChange = "2016-12-06 15:22:26 +0000";
layers = (
{
layerId = "B831CC2C-6991-4D3A-BB51-B9DC9D9CB4BD";
paths = (
{
closed = 1;
nodes = (
"1022 1244 OFFCURVE",
"1027 1258 OFFCURVE",
"1038 1273 CURVE SMOOTH",
"1048 1287 OFFCURVE",
"1071 1307 OFFCURVE",
"1107 1332 CURVE",
"1136 1422 LINE",
"1120 1438 LINE",
"1025 1375 OFFCURVE",
"875 1197 OFFCURVE",
"875 1116 CURVE SMOOTH",
"875 1097 OFFCURVE",
"885 1075 OFFCURVE",
"904 1052 CURVE SMOOTH",
"923 1029 OFFCURVE",
"932 1012 OFFCURVE",
"932 1001 CURVE SMOOTH",
"932 970 OFFCURVE",
"862 910 OFFCURVE",
"722 823 CURVE",
"738 796 LINE",
"798 809 OFFCURVE",
"851 827 OFFCURVE",
"896 850 CURVE",
"1021 962 OFFCURVE",
"1084 1043 OFFCURVE",
"1084 1118 CURVE SMOOTH",
"1084 1141 OFFCURVE",
"1073 1163 OFFCURVE",
"1051 1184 CURVE SMOOTH",
"1032 1203 OFFCURVE",
"1022 1218 OFFCURVE",
"1022 1229 CURVE SMOOTH"
);
}
);
width = 0;
}
);
note = SharetKafNS;
},
{
glyphname = SharetYehPashtoNS;
lastChange = "2016-12-06 15:22:26 +0000";
layers = (
{
layerId = "B831CC2C-6991-4D3A-BB51-B9DC9D9CB4BD";
paths = (
{
closed = 1;
nodes = (
"452 771 OFFCURVE",
"435 781 OFFCURVE",
"400 781 CURVE SMOOTH",
"229 781 OFFCURVE",
"4 632 OFFCURVE",
"-140 392 CURVE",
"-104 369 LINE",
"35 510 OFFCURVE",
"185 575 OFFCURVE",
"280 573 CURVE SMOOTH",
"375 571 OFFCURVE",
"452 728 OFFCURVE",
"452 751 CURVE SMOOTH"
);
}
);
width = 0;
}
);
note = SharetYehPashtoNS;
},
{
glyphname = Crossbar;
lastChange = "2016-12-06 15:22:26 +0000";
layers = (
{
layerId = "B831CC2C-6991-4D3A-BB51-B9DC9D9CB4BD";
paths = (
{
closed = 1;
nodes = (
"-22 530 OFFCURVE",
"129 546 OFFCURVE",
"162 562 CURVE SMOOTH",
"195 577 OFFCURVE",
"232 617 OFFCURVE",
"272 682 CURVE",
"265 698 LINE",
"190 683 OFFCURVE",
"32 666 OFFCURVE",
"-209 648 CURVE",
"-297 538 LINE",
"-290 515 LINE"
);
}
);
width = 0;
}
);
note = Crossbar;
},
{
glyphname = SukunHahNS;
lastChange = "2016-12-06 15:22:26 +0000";
layers = (
{
layerId = "B831CC2C-6991-4D3A-BB51-B9DC9D9CB4BD";
paths = (
{
closed = 1;
nodes = (
"58 1842 OFFCURVE",
"223 1977 OFFCURVE",
"238 2005 CURVE",
"230 2036 LINE",
"86 2099 OFFCURVE",
"-14 2110 OFFCURVE",
"-67 2110 CURVE SMOOTH",
"-122 2110 OFFCURVE",
"-165 2059 OFFCURVE",
"-198 1980 CURVE",
"-176 1969 LINE",
"-163 1981 OFFCURVE",
"-143 1991 OFFCURVE",
"-112 1991 CURVE SMOOTH",
"-73 1991 OFFCURVE",
"-10 1979 OFFCURVE",
"45 1964 CURVE",
"94 1948 LINE",
"94 1942 LINE",
"87 1933 OFFCURVE",
"54 1917 OFFCURVE",
"-3 1894 CURVE SMOOTH",
"-61 1871 OFFCURVE",
"-128 1849 OFFCURVE",
"-203 1829 CURVE",
"-200 1798 LINE",
"-182 1799 OFFCURVE",
"-162 1802 OFFCURVE",
"-139 1805 CURVE",
"-74 1816 LINE",
"-22 1827 LINE SMOOTH"
);
}
);
width = 0;
}
);
note = SukunHahNS;
unicode = 06E1;
},
{
glyphname = SukunJazmNS;
lastChange = "2016-12-06 15:22:26 +0000";
layers = (
{
layerId = "B831CC2C-6991-4D3A-BB51-B9DC9D9CB4BD";
paths = (
{
closed = 1;
nodes = (
"270 1886 OFFCURVE",
"262 1917 OFFCURVE",
"249 1945 CURVE SMOOTH",
"236 1973 OFFCURVE",
"195 2013 OFFCURVE",
"128 2066 CURVE SMOOTH",
"63 2115 LINE SMOOTH",
"39 2132 OFFCURVE",
"15 2149 OFFCURVE",
"-2 2158 CURVE",
"-27 2155 LINE",
"-190 2011 OFFCURVE",
"-280 1909 OFFCURVE",
"-284 1804 CURVE",
"-265 1800 LINE",
"-218 1851 OFFCURVE",
"-157 1908 OFFCURVE",
"-77 1971 CURVE SMOOTH",
"-11 2025 LINE",
"112 1946 LINE",
"189 1892 LINE SMOOTH",
"214 1874 OFFCURVE",
"237 1858 OFFCURVE",
"256 1843 CURVE",
"274 1852 LINE"
);
}
);
width = 0;
}
);
note = SukunJazmNS;
unicode = 0652;
},
{
glyphname = SukunNS;
lastChange = "2016-12-06 15:22:26 +0000";
layers = (
{
layerId = "B831CC2C-6991-4D3A-BB51-B9DC9D9CB4BD";
paths = (
{
closed = 1;
nodes = (
"151 2068 OFFCURVE",
"89 2162 OFFCURVE",
"13 2162 CURVE SMOOTH",
"-86 2162 OFFCURVE",
"-155 2050 OFFCURVE",
"-155 1930 CURVE SMOOTH",
"-155 1838 OFFCURVE",
"-102 1780 OFFCURVE",
"-18 1780 CURVE SMOOTH",
"87 1780 OFFCURVE",
"151 1858 OFFCURVE",
"151 1969 CURVE SMOOTH"
);
},
{
closed = 1;
nodes = (
"51 2054 OFFCURVE",
"94 2018 OFFCURVE",
"94 1975 CURVE SMOOTH",
"94 1919 OFFCURVE",
"47 1883 OFFCURVE",
"-5 1883 CURVE SMOOTH",
"-76 1883 OFFCURVE",
"-94 1920 OFFCURVE",
"-94 1960 CURVE SMOOTH",
"-94 2011 OFFCURVE",
"-53 2054 OFFCURVE",
"-2 2054 CURVE SMOOTH"
);
}
);
width = 0;
}
);
note = SukunNS;
},
{
glyphname = SukunZeroNS;
lastChange = "2016-12-06 15:22:26 +0000";
layers = (
{
layerId = "B831CC2C-6991-4D3A-BB51-B9DC9D9CB4BD";
paths = (
{
closed = 1;
nodes = (
"178 2145 OFFCURVE",
"112 2237 OFFCURVE",
"-5 2237 CURVE SMOOTH",
"-106 2237 OFFCURVE",
"-182 2144 OFFCURVE",
"-182 2011 CURVE SMOOTH",
"-182 1847 OFFCURVE",
"-115 1755 OFFCURVE",
"2 1755 CURVE SMOOTH",
"102 1755 OFFCURVE",
"178 1847 OFFCURVE",
"178 1982 CURVE SMOOTH"
);
},
{
closed = 1;
nodes = (
"61 1844 OFFCURVE",
"47 1804 OFFCURVE",
"2 1804 CURVE SMOOTH",
"-43 1804 OFFCURVE",
"-65 1891 OFFCURVE",
"-65 2065 CURVE SMOOTH",
"-65 2149 OFFCURVE",
"-52 2189 OFFCURVE",
"-5 2189 CURVE SMOOTH",
"39 2189 OFFCURVE",
"61 2102 OFFCURVE",
"61 1928 CURVE SMOOTH"
);
}
);
width = 0;
}
);
note = SukunZeroNS;
unicode = 06E0;
},
{
glyphname = TahSmallNS;
lastChange = "2016-12-06 15:22:26 +0000";
layers = (
{
layerId = "B831CC2C-6991-4D3A-BB51-B9DC9D9CB4BD";
paths = (
{
closed = 1;
nodes = (
"-27 2334 OFFCURVE",
"-49 2272 OFFCURVE",
"-54 2229 CURVE SMOOTH",
"-57 2207 OFFCURVE",
"-60 2144 OFFCURVE",
"-63 2039 CURVE SMOOTH",
"-68 1956 OFFCURVE",
"-74 1903 OFFCURVE",
"-83 1879 CURVE",
"-153 1791 LINE",
"-210 1779 OFFCURVE",
"-253 1772 OFFCURVE",
"-281 1769 CURVE",
"-284 1730 LINE",
"-229 1721 OFFCURVE",
"-162 1717 OFFCURVE",
"-83 1717 CURVE SMOOTH",
"-29 1717 OFFCURVE",
"23 1727 OFFCURVE",
"72 1748 CURVE SMOOTH",
"171 1788 OFFCURVE",
"265 1924 OFFCURVE",
"265 2020 CURVE SMOOTH",
"265 2053 OFFCURVE",
"233 2084 OFFCURVE",
"185 2084 CURVE SMOOTH",
"100 2084 OFFCURVE",
"44 2027 OFFCURVE",
"-9 1967 CURVE",
"6 2015 OFFCURVE",
"15 2064 OFFCURVE",
"18 2115 CURVE SMOOTH",
"27 2274 OFFCURVE",
"38 2370 OFFCURVE",
"49 2403 CURVE",
"18 2410 LINE"
);
},
{
closed = 1;
nodes = (
"178 1897 OFFCURVE",
"118 1863 OFFCURVE",
"-2 1827 CURVE SMOOTH",
"-27 1820 OFFCURVE",
"-49 1814 OFFCURVE",
"-67 1811 CURVE",
"-18 1874 OFFCURVE",
"19 1916 OFFCURVE",
"43 1937 CURVE SMOOTH",
"68 1958 OFFCURVE",
"96 1969 OFFCURVE",
"126 1969 CURVE SMOOTH",
"153 1969 OFFCURVE",
"178 1955 OFFCURVE",
"178 1930 CURVE SMOOTH"
);
}
);
width = 0;
}
);
note = TahSmallNS;
},
{
glyphname = Tah2DotsBelowNS;
lastChange = "2016-12-06 15:22:26 +0000";
layers = (
{
layerId = "B831CC2C-6991-4D3A-BB51-B9DC9D9CB4BD";
paths = (
{
closed = 1;
nodes = (
"-65 -718 LINE",
"-31 -695 OFFCURVE",
"-10 -674 OFFCURVE",
"-1 -656 CURVE",
"54 -707 LINE",
"61 -707 LINE",
"108 -672 OFFCURVE",
"131 -645 OFFCURVE",
"131 -628 CURVE SMOOTH",
"131 -604 OFFCURVE",
"110 -585 OFFCURVE",
"67 -556 CURVE",
"59 -556 LINE",
"23 -591 LINE",
"-1 -619 LINE",
"-11 -604 OFFCURVE",
"-31 -586 OFFCURVE",
"-61 -567 CURVE",
"-68 -567 LINE",
"-79 -574 OFFCURVE",
"-128 -627 OFFCURVE",
"-140 -648 CURVE",
"-140 -655 LINE",
"-72 -718 LINE"
);
},
{
closed = 1;
nodes = (
"-133 -516 OFFCURVE",
"-94 -518 OFFCURVE",
"-47 -518 CURVE SMOOTH",
"77 -518 OFFCURVE",
"153 -416 OFFCURVE",
"153 -344 CURVE SMOOTH",
"153 -327 OFFCURVE",
"135 -308 OFFCURVE",
"106 -308 CURVE SMOOTH",
"70 -308 OFFCURVE",
"41 -322 OFFCURVE",
"-4 -374 CURVE",
"3 -347 OFFCURVE",
"8 -319 OFFCURVE",
"11 -292 CURVE",
"16 -199 OFFCURVE",
"21 -143 OFFCURVE",
"27 -124 CURVE",
"11 -119 LINE",
"-16 -164 OFFCURVE",
"-28 -199 OFFCURVE",
"-30 -224 CURVE SMOOTH",
"-31 -237 OFFCURVE",
"-33 -273 OFFCURVE",
"-36 -333 CURVE SMOOTH",
"-39 -381 OFFCURVE",
"-42 -412 OFFCURVE",
"-47 -425 CURVE",
"-88 -477 LINE",
"-162 -488 LINE",
"-164 -511 LINE"
);
},
{
closed = 1;
nodes = (
"-10 -428 OFFCURVE",
"11 -404 OFFCURVE",
"26 -391 CURVE SMOOTH",
"40 -379 OFFCURVE",
"55 -373 OFFCURVE",
"72 -373 CURVE SMOOTH",
"87 -373 OFFCURVE",
"103 -381 OFFCURVE",
"103 -396 CURVE SMOOTH",
"103 -424 OFFCURVE",
"5 -461 OFFCURVE",
"-38 -464 CURVE"
);
}
);
width = 0;
}
);
note = Tah2DotsBelowNS;
},
{
glyphname = Tah2DotsAboveNS;
lastChange = "2016-12-06 15:22:26 +0000";
layers = (
{
layerId = "B831CC2C-6991-4D3A-BB51-B9DC9D9CB4BD";
paths = (
{
closed = 1;
nodes = (
"-101 1649 LINE",
"-49 1687 OFFCURVE",
"-15 1719 OFFCURVE",
"0 1746 CURVE",
"86 1667 LINE",
"97 1667 LINE",
"169 1720 OFFCURVE",
"205 1761 OFFCURVE",
"205 1791 CURVE SMOOTH",
"205 1827 OFFCURVE",
"172 1859 OFFCURVE",
"103 1903 CURVE",
"92 1903 LINE",
"73 1890 OFFCURVE",
"41 1857 OFFCURVE",
"-2 1805 CURVE",
"-15 1828 OFFCURVE",
"-46 1854 OFFCURVE",
"-95 1885 CURVE",
"-106 1885 LINE",
"-123 1873 OFFCURVE",
"-200 1792 OFFCURVE",
"-221 1759 CURVE",
"-221 1748 LINE",
"-112 1649 LINE"
);
},
{
closed = 1;
nodes = (
"-207 1966 OFFCURVE",
"-146 1962 OFFCURVE",
"-74 1962 CURVE SMOOTH",
"119 1962 OFFCURVE",
"238 2118 OFFCURVE",
"238 2234 CURVE SMOOTH",
"238 2262 OFFCURVE",
"211 2291 OFFCURVE",
"167 2291 CURVE SMOOTH",
"110 2291 OFFCURVE",
"52 2256 OFFCURVE",
"-7 2187 CURVE",
"5 2230 OFFCURVE",
"13 2274 OFFCURVE",
"16 2318 CURVE SMOOTH",
"25 2461 OFFCURVE",
"34 2548 OFFCURVE",
"43 2578 CURVE",
"16 2585 LINE",
"-24 2516 OFFCURVE",
"-44 2460 OFFCURVE",
"-48 2421 CURVE",
"-51 2402 OFFCURVE",
"-53 2345 OFFCURVE",
"-56 2252 CURVE SMOOTH",
"-61 2177 OFFCURVE",
"-67 2129 OFFCURVE",
"-74 2108 CURVE",
"-137 2027 LINE",
"-190 2016 OFFCURVE",
"-228 2010 OFFCURVE",
"-252 2009 CURVE",
"-256 1973 LINE"
);
},
{
closed = 1;
nodes = (
"-15 2102 OFFCURVE",
"18 2140 OFFCURVE",
"40 2158 CURVE",
"61 2179 OFFCURVE",
"86 2189 OFFCURVE",
"113 2189 CURVE SMOOTH",
"137 2189 OFFCURVE",
"160 2177 OFFCURVE",
"160 2153 CURVE SMOOTH",
"160 2134 OFFCURVE",
"139 2115 OFFCURVE",
"96 2095 CURVE SMOOTH",
"53 2075 OFFCURVE",
"1 2058 OFFCURVE",
"-59 2045 CURVE"
);
}
);
width = 0;
}
);
note = Tah2DotsAboveNS;
},
{
glyphname = TakhallusNS;
lastChange = "2016-12-06 15:22:26 +0000";
layers = (
{
layerId = "B831CC2C-6991-4D3A-BB51-B9DC9D9CB4BD";
paths = (
{
closed = 1;
nodes = (
"-117 1827 OFFCURVE",
"26 1910 OFFCURVE",
"73 1958 CURVE SMOOTH",
"96 1981 OFFCURVE",
"112 1993 OFFCURVE",
"121 1993 CURVE SMOOTH",
"126 1993 OFFCURVE",
"139 1985 OFFCURVE",
"161 1968 CURVE SMOOTH",
"183 1951 OFFCURVE",
"204 1942 OFFCURVE",
"225 1942 CURVE SMOOTH",
"294 1942 OFFCURVE",
"339 1995 OFFCURVE",
"380 2144 CURVE",
"344 2156 LINE",
"317 2095 OFFCURVE",
"292 2074 OFFCURVE",
"259 2074 CURVE SMOOTH",
"244 2074 OFFCURVE",
"229 2082 OFFCURVE",
"215 2097 CURVE SMOOTH",
"201 2112 OFFCURVE",
"187 2119 OFFCURVE",
"173 2119 CURVE SMOOTH",
"158 2119 OFFCURVE",
"140 2105 OFFCURVE",
"118 2077 CURVE SMOOTH",
"96 2048 OFFCURVE",
"49 2019 OFFCURVE",
"-24 1989 CURVE SMOOTH",
"-97 1959 OFFCURVE",
"-234 1937 OFFCURVE",
"-437 1922 CURVE",
"-445 1908 LINE",
"-428 1891 OFFCURVE",
"-355 1863 OFFCURVE",
"-286 1843 CURVE SMOOTH",
"-234 1827 LINE"
);
}
);
width = 0;
}
);
note = TakhallusNS;
unicode = 0614;
},
{
glyphname = HehCommaNS;
lastChange = "2016-12-06 15:22:26 +0000";
layers = (
{
layerId = "B831CC2C-6991-4D3A-BB51-B9DC9D9CB4BD";
paths = (
{
closed = 1;
nodes = (
"250 -471 OFFCURVE",
"191 -678 OFFCURVE",
"191 -783 CURVE SMOOTH",
"191 -884 OFFCURVE",
"235 -949 OFFCURVE",
"310 -949 CURVE SMOOTH",
"418 -949 OFFCURVE",
"482 -839 OFFCURVE",
"482 -752 CURVE SMOOTH",
"482 -689 OFFCURVE",
"457 -657 OFFCURVE",
"407 -657 CURVE SMOOTH",
"397 -657 OFFCURVE",
"389 -660 OFFCURVE",
"383 -666 CURVE",
"340 -740 LINE",
"322 -734 OFFCURVE",
"313 -703 OFFCURVE",
"313 -648 CURVE SMOOTH",
"313 -559 OFFCURVE",
"346 -425 OFFCURVE",
"382 -344 CURVE",
"322 -324 LINE"
);
}
);
width = 0;
}
);
note = HehCommaNS;
},
{
glyphname = OneDotSmall;
lastChange = "2016-12-06 15:22:26 +0000";
layers = (
{
layerId = "B831CC2C-6991-4D3A-BB51-B9DC9D9CB4BD";
paths = (
{
closed = 1;
nodes = (
"191 77 LINE",
"227 43 LINE",
"256 16 LINE",
"270 16 LINE",
"317 50 OFFCURVE",
"351 80 OFFCURVE",
"373 106 CURVE SMOOTH",
"394 131 OFFCURVE",
"405 153 OFFCURVE",
"405 171 CURVE SMOOTH",
"405 216 OFFCURVE",
"364 257 OFFCURVE",
"277 310 CURVE",
"263 310 LINE",
"242 295 OFFCURVE",
"147 196 OFFCURVE",
"119 153 CURVE",
"119 139 LINE"
);
}
);
width = 0;
}
);
note = OneDotSmall;
},
{
glyphname = uni25CC;
lastChange = "2016-12-06 15:22:26 +0000";
layers = (
{
layerId = "B831CC2C-6991-4D3A-BB51-B9DC9D9CB4BD";
paths = (
{
closed = 1;
nodes = (
"360 576 OFFCURVE",
"380 556 OFFCURVE",
"419 556 CURVE SMOOTH",
"464 556 OFFCURVE",
"486 576 OFFCURVE",
"486 616 CURVE SMOOTH",
"486 658 OFFCURVE",
"464 679 OFFCURVE",
"419 679 CURVE SMOOTH",
"380 679 OFFCURVE",
"360 658 OFFCURVE",
"360 616 CURVE SMOOTH"
);
},
{
closed = 1;
nodes = (
"1132 576 OFFCURVE",
"1152 556 OFFCURVE",
"1192 556 CURVE SMOOTH",
"1234 556 OFFCURVE",
"1255 576 OFFCURVE",
"1255 616 CURVE SMOOTH",
"1255 658 OFFCURVE",
"1234 679 OFFCURVE",
"1192 679 CURVE SMOOTH",
"1152 679 OFFCURVE",
"1132 658 OFFCURVE",
"1132 616 CURVE SMOOTH"
);
},
{
closed = 1;
nodes = (
"745 960 OFFCURVE",
"766 938 OFFCURVE",
"808 938 CURVE SMOOTH",
"849 938 OFFCURVE",
"869 960 OFFCURVE",
"869 1003 CURVE SMOOTH",
"869 1044 OFFCURVE",
"849 1064 OFFCURVE",
"808 1064 CURVE SMOOTH",
"766 1064 OFFCURVE",
"745 1044 OFFCURVE",
"745 1003 CURVE SMOOTH"
);
},
{
closed = 1;
nodes = (
"745 191 OFFCURVE",
"766 171 OFFCURVE",
"808 171 CURVE SMOOTH",
"849 171 OFFCURVE",
"869 191 OFFCURVE",
"869 232 CURVE SMOOTH",
"869 273 OFFCURVE",
"849 293 OFFCURVE",
"808 293 CURVE SMOOTH",
"766 293 OFFCURVE",
"745 273 OFFCURVE",
"745 232 CURVE SMOOTH"
);
},
{
closed = 1;
nodes = (
"1084 769 OFFCURVE",
"1104 747 OFFCURVE",
"1145 747 CURVE SMOOTH",
"1184 747 OFFCURVE",
"1204 769 OFFCURVE",
"1204 812 CURVE SMOOTH",
"1204 851 OFFCURVE",
"1184 871 OFFCURVE",
"1145 871 CURVE SMOOTH",
"1104 871 OFFCURVE",
"1084 851 OFFCURVE",
"1084 812 CURVE SMOOTH"
);
},
{
closed = 1;
nodes = (
"1084 383 OFFCURVE",
"1104 364 OFFCURVE",
"1145 364 CURVE SMOOTH",
"1184 364 OFFCURVE",
"1204 383 OFFCURVE",
"1204 421 CURVE SMOOTH",
"1204 463 OFFCURVE",
"1184 484 OFFCURVE",
"1145 484 CURVE SMOOTH",
"1104 484 OFFCURVE",
"1084 463 OFFCURVE",
"1084 421 CURVE SMOOTH"
);
},
{
closed = 1;
nodes = (
"410 769 OFFCURVE",
"430 747 OFFCURVE",
"470 747 CURVE SMOOTH",
"513 747 OFFCURVE",
"535 769 OFFCURVE",
"535 812 CURVE SMOOTH",
"535 851 OFFCURVE",
"513 871 OFFCURVE",
"470 871 CURVE SMOOTH",
"430 871 OFFCURVE",
"410 851 OFFCURVE",
"410 812 CURVE SMOOTH"
);
},
{
closed = 1;
nodes = (
"410 383 OFFCURVE",
"430 364 OFFCURVE",
"470 364 CURVE SMOOTH",
"513 364 OFFCURVE",
"535 383 OFFCURVE",
"535 421 CURVE SMOOTH",
"535 463 OFFCURVE",
"513 484 OFFCURVE",
"470 484 CURVE SMOOTH",
"430 484 OFFCURVE",
"410 463 OFFCURVE",
"410 421 CURVE SMOOTH"
);
},
{
closed = 1;
nodes = (
"554 913 OFFCURVE",
"573 893 OFFCURVE",
"612 893 CURVE SMOOTH",
"654 893 OFFCURVE",
"675 913 OFFCURVE",
"675 954 CURVE SMOOTH",
"675 995 OFFCURVE",
"654 1015 OFFCURVE",
"612 1015 CURVE SMOOTH",
"573 1015 OFFCURVE",
"554 995 OFFCURVE",
"554 954 CURVE SMOOTH"
);
},
{
closed = 1;
nodes = (
"936 913 OFFCURVE",
"965 893 OFFCURVE",
"1001 893 CURVE SMOOTH",
"1040 893 OFFCURVE",
"1060 913 OFFCURVE",
"1060 954 CURVE SMOOTH",
"1060 995 OFFCURVE",
"1040 1015 OFFCURVE",
"1001 1015 CURVE SMOOTH",
"965 1015 OFFCURVE",
"936 995 OFFCURVE",
"936 954 CURVE SMOOTH"
);
},
{
closed = 1;
nodes = (
"554 240 OFFCURVE",
"573 220 OFFCURVE",
"612 220 CURVE SMOOTH",
"654 220 OFFCURVE",
"675 240 OFFCURVE",
"675 279 CURVE SMOOTH",
"675 321 OFFCURVE",
"654 342 OFFCURVE",
"612 342 CURVE SMOOTH",
"573 342 OFFCURVE",
"554 321 OFFCURVE",
"554 279 CURVE SMOOTH"
);
},
{
closed = 1;
nodes = (
"936 240 OFFCURVE",
"958 220 OFFCURVE",
"1001 220 CURVE SMOOTH",
"1040 220 OFFCURVE",
"1060 240 OFFCURVE",
"1060 279 CURVE SMOOTH",
"1060 321 OFFCURVE",
"1040 342 OFFCURVE",
"1001 342 CURVE SMOOTH",
"965 342 OFFCURVE",
"936 320 OFFCURVE",
"936 279 CURVE SMOOTH"
);
}
);
width = 1615;
}
);
note = uni25CC;
unicode = 25CC;
},
{
glyphname = Misra;
lastChange = "2016-12-06 15:22:26 +0000";
layers = (
{
layerId = "B831CC2C-6991-4D3A-BB51-B9DC9D9CB4BD";
paths = (
{
closed = 1;
nodes = (
"439 -660 OFFCURVE",
"578 -698 OFFCURVE",
"729 -698 CURVE SMOOTH",
"1262 -698 OFFCURVE",
"1649 -321 OFFCURVE",
"1649 236 CURVE SMOOTH",
"1649 500 OFFCURVE",
"1482 662 OFFCURVE",
"1269 662 CURVE SMOOTH",
"964 662 OFFCURVE",
"685 415 OFFCURVE",
"400 -194 CURVE",
"313 -110 OFFCURVE",
"265 2 OFFCURVE",
"265 139 CURVE SMOOTH",
"265 448 OFFCURVE",
"407 653 OFFCURVE",
"992 986 CURVE SMOOTH",
"1035 1012 LINE",
"1074 1031 OFFCURVE",
"1144 1144 OFFCURVE",
"1157 1184 CURVE",
"1130 1206 LINE",
"1054 1153 OFFCURVE",
"953 1085 OFFCURVE",
"877 1046 CURVE SMOOTH",
"835 1024 LINE",
"807 1012 OFFCURVE",
"778 1010 OFFCURVE",
"745 1010 CURVE SMOOTH",
"616 1010 OFFCURVE",
"511 1074 OFFCURVE",
"511 1161 CURVE SMOOTH",
"511 1254 OFFCURVE",
"617 1337 OFFCURVE",
"742 1337 CURVE SMOOTH",
"790 1337 OFFCURVE",
"837 1324 OFFCURVE",
"873 1291 CURVE",
"891 1289 LINE",
"934 1313 OFFCURVE",
"949 1366 OFFCURVE",
"949 1402 CURVE SMOOTH",
"949 1474 OFFCURVE",
"888 1521 OFFCURVE",
"808 1521 CURVE SMOOTH",
"612 1521 OFFCURVE",
"295 1157 OFFCURVE",
"295 976 CURVE SMOOTH",
"295 869 OFFCURVE",
"365 784 OFFCURVE",
"473 751 CURVE",
"205 524 OFFCURVE",
"58 244 OFFCURVE",
"58 -63 CURVE SMOOTH",
"58 -267 OFFCURVE",
"133 -425 OFFCURVE",
"256 -533 CURVE",
"208 -668 OFFCURVE",
"179 -758 OFFCURVE",
"164 -814 CURVE",
"214 -826 LINE",
"250 -745 OFFCURVE",
"288 -660 OFFCURVE",
"324 -585 CURVE"
);
},
{
closed = 1;
nodes = (
"1562 -128 OFFCURVE",
"1251 -353 OFFCURVE",
"846 -353 CURVE SMOOTH",
"699 -353 OFFCURVE",
"576 -321 OFFCURVE",
"477 -256 CURVE",
"638 104 OFFCURVE",
"932 387 OFFCURVE",
"1219 387 CURVE SMOOTH",
"1420 387 OFFCURVE",
"1562 292 OFFCURVE",
"1562 131 CURVE SMOOTH"
);
}
);
width = 1786;
}
);
note = Misra;
unicode = 060F;
},
{
glyphname = Sanah;
lastChange = "2016-12-06 15:22:26 +0000";
layers = (
{
layerId = "B831CC2C-6991-4D3A-BB51-B9DC9D9CB4BD";
paths = (
{
closed = 1;
nodes = (
"1260 211 OFFCURVE",
"1181 222 OFFCURVE",
"1112 245 CURVE",
"1103 250 OFFCURVE",
"1090 252 OFFCURVE",
"1075 252 CURVE SMOOTH",
"1047 252 OFFCURVE",
"1021 236 OFFCURVE",
"997 205 CURVE",
"925 122 LINE SMOOTH",
"877 67 OFFCURVE",
"835 36 OFFCURVE",
"756 36 CURVE SMOOTH",
"726 36 OFFCURVE",
"698 39 OFFCURVE",
"673 45 CURVE SMOOTH",
"648 51 OFFCURVE",
"621 54 OFFCURVE",
"594 54 CURVE SMOOTH",
"441 54 OFFCURVE",
"315 -77 OFFCURVE",
"216 -338 CURVE",
"252 -356 LINE",
"327 -251 OFFCURVE",
"379 -220 OFFCURVE",
"448 -220 CURVE SMOOTH",
"465 -220 OFFCURVE",
"492 -225 OFFCURVE",
"531 -234 CURVE SMOOTH",
"570 -243 OFFCURVE",
"602 -248 OFFCURVE",
"628 -248 CURVE SMOOTH",
"712 -248 OFFCURVE",
"770 -217 OFFCURVE",
"886 -68 CURVE SMOOTH",
"921 -24 OFFCURVE",
"944 3 OFFCURVE",
"956 13 CURVE",
"968 22 OFFCURVE",
"980 27 OFFCURVE",
"992 27 CURVE SMOOTH",
"1006 27 OFFCURVE",
"1028 20 OFFCURVE",
"1057 7 CURVE SMOOTH",
"1134 -26 OFFCURVE",
"1219 -43 OFFCURVE",
"1314 -43 CURVE SMOOTH",
"1593 -43 OFFCURVE",
"1910 98 OFFCURVE",
"2264 380 CURVE SMOOTH",
"2327 430 OFFCURVE",
"2380 461 OFFCURVE",
"2425 472 CURVE",
"2454 516 OFFCURVE",
"2483 582 OFFCURVE",
"2513 670 CURVE",
"2507 689 LINE",
"2495 686 OFFCURVE",
"2478 677 OFFCURVE",
"2457 664 CURVE SMOOTH",
"2436 651 OFFCURVE",
"2378 607 OFFCURVE",
"2284 533 CURVE SMOOTH",
"2035 336 OFFCURVE",
"1667 211 OFFCURVE",
"1350 211 CURVE SMOOTH"
);
}
);
width = 2729;
}
);
note = Sanah;
unicode = 0601;
},
{
glyphname = VerseSign;
lastChange = "2016-12-06 15:22:26 +0000";
layers = (
{
layerId = "B831CC2C-6991-4D3A-BB51-B9DC9D9CB4BD";
paths = (
{
closed = 1;
nodes = (
"1079 300 OFFCURVE",
"1098 381 OFFCURVE",
"1098 454 CURVE SMOOTH",
"1098 634 OFFCURVE",
"981 763 OFFCURVE",
"781 763 CURVE SMOOTH",
"562 763 OFFCURVE",
"234 488 OFFCURVE",
"234 243 CURVE SMOOTH",
"234 156 OFFCURVE",
"286 93 OFFCURVE",
"389 56 CURVE SMOOTH",
"492 19 OFFCURVE",
"643 0 OFFCURVE",
"841 0 CURVE SMOOTH",
"1714 0 OFFCURVE",
"2414 123 OFFCURVE",
"2963 378 CURVE",
"3003 457 OFFCURVE",
"3021 521 OFFCURVE",
"3026 569 CURVE",
"3006 574 LINE",
"2509 367 OFFCURVE",
"1842 244 OFFCURVE",
"1042 212 CURVE"
);
},
{
closed = 1;
nodes = (
"824 212 OFFCURVE",
"719 217 OFFCURVE",
"641 226 CURVE SMOOTH",
"485 244 OFFCURVE",
"373 273 OFFCURVE",
"373 378 CURVE SMOOTH",
"373 491 OFFCURVE",
"502 572 OFFCURVE",
"637 572 CURVE SMOOTH",
"862 572 OFFCURVE",
"994 448 OFFCURVE",
"994 225 CURVE SMOOTH",
"994 212 LINE",
"956 212 LINE SMOOTH"
);
}
);
width = 3242;
}
);
note = VerseSign;
unicode = 060E;
},
{
glyphname = Footnote;
lastChange = "2016-12-06 15:22:26 +0000";
layers = (
{
layerId = "B831CC2C-6991-4D3A-BB51-B9DC9D9CB4BD";
paths = (
{
closed = 1;
nodes = (
"865 277 OFFCURVE",
"877 343 OFFCURVE",
"877 409 CURVE SMOOTH",
"877 566 OFFCURVE",
"800 661 OFFCURVE",
"661 661 CURVE SMOOTH",
"603 661 OFFCURVE",
"542 636 OFFCURVE",
"479 586 CURVE SMOOTH",
"351 486 OFFCURVE",
"270 320 OFFCURVE",
"270 207 CURVE SMOOTH",
"270 69 OFFCURVE",
"386 0 OFFCURVE",
"617 0 CURVE SMOOTH",
"1444 0 OFFCURVE",
"2245 138 OFFCURVE",
"2761 378 CURVE",
"2797 449 OFFCURVE",
"2818 512 OFFCURVE",
"2824 569 CURVE",
"2804 574 LINE",
"2295 364 OFFCURVE",
"1641 243 OFFCURVE",
"841 212 CURVE"
);
},
{
closed = 1;
nodes = (
"632 212 OFFCURVE",
"539 221 OFFCURVE",
"473 238 CURVE SMOOTH",
"407 255 OFFCURVE",
"374 286 OFFCURVE",
"374 333 CURVE SMOOTH",
"374 417 OFFCURVE",
"463 490 OFFCURVE",
"563 490 CURVE SMOOTH",
"716 490 OFFCURVE",
"792 402 OFFCURVE",
"792 225 CURVE SMOOTH",
"792 212 LINE",
"752 212 LINE SMOOTH"
);
}
);
width = 3058;
}
);
note = Footnote;
unicode = 0602;
},
{
glyphname = Safhah;
lastChange = "2016-12-06 15:22:26 +0000";
layers = (
{
layerId = "B831CC2C-6991-4D3A-BB51-B9DC9D9CB4BD";
paths = (
{
closed = 1;
nodes = (
"2241 423 OFFCURVE",
"1968 288 OFFCURVE",
"1719 288 CURVE",
"1651 293 LINE",
"1826 524 OFFCURVE",
"1952 619 OFFCURVE",
"2101 619 CURVE SMOOTH",
"2180 619 OFFCURVE",
"2241 582 OFFCURVE",
"2241 531 CURVE SMOOTH"
);
},
{
closed = 1;
nodes = (
"797 -85 OFFCURVE",
"1117 -7 OFFCURVE",
"1343 148 CURVE",
"1351 154 OFFCURVE",
"1360 157 OFFCURVE",
"1370 157 CURVE SMOOTH",
"1377 157 OFFCURVE",
"1384 152 OFFCURVE",
"1391 148 CURVE SMOOTH",
"1538 65 OFFCURVE",
"1596 58 OFFCURVE",
"1683 58 CURVE SMOOTH",
"1856 58 OFFCURVE",
"2008 121 OFFCURVE",
"2134 229 CURVE SMOOTH",
"2260 337 OFFCURVE",
"2425 585 OFFCURVE",
"2425 749 CURVE SMOOTH",
"2425 825 OFFCURVE",
"2369 880 OFFCURVE",
"2270 880 CURVE SMOOTH",
"2069 880 OFFCURVE",
"1867 724 OFFCURVE",
"1562 319 CURVE",
"1542 326 OFFCURVE",
"1521 335 OFFCURVE",
"1498 347 CURVE SMOOTH",
"1475 359 OFFCURVE",
"1454 365 OFFCURVE",
"1435 365 CURVE SMOOTH",
"1417 365 OFFCURVE",
"1392 351 OFFCURVE",
"1359 323 CURVE SMOOTH",
"1326 295 OFFCURVE",
"1285 263 OFFCURVE",
"1235 227 CURVE SMOOTH",
"1016 71 OFFCURVE",
"609 -31 OFFCURVE",
"225 -31 CURVE",
"214 -77 LINE",
"275 -82 OFFCURVE",
"332 -85 OFFCURVE",
"383 -85 CURVE SMOOTH"
);
}
);
width = 2725;
}
);
note = Safhah;
unicode = 0603;
},
{
glyphname = NumberSign;
lastChange = "2016-12-06 15:22:26 +0000";
layers = (
{
layerId = "B831CC2C-6991-4D3A-BB51-B9DC9D9CB4BD";
paths = (
{
closed = 1;
nodes = (
"2762 1051 OFFCURVE",
"2600 783 OFFCURVE",
"2549 596 CURVE",
"2464 517 LINE",
"2292 341 OFFCURVE",
"1692 238 OFFCURVE",
"1015 238 CURVE SMOOTH",
"751 238 OFFCURVE",
"350 272 OFFCURVE",
"238 301 CURVE",
"225 286 LINE",
"216 244 OFFCURVE",
"212 204 OFFCURVE",
"212 166 CURVE SMOOTH",
"212 120 OFFCURVE",
"236 86 OFFCURVE",
"284 65 CURVE SMOOTH",
"380 21 OFFCURVE",
"662 0 OFFCURVE",
"909 0 CURVE SMOOTH",
"1434 0 OFFCURVE",
"1979 124 OFFCURVE",
"2336 320 CURVE SMOOTH",
"2396 355 OFFCURVE",
"2427 365 OFFCURVE",
"2482 365 CURVE SMOOTH",
"2510 365 OFFCURVE",
"2551 350 OFFCURVE",
"2605 320 CURVE SMOOTH",
"2637 303 OFFCURVE",
"2661 295 OFFCURVE",
"2678 295 CURVE SMOOTH",
"2758 295 OFFCURVE",
"2853 450 OFFCURVE",
"2853 531 CURVE SMOOTH",
"2853 564 OFFCURVE",
"2831 591 OFFCURVE",
"2788 614 CURVE SMOOTH",
"2732 644 LINE SMOOTH",
"2701 661 OFFCURVE",
"2686 682 OFFCURVE",
"2686 706 CURVE SMOOTH",
"2686 761 OFFCURVE",
"2726 824 OFFCURVE",
"2806 896 CURVE",
"2830 920 OFFCURVE",
"2908 1130 OFFCURVE",
"2912 1161 CURVE",
"2894 1168 LINE"
);
}
);
width = 3128;
}
);
note = NumberSign;
unicode = 0600;
},
{
glyphname = ZeroArabic;
lastChange = "2016-12-06 15:22:26 +0000";
layers = (
{
layerId = "B831CC2C-6991-4D3A-BB51-B9DC9D9CB4BD";
paths = (
{
closed = 1;
nodes = (
"296 501 OFFCURVE",
"357 446 OFFCURVE",
"396 401 CURVE",
"416 401 LINE",
"538 491 OFFCURVE",
"599 561 OFFCURVE",
"599 610 CURVE SMOOTH",
"599 673 OFFCURVE",
"542 725 OFFCURVE",
"427 797 CURVE",
"407 797 LINE",
"386 785 OFFCURVE",
"265 662 OFFCURVE",
"214 587 CURVE",
"214 567 LINE"
);
}
);
width = 837;
}
);
note = ZeroArabic;
unicode = 0660;
},
{
glyphname = OneArabic;
lastChange = "2016-12-06 15:22:26 +0000";
layers = (
{
layerId = "B831CC2C-6991-4D3A-BB51-B9DC9D9CB4BD";
paths = (
{
closed = 1;
nodes = (
"651 167 OFFCURVE",
"671 271 OFFCURVE",
"671 664 CURVE SMOOTH",
"671 892 OFFCURVE",
"630 1285 OFFCURVE",
"601 1372 CURVE",
"578 1373 LINE",
"551 1310 LINE SMOOTH",
"508 1213 OFFCURVE",
"480 1143 OFFCURVE",
"468 1098 CURVE",
"491 927 LINE",
"518 772 OFFCURVE",
"535 564 OFFCURVE",
"544 301 CURVE SMOOTH",
"544 250 LINE SMOOTH",
"544 133 OFFCURVE",
"540 51 OFFCURVE",
"533 4 CURVE",
"574 -5 LINE"
);
}
);
width = 1161;
}
);
note = OneArabic;
unicode = 0661;
},
{
glyphname = TwoArabic;
lastChange = "2016-12-06 15:22:26 +0000";
layers = (
{
layerId = "B831CC2C-6991-4D3A-BB51-B9DC9D9CB4BD";
paths = (
{
closed = 1;
nodes = (
"438 182 OFFCURVE",
"454 261 OFFCURVE",
"454 664 CURVE SMOOTH",
"454 711 OFFCURVE",
"450 779 OFFCURVE",
"441 869 CURVE",
"474 858 OFFCURVE",
"515 853 OFFCURVE",
"562 853 CURVE SMOOTH",
"830 853 OFFCURVE",
"953 976 OFFCURVE",
"1012 1364 CURVE",
"967 1372 LINE",
"908 1192 OFFCURVE",
"815 1109 OFFCURVE",
"623 1109 CURVE SMOOTH",
"512 1109 OFFCURVE",
"421 1159 OFFCURVE",
"392 1238 CURVE",
"385 1285 OFFCURVE",
"376 1325 OFFCURVE",
"364 1372 CURVE",
"340 1373 LINE",
"312 1309 OFFCURVE",
"257 1167 OFFCURVE",
"238 1098 CURVE",
"266 941 LINE",
"276 897 OFFCURVE",
"287 832 OFFCURVE",
"298 745 CURVE SMOOTH",
"309 658 OFFCURVE",
"319 510 OFFCURVE",
"328 301 CURVE",
"328 250 LINE SMOOTH",
"328 141 OFFCURVE",
"324 59 OFFCURVE",
"315 4 CURVE",
"358 -5 LINE"
);
}
);
width = 1161;
}
);
note = TwoArabic;
unicode = 0662;
},
{
glyphname = ThreeArabic;
lastChange = "2016-12-06 15:22:26 +0000";
layers = (
{
layerId = "B831CC2C-6991-4D3A-BB51-B9DC9D9CB4BD";
paths = (
{
closed = 1;
nodes = (
"328 179 OFFCURVE",
"344 265 OFFCURVE",
"344 664 CURVE",
"341 729 OFFCURVE",
"340 792 OFFCURVE",
"333 857 CURVE",
"350 854 OFFCURVE",
"366 853 OFFCURVE",
"382 853 CURVE SMOOTH",
"466 853 OFFCURVE",
"534 876 OFFCURVE",
"585 923 CURVE",
"630 888 OFFCURVE",
"682 871 OFFCURVE",
"743 871 CURVE SMOOTH",
"943 871 OFFCURVE",
"1085 1029 OFFCURVE",
"1118 1368 CURVE",
"1073 1373 LINE",
"1028 1198 OFFCURVE",
"966 1109 OFFCURVE",
"837 1109 CURVE SMOOTH",
"772 1109 OFFCURVE",
"728 1129 OFFCURVE",
"704 1168 CURVE",
"716 1217 OFFCURVE",
"726 1283 OFFCURVE",
"734 1366 CURVE",
"689 1372 LINE",
"640 1180 OFFCURVE",
"583 1109 OFFCURVE",
"439 1109 CURVE SMOOTH",
"362 1109 OFFCURVE",
"312 1139 OFFCURVE",
"288 1199 CURVE",
"276 1278 OFFCURVE",
"264 1336 OFFCURVE",
"252 1372 CURVE",
"230 1373 LINE",
"202 1309 OFFCURVE",
"147 1167 OFFCURVE",
"128 1098 CURVE",
"157 941 LINE",
"184 834 OFFCURVE",
"205 621 OFFCURVE",
"218 301 CURVE",
"218 250 LINE SMOOTH",
"218 141 OFFCURVE",
"214 59 OFFCURVE",
"205 4 CURVE",
"248 -5 LINE"
);
}
);
width = 1161;
}
);
note = ThreeArabic;
unicode = 0663;
},
{
glyphname = FourArabic;
lastChange = "2016-12-06 15:22:26 +0000";
layers = (
{
layerId = "B831CC2C-6991-4D3A-BB51-B9DC9D9CB4BD";
paths = (
{
closed = 1;
nodes = (
"779 202 OFFCURVE",
"535 227 OFFCURVE",
"469 263 CURVE SMOOTH",
"436 281 OFFCURVE",
"419 310 OFFCURVE",
"419 351 CURVE SMOOTH",
"419 410 OFFCURVE",
"491 503 OFFCURVE",
"635 632 CURVE SMOOTH",
"692 683 OFFCURVE",
"720 728 OFFCURVE",
"720 767 CURVE SMOOTH",
"720 797 OFFCURVE",
"689 823 OFFCURVE",
"626 846 CURVE SMOOTH",
"499 891 OFFCURVE",
"424 923 OFFCURVE",
"401 940 CURVE SMOOTH",
"377 957 OFFCURVE",
"365 973 OFFCURVE",
"365 990 CURVE SMOOTH",
"365 1047 OFFCURVE",
"458 1113 OFFCURVE",
"643 1190 CURVE",
"707 1262 OFFCURVE",
"768 1362 OFFCURVE",
"785 1406 CURVE",
"769 1415 LINE",
"509 1322 OFFCURVE",
"191 1042 OFFCURVE",
"191 862 CURVE SMOOTH",
"191 812 OFFCURVE",
"210 768 OFFCURVE",
"248 731 CURVE SMOOTH",
"285 694 OFFCURVE",
"366 655 OFFCURVE",
"491 614 CURVE",
"314 470 OFFCURVE",
"214 330 OFFCURVE",
"214 189 CURVE SMOOTH",
"214 63 OFFCURVE",
"328 0 OFFCURVE",
"556 0 CURVE SMOOTH",
"689 0 OFFCURVE",
"829 62 OFFCURVE",
"974 187 CURVE",
"967 202 LINE"
);
}
);
width = 1157;
}
);
note = FourArabic;
unicode = 0664;
},
{
glyphname = FiveArabic;
lastChange = "2016-12-06 15:22:26 +0000";
layers = (
{
layerId = "B831CC2C-6991-4D3A-BB51-B9DC9D9CB4BD";
paths = (
{
closed = 1;
nodes = (
"405 1217 OFFCURVE",
"162 673 OFFCURVE",
"162 364 CURVE SMOOTH",
"162 169 OFFCURVE",
"287 50 OFFCURVE",
"500 50 CURVE SMOOTH",
"830 50 OFFCURVE",
"995 256 OFFCURVE",
"995 668 CURVE SMOOTH",
"995 766 OFFCURVE",
"978 857 OFFCURVE",
"944 941 CURVE SMOOTH",
"876 1109 OFFCURVE",
"748 1217 OFFCURVE",
"628 1217 CURVE SMOOTH"
);
},
{
closed = 1;
nodes = (
"884 393 OFFCURVE",
"768 319 OFFCURVE",
"556 319 CURVE SMOOTH",
"391 319 OFFCURVE",
"292 383 OFFCURVE",
"292 515 CURVE SMOOTH",
"292 563 OFFCURVE",
"308 627 OFFCURVE",
"340 706 CURVE SMOOTH",
"403 864 OFFCURVE",
"484 945 OFFCURVE",
"565 945 CURVE SMOOTH",
"610 945 OFFCURVE",
"657 922 OFFCURVE",
"707 877 CURVE SMOOTH",
"806 785 OFFCURVE",
"884 630 OFFCURVE",
"884 522 CURVE SMOOTH"
);
}
);
width = 1161;
}
);
note = FiveArabic;
unicode = 0665;
},
{
glyphname = SixArabic;
lastChange = "2016-12-06 15:22:26 +0000";
layers = (
{
layerId = "B831CC2C-6991-4D3A-BB51-B9DC9D9CB4BD";
paths = (
{
closed = 1;
nodes = (
"749 1274 OFFCURVE",
"630 1235 OFFCURVE",
"506 1235 CURVE SMOOTH",
"343 1235 OFFCURVE",
"223 1276 OFFCURVE",
"148 1357 CURVE",
"130 1354 LINE",
"106 1289 OFFCURVE",
"94 1225 OFFCURVE",
"94 1163 CURVE SMOOTH",
"94 1098 OFFCURVE",
"129 1066 OFFCURVE",
"198 1035 CURVE SMOOTH",
"267 1004 OFFCURVE",
"371 988 OFFCURVE",
"464 988 CURVE SMOOTH",
"548 988 OFFCURVE",
"666 1011 OFFCURVE",
"745 1064 CURVE",
"730 945 OFFCURVE",
"722 783 OFFCURVE",
"722 578 CURVE SMOOTH",
"722 405 OFFCURVE",
"752 115 OFFCURVE",
"788 0 CURVE",
"812 -2 LINE",
"853 98 OFFCURVE",
"886 187 OFFCURVE",
"911 265 CURVE",
"906 320 OFFCURVE",
"898 376 OFFCURVE",
"887 436 CURVE SMOOTH",
"854 652 OFFCURVE",
"846 791 OFFCURVE",
"846 1102 CURVE SMOOTH",
"846 1227 OFFCURVE",
"848 1305 OFFCURVE",
"853 1336 CURVE",
"812 1345 LINE"
);
}
);
width = 1161;
}
);
note = SixArabic;
unicode = 0666;
},
{
glyphname = SevenArabic;
lastChange = "2016-12-06 15:22:26 +0000";
layers = (
{
layerId = "B831CC2C-6991-4D3A-BB51-B9DC9D9CB4BD";
paths = (
{
closed = 1;
nodes = (
"156 897 OFFCURVE",
"279 590 OFFCURVE",
"428 191 CURVE SMOOTH",
"452 126 OFFCURVE",
"475 63 OFFCURVE",
"504 0 CURVE",
"545 0 LINE",
"562 21 OFFCURVE",
"617 144 OFFCURVE",
"709 369 CURVE SMOOTH",
"814 626 OFFCURVE",
"934 899 OFFCURVE",
"1071 1188 CURVE",
"1071 1195 OFFCURVE",
"1064 1218 OFFCURVE",
"1051 1257 CURVE SMOOTH",
"1038 1295 OFFCURVE",
"1022 1334 OFFCURVE",
"1004 1373 CURVE",
"986 1373 LINE",
"783 868 OFFCURVE",
"653 531 OFFCURVE",
"594 362 CURVE",
"581 362 LINE",
"536 545 OFFCURVE",
"316 1145 OFFCURVE",
"203 1373 CURVE",
"185 1373 LINE",
"140 1304 OFFCURVE",
"74 1172 OFFCURVE",
"58 1112 CURVE"
);
}
);
width = 1161;
}
);
note = SevenArabic;
unicode = 0667;
},
{
glyphname = EightArabic;
lastChange = "2016-12-06 15:22:26 +0000";
layers = (
{
layerId = "B831CC2C-6991-4D3A-BB51-B9DC9D9CB4BD";
paths = (
{
closed = 1;
nodes = (
"988 438 OFFCURVE",
"865 746 OFFCURVE",
"700 1183 CURVE",
"679 1247 OFFCURVE",
"656 1312 OFFCURVE",
"625 1373 CURVE",
"583 1373 LINE",
"565 1352 OFFCURVE",
"510 1229 OFFCURVE",
"419 1004 CURVE SMOOTH",
"335 799 OFFCURVE",
"242 585 OFFCURVE",
"139 360 CURVE SMOOTH",
"58 185 LINE",
"58 169 OFFCURVE",
"103 41 OFFCURVE",
"124 0 CURVE",
"142 0 LINE",
"202 141 OFFCURVE",
"455 788 OFFCURVE",
"535 1012 CURVE",
"547 1012 LINE",
"592 832 OFFCURVE",
"814 223 OFFCURVE",
"925 0 CURVE",
"943 0 LINE",
"994 81 OFFCURVE",
"1054 204 OFFCURVE",
"1071 261 CURVE"
);
}
);
width = 1161;
}
);
note = EightArabic;
unicode = 0668;
},
{
glyphname = NineArabic;
lastChange = "2016-12-06 15:22:26 +0000";
layers = (
{
layerId = "B831CC2C-6991-4D3A-BB51-B9DC9D9CB4BD";
paths = (
{
closed = 1;
nodes = (
"706 312 OFFCURVE",
"726 81 OFFCURVE",
"752 0 CURVE",
"776 -2 LINE",
"818 98 OFFCURVE",
"851 187 OFFCURVE",
"875 265 CURVE",
"871 294 OFFCURVE",
"867 322 OFFCURVE",
"864 350 CURVE SMOOTH",
"861 378 OFFCURVE",
"856 407 OFFCURVE",
"851 436 CURVE SMOOTH",
"833 550 OFFCURVE",
"822 661 OFFCURVE",
"819 770 CURVE SMOOTH",
"810 951 OFFCURVE",
"797 1080 OFFCURVE",
"779 1155 CURVE SMOOTH",
"743 1305 OFFCURVE",
"677 1373 OFFCURVE",
"553 1373 CURVE SMOOTH",
"487 1373 OFFCURVE",
"427 1348 OFFCURVE",
"373 1298 CURVE SMOOTH",
"265 1197 OFFCURVE",
"196 1005 OFFCURVE",
"196 844 CURVE SMOOTH",
"196 672 OFFCURVE",
"304 587 OFFCURVE",
"464 587 CURVE SMOOTH",
"563 587 OFFCURVE",
"639 623 OFFCURVE",
"693 695 CURVE"
);
},
{
closed = 1;
nodes = (
"646 835 OFFCURVE",
"589 824 OFFCURVE",
"517 824 CURVE SMOOTH",
"392 824 OFFCURVE",
"315 872 OFFCURVE",
"315 965 CURVE SMOOTH",
"315 1049 OFFCURVE",
"404 1147 OFFCURVE",
"497 1147 CURVE SMOOTH",
"617 1147 OFFCURVE",
"688 1052 OFFCURVE",
"688 857 CURVE"
);
}
);
width = 1161;
}
);
note = NineArabic;
unicode = 0669;
},
{
glyphname = FourFarsi;
lastChange = "2016-12-06 15:22:26 +0000";
layers = (
{
layerId = "B831CC2C-6991-4D3A-BB51-B9DC9D9CB4BD";
paths = (
{
closed = 1;
nodes = (
"392 179 OFFCURVE",
"410 297 OFFCURVE",
"410 664 CURVE SMOOTH",
"410 727 OFFCURVE",
"407 792 OFFCURVE",
"400 855 CURVE",
"438 824 OFFCURVE",
"498 808 OFFCURVE",
"581 808 CURVE SMOOTH",
"826 808 OFFCURVE",
"1034 998 OFFCURVE",
"1067 1269 CURVE",
"1022 1274 LINE",
"985 1157 OFFCURVE",
"883 1055 OFFCURVE",
"752 1055 CURVE SMOOTH",
"656 1055 OFFCURVE",
"574 1131 OFFCURVE",
"574 1222 CURVE SMOOTH",
"574 1306 OFFCURVE",
"652 1346 OFFCURVE",
"752 1346 CURVE SMOOTH",
"799 1346 OFFCURVE",
"840 1331 OFFCURVE",
"875 1300 CURVE",
"887 1298 LINE",
"916 1313 OFFCURVE",
"943 1364 OFFCURVE",
"943 1409 CURVE SMOOTH",
"943 1472 OFFCURVE",
"880 1507 OFFCURVE",
"815 1507 CURVE SMOOTH",
"747 1507 OFFCURVE",
"681 1483 OFFCURVE",
"618 1436 CURVE SMOOTH",
"490 1340 OFFCURVE",
"427 1201 OFFCURVE",
"427 1076 CURVE SMOOTH",
"427 1075 LINE",
"396 1095 OFFCURVE",
"375 1118 OFFCURVE",
"364 1143 CURVE",
"345 1262 OFFCURVE",
"330 1338 OFFCURVE",
"319 1372 CURVE",
"297 1373 LINE",
"268 1309 OFFCURVE",
"214 1167 OFFCURVE",
"194 1098 CURVE",
"223 941 LINE",
"250 828 OFFCURVE",
"270 632 OFFCURVE",
"283 351 CURVE",
"283 250 LINE SMOOTH",
"283 133 OFFCURVE",
"279 51 OFFCURVE",
"272 4 CURVE",
"315 -5 LINE"
);
}
);
width = 1161;
}
);
note = FourFarsi;
},
{
glyphname = FiveFarsi;
lastChange = "2016-12-06 15:22:26 +0000";
layers = (
{
layerId = "B831CC2C-6991-4D3A-BB51-B9DC9D9CB4BD";
paths = (
{
closed = 1;
nodes = (
"598 70 OFFCURVE",
"664 65 OFFCURVE",
"724 65 CURVE SMOOTH",
"778 65 OFFCURVE",
"828 89 OFFCURVE",
"873 136 CURVE SMOOTH",
"963 231 OFFCURVE",
"1019 442 OFFCURVE",
"1019 626 CURVE SMOOTH",
"1019 841 OFFCURVE",
"913 1054 OFFCURVE",
"625 1357 CURVE",
"607 1361 LINE",
"551 1310 OFFCURVE",
"475 1200 OFFCURVE",
"475 1168 CURVE",
"477 1150 LINE",
"216 795 OFFCURVE",
"126 549 OFFCURVE",
"126 313 CURVE SMOOTH",
"126 141 OFFCURVE",
"201 34 OFFCURVE",
"353 34 CURVE SMOOTH",
"440 34 OFFCURVE",
"507 66 OFFCURVE",
"553 131 CURVE"
);
},
{
closed = 1;
nodes = (
"654 932 OFFCURVE",
"722 855 OFFCURVE",
"762 802 CURVE SMOOTH",
"841 695 OFFCURVE",
"900 582 OFFCURVE",
"900 479 CURVE SMOOTH",
"900 375 OFFCURVE",
"851 310 OFFCURVE",
"767 310 CURVE SMOOTH",
"694 310 OFFCURVE",
"643 345 OFFCURVE",
"616 414 CURVE",
"590 416 LINE",
"536 332 OFFCURVE",
"470 290 OFFCURVE",
"392 290 CURVE SMOOTH",
"299 290 OFFCURVE",
"252 349 OFFCURVE",
"252 466 CURVE SMOOTH",
"252 618 OFFCURVE",
"371 838 OFFCURVE",
"558 1031 CURVE"
);
}
);
width = 1161;
}
);
note = FiveFarsi;
unicode = 06F5;
},
{
glyphname = SixFarsi;
lastChange = "2016-12-06 15:22:26 +0000";
layers = (
{
layerId = "B831CC2C-6991-4D3A-BB51-B9DC9D9CB4BD";
paths = (
{
closed = 1;
nodes = (
"234 806 OFFCURVE",
"314 706 OFFCURVE",
"455 673 CURVE",
"322 522 OFFCURVE",
"203 290 OFFCURVE",
"162 9 CURVE",
"202 -2 LINE",
"319 295 OFFCURVE",
"502 532 OFFCURVE",
"749 709 CURVE SMOOTH",
"859 785 LINE",
"900 848 OFFCURVE",
"936 927 OFFCURVE",
"967 1022 CURVE",
"949 1030 LINE",
"836 931 OFFCURVE",
"726 891 OFFCURVE",
"623 891 CURVE SMOOTH",
"512 891 OFFCURVE",
"410 970 OFFCURVE",
"410 1066 CURVE SMOOTH",
"410 1157 OFFCURVE",
"503 1202 OFFCURVE",
"623 1202 CURVE SMOOTH",
"697 1202 OFFCURVE",
"757 1185 OFFCURVE",
"803 1150 CURVE",
"819 1148 LINE",
"852 1165 OFFCURVE",
"884 1217 OFFCURVE",
"884 1280 CURVE SMOOTH",
"884 1344 OFFCURVE",
"797 1386 OFFCURVE",
"698 1386 CURVE SMOOTH",
"481 1386 OFFCURVE",
"234 1163 OFFCURVE",
"234 931 CURVE SMOOTH"
);
}
);
width = 1161;
}
);
note = SixFarsi;
},
{
glyphname = FourUrdu;
lastChange = "2016-12-06 15:22:26 +0000";
layers = (
{
layerId = "B831CC2C-6991-4D3A-BB51-B9DC9D9CB4BD";
paths = (
{
closed = 1;
nodes = (
"421 1379 OFFCURVE",
"367 1358 OFFCURVE",
"320 1315 CURVE SMOOTH",
"224 1230 OFFCURVE",
"166 1070 OFFCURVE",
"166 922 CURVE SMOOTH",
"166 876 OFFCURVE",
"182 750 OFFCURVE",
"214 545 CURVE SMOOTH",
"238 388 OFFCURVE",
"268 227 OFFCURVE",
"268 47 CURVE",
"266 -7 LINE",
"308 -11 LINE",
"350 84 OFFCURVE",
"371 204 OFFCURVE",
"371 349 CURVE SMOOTH",
"371 511 OFFCURVE",
"355 680 OFFCURVE",
"324 857 CURVE SMOOTH",
"285 1080 OFFCURVE",
"262 1159 OFFCURVE",
"403 1159 CURVE SMOOTH",
"444 1159 OFFCURVE",
"482 1141 OFFCURVE",
"518 1104 CURVE SMOOTH",
"590 1031 OFFCURVE",
"651 883 OFFCURVE",
"675 756 CURVE",
"704 756 LINE",
"785 921 OFFCURVE",
"889 1034 OFFCURVE",
"970 1125 CURVE",
"1001 1196 OFFCURVE",
"1035 1293 OFFCURVE",
"1071 1417 CURVE",
"1057 1427 LINE",
"972 1342 OFFCURVE",
"884 1227 OFFCURVE",
"794 1082 CURVE",
"781 1082 LINE",
"722 1280 OFFCURVE",
"623 1379 OFFCURVE",
"482 1379 CURVE SMOOTH"
);
}
);
width = 1161;
}
);
note = FourUrdu;
unicode = 06F4;
},
{
glyphname = SevenUrdu;
lastChange = "2016-12-06 15:22:26 +0000";
layers = (
{
layerId = "B831CC2C-6991-4D3A-BB51-B9DC9D9CB4BD";
paths = (
{
closed = 1;
nodes = (
"962 256 OFFCURVE",
"846 271 OFFCURVE",
"657 296 CURVE SMOOTH",
"468 321 OFFCURVE",
"338 341 OFFCURVE",
"266 356 CURVE",
"266 364 LINE",
"285 406 OFFCURVE",
"316 455 OFFCURVE",
"358 510 CURVE SMOOTH",
"442 620 OFFCURVE",
"651 872 OFFCURVE",
"828 1076 CURVE",
"835 1100 OFFCURVE",
"846 1151 OFFCURVE",
"854 1200 CURVE",
"857 1225 OFFCURVE",
"861 1248 OFFCURVE",
"864 1269 CURVE SMOOTH",
"867 1290 OFFCURVE",
"869 1303 OFFCURVE",
"869 1310 CURVE",
"851 1314 LINE",
"580 993 OFFCURVE",
"401 764 OFFCURVE",
"293 598 CURVE SMOOTH",
"184 432 OFFCURVE",
"123 314 OFFCURVE",
"99 166 CURVE",
"112 142 LINE",
"224 109 OFFCURVE",
"786 27 OFFCURVE",
"902 27 CURVE",
"937 72 OFFCURVE",
"972 137 OFFCURVE",
"1008 223 CURVE",
"1006 250 LINE"
);
}
);
width = 1161;
}
);
note = SevenUrdu;
unicode = 06F7;
},
{
glyphname = ZeroFarsi_alt;
lastChange = "2016-12-06 15:22:26 +0000";
layers = (
{
layerId = "B831CC2C-6991-4D3A-BB51-B9DC9D9CB4BD";
paths = (
{
closed = 1;
nodes = (
"787 823 OFFCURVE",
"666 943 OFFCURVE",
"522 943 CURVE SMOOTH",
"383 943 OFFCURVE",
"268 823 OFFCURVE",
"268 670 CURVE SMOOTH",
"268 511 OFFCURVE",
"380 403 OFFCURVE",
"524 403 CURVE SMOOTH",
"687 403 OFFCURVE",
"787 516 OFFCURVE",
"787 664 CURVE SMOOTH"
);
},
{
closed = 1;
nodes = (
"610 817 OFFCURVE",
"675 761 OFFCURVE",
"675 677 CURVE SMOOTH",
"675 582 OFFCURVE",
"625 535 OFFCURVE",
"524 535 CURVE SMOOTH",
"440 535 OFFCURVE",
"380 596 OFFCURVE",
"380 675 CURVE SMOOTH",
"380 754 OFFCURVE",
"454 817 OFFCURVE",
"526 817 CURVE SMOOTH"
);
}
);
width = 1049;
}
);
note = ZeroFarsi_alt;
},
{
glyphname = PercentArabic;
lastChange = "2016-12-06 15:22:26 +0000";
layers = (
{
layerId = "B831CC2C-6991-4D3A-BB51-B9DC9D9CB4BD";
paths = (
{
closed = 1;
nodes = (
"630 901 OFFCURVE",
"545 735 OFFCURVE",
"218 7 CURVE",
"306 -29 LINE",
"549 509 OFFCURVE",
"770 967 OFFCURVE",
"967 1345 CURVE",
"875 1373 LINE"
);
},
{
closed = 1;
nodes = (
"237 1085 OFFCURVE",
"285 1041 OFFCURVE",
"324 999 CURVE",
"340 999 LINE",
"437 1071 OFFCURVE",
"486 1127 OFFCURVE",
"486 1168 CURVE SMOOTH",
"486 1219 OFFCURVE",
"439 1258 OFFCURVE",
"347 1318 CURVE",
"331 1318 LINE",
"307 1303 OFFCURVE",
"219 1208 OFFCURVE",
"178 1148 CURVE",
"178 1132 LINE"
);
},
{
closed = 1;
nodes = (
"686 117 OFFCURVE",
"773 39 OFFCURVE",
"806 0 CURVE",
"823 0 LINE",
"920 69 OFFCURVE",
"968 126 OFFCURVE",
"968 169 CURVE SMOOTH",
"968 217 OFFCURVE",
"923 260 OFFCURVE",
"832 317 CURVE",
"815 317 LINE",
"794 305 OFFCURVE",
"709 217 OFFCURVE",
"661 149 CURVE",
"661 133 LINE"
);
}
);
width = 1161;
}
);
note = PercentArabic;
unicode = 066A;
},
{
glyphname = PermilleArabic;
lastChange = "2016-12-06 15:22:26 +0000";
layers = (
{
layerId = "B831CC2C-6991-4D3A-BB51-B9DC9D9CB4BD";
paths = (
{
closed = 1;
nodes = (
"237 1088 OFFCURVE",
"285 1044 OFFCURVE",
"324 999 CURVE",
"340 999 LINE",
"437 1071 OFFCURVE",
"486 1127 OFFCURVE",
"486 1168 CURVE SMOOTH",
"486 1219 OFFCURVE",
"439 1258 OFFCURVE",
"347 1318 CURVE",
"331 1318 LINE",
"307 1303 OFFCURVE",
"219 1208 OFFCURVE",
"178 1148 CURVE",
"178 1132 LINE"
);
},
{
closed = 1;
nodes = (
"686 117 OFFCURVE",
"773 39 OFFCURVE",
"806 0 CURVE",
"823 0 LINE",
"920 69 OFFCURVE",
"968 126 OFFCURVE",
"968 169 CURVE SMOOTH",
"968 217 OFFCURVE",
"923 260 OFFCURVE",
"832 317 CURVE",
"815 317 LINE",
"794 305 OFFCURVE",
"706 217 OFFCURVE",
"661 149 CURVE",
"661 133 LINE"
);
},
{
closed = 1;
nodes = (
"1109 117 OFFCURVE",
"1196 39 OFFCURVE",
"1229 0 CURVE",
"1246 0 LINE",
"1343 72 OFFCURVE",
"1391 128 OFFCURVE",
"1391 169 CURVE SMOOTH",
"1391 217 OFFCURVE",
"1346 260 OFFCURVE",
"1255 317 CURVE",
"1238 317 LINE",
"1207 297 OFFCURVE",
"1121 208 OFFCURVE",
"1084 149 CURVE",
"1084 133 LINE"
);
},
{
closed = 1;
nodes = (
"630 901 OFFCURVE",
"545 735 OFFCURVE",
"218 7 CURVE",
"306 -29 LINE",
"549 509 OFFCURVE",
"770 967 OFFCURVE",
"967 1345 CURVE",
"875 1373 LINE"
);
}
);
width = 1570;
}
);
note = PermilleArabic;
unicode = 0609;
},
{
glyphname = Per10milleArabic;
lastChange = "2016-12-06 15:22:26 +0000";
layers = (
{
layerId = "B831CC2C-6991-4D3A-BB51-B9DC9D9CB4BD";
paths = (
{
closed = 1;
nodes = (
"237 1087 OFFCURVE",
"285 1042 OFFCURVE",
"324 999 CURVE",
"340 999 LINE",
"437 1071 OFFCURVE",
"486 1127 OFFCURVE",
"486 1168 CURVE SMOOTH",
"486 1219 OFFCURVE",
"442 1258 OFFCURVE",
"347 1318 CURVE",
"331 1318 LINE",
"307 1301 OFFCURVE",
"219 1208 OFFCURVE",
"178 1148 CURVE",
"178 1132 LINE"
);
},
{
closed = 1;
nodes = (
"686 117 OFFCURVE",
"773 39 OFFCURVE",
"806 0 CURVE",
"823 0 LINE",
"920 69 OFFCURVE",
"968 126 OFFCURVE",
"968 169 CURVE SMOOTH",
"968 217 OFFCURVE",
"923 260 OFFCURVE",
"832 317 CURVE",
"815 317 LINE",
"794 305 OFFCURVE",
"710 217 OFFCURVE",
"661 149 CURVE",
"661 133 LINE"
);
},
{
closed = 1;
nodes = (
"1109 114 OFFCURVE",
"1196 39 OFFCURVE",
"1229 0 CURVE",
"1246 0 LINE",
"1343 72 OFFCURVE",
"1391 128 OFFCURVE",
"1391 169 CURVE SMOOTH",
"1391 217 OFFCURVE",
"1346 260 OFFCURVE",
"1255 317 CURVE",
"1238 317 LINE",
"1207 297 OFFCURVE",
"1121 205 OFFCURVE",
"1084 149 CURVE",
"1084 133 LINE"
);
},
{
closed = 1;
nodes = (
"1566 88 OFFCURVE",
"1614 43 OFFCURVE",
"1652 0 CURVE",
"1669 0 LINE",
"1766 72 OFFCURVE",
"1814 128 OFFCURVE",
"1814 169 CURVE SMOOTH",
"1814 217 OFFCURVE",
"1767 260 OFFCURVE",
"1676 317 CURVE",
"1660 317 LINE",
"1636 305 OFFCURVE",
"1547 208 OFFCURVE",
"1507 149 CURVE",
"1507 133 LINE"
);
},
{
closed = 1;
nodes = (
"630 901 OFFCURVE",
"545 735 OFFCURVE",
"218 7 CURVE",
"306 -29 LINE",
"549 509 OFFCURVE",
"770 967 OFFCURVE",
"967 1345 CURVE",
"875 1373 LINE"
);
}
);
width = 1993;
}
);
note = Per10milleArabic;
unicode = 060A;
},
{
glyphname = PlusArabic;
lastChange = "2016-12-06 15:22:26 +0000";
layers = (
{
layerId = "B831CC2C-6991-4D3A-BB51-B9DC9D9CB4BD";
paths = (
{
closed = 1;
nodes = (
"623 684 LINE",
"623 1103 LINE",
"535 1103 LINE",
"535 684 LINE",
"103 684 LINE",
"103 596 LINE",
"535 596 LINE",
"535 175 LINE",
"623 175 LINE",
"623 596 LINE",
"1060 596 LINE",
"1060 684 LINE"
);
}
);
width = 1161;
}
);
note = PlusArabic;
unicode = 002B;
},
{
glyphname = hyphen;
lastChange = "2016-12-06 15:22:26 +0000";
layers = (
{
layerId = "B831CC2C-6991-4D3A-BB51-B9DC9D9CB4BD";
paths = (
{
closed = 1;
nodes = (
"149 693 LINE",
"135 563 LINE",
"819 563 LINE",
"833 693 LINE"
);
}
);
width = 968;
}
);
note = hyphen;
unicode = 002D;
},
{
glyphname = slash;
lastChange = "2016-12-06 15:22:26 +0000";
layers = (
{
layerId = "B831CC2C-6991-4D3A-BB51-B9DC9D9CB4BD";
paths = (
{
closed = 1;
nodes = (
"837 1313 OFFCURVE",
"688 1014 OFFCURVE",
"543 710 CURVE SMOOTH",
"398 406 OFFCURVE",
"255 100 OFFCURVE",
"126 -191 CURVE",
"214 -227 LINE",
"339 49 OFFCURVE",
"481 351 OFFCURVE",
"626 656 CURVE SMOOTH",
"770 960 OFFCURVE",
"924 1268 OFFCURVE",
"1073 1561 CURVE",
"981 1589 LINE"
);
}
);
width = 1156;
}
);
note = slash;
unicode = 002F;
},
{
glyphname = bracketleft;
lastChange = "2016-12-06 15:22:26 +0000";
layers = (
{
layerId = "B831CC2C-6991-4D3A-BB51-B9DC9D9CB4BD";
paths = (
{
closed = 1;
nodes = (
"749 -387 LINE",
"749 -311 LINE",
"486 -311 LINE",
"486 1658 LINE",
"749 1658 LINE",
"749 1733 LINE",
"292 1733 LINE",
"292 -387 LINE"
);
}
);
width = 814;
}
);
note = bracketleft;
unicode = 005B;
},
{
glyphname = backslash;
lastChange = "2016-12-06 15:22:26 +0000";
layers = (
{
layerId = "B831CC2C-6991-4D3A-BB51-B9DC9D9CB4BD";
paths = (
{
closed = 1;
nodes = (
"868 81 OFFCURVE",
"726 396 OFFCURVE",
"593 706 CURVE SMOOTH",
"460 1016 OFFCURVE",
"330 1323 OFFCURVE",
"214 1604 CURVE",
"126 1571 LINE",
"243 1276 OFFCURVE",
"374 964 OFFCURVE",
"507 655 CURVE SMOOTH",
"640 346 OFFCURVE",
"778 39 OFFCURVE",
"913 -241 CURVE",
"1004 -216 LINE"
);
}
);
width = 1112;
}
);
note = backslash;
unicode = 005C;
},
{
glyphname = bracketright;
lastChange = "2016-12-06 15:22:26 +0000";
layers = (
{
layerId = "B831CC2C-6991-4D3A-BB51-B9DC9D9CB4BD";
paths = (
{
closed = 1;
nodes = (
"65 1733 LINE",
"65 1658 LINE",
"328 1658 LINE",
"328 -311 LINE",
"65 -311 LINE",
"65 -387 LINE",
"522 -387 LINE",
"522 1733 LINE"
);
}
);
width = 814;
}
);
note = bracketright;
unicode = 005D;
},
{
glyphname = braceleft;
lastChange = "2016-12-06 15:22:26 +0000";
layers = (
{
layerId = "B831CC2C-6991-4D3A-BB51-B9DC9D9CB4BD";
paths = (
{
closed = 1;
nodes = (
"423 1593 OFFCURVE",
"511 1663 OFFCURVE",
"628 1663 CURVE SMOOTH",
"655 1663 OFFCURVE",
"676 1661 OFFCURVE",
"700 1656 CURVE",
"713 1726 LINE",
"686 1731 OFFCURVE",
"648 1733 OFFCURVE",
"621 1733 CURVE SMOOTH",
"516 1733 OFFCURVE",
"418 1699 OFFCURVE",
"347 1627 CURVE SMOOTH",
"275 1555 OFFCURVE",
"232 1445 OFFCURVE",
"232 1289 CURVE SMOOTH",
"232 1258 OFFCURVE",
"233 1230 OFFCURVE",
"235 1206 CURVE SMOOTH",
"237 1182 OFFCURVE",
"239 1157 OFFCURVE",
"241 1132 CURVE SMOOTH",
"244 1081 OFFCURVE",
"248 1025 OFFCURVE",
"248 941 CURVE SMOOTH",
"248 853 OFFCURVE",
"236 800 OFFCURVE",
"209 768 CURVE SMOOTH",
"182 735 OFFCURVE",
"146 723 OFFCURVE",
"95 720 CURVE SMOOTH",
"72 718 LINE",
"72 652 LINE",
"95 650 LINE SMOOTH",
"146 645 OFFCURVE",
"182 634 OFFCURVE",
"209 602 CURVE SMOOTH",
"236 570 OFFCURVE",
"248 515 OFFCURVE",
"248 427 CURVE SMOOTH",
"248 385 OFFCURVE",
"247 348 OFFCURVE",
"246 315 CURVE SMOOTH",
"242 250 OFFCURVE",
"239 198 OFFCURVE",
"235 144 CURVE SMOOTH",
"233 117 OFFCURVE",
"232 88 OFFCURVE",
"232 58 CURVE SMOOTH",
"232 -98 OFFCURVE",
"275 -209 OFFCURVE",
"347 -281 CURVE SMOOTH",
"418 -353 OFFCURVE",
"516 -387 OFFCURVE",
"621 -387 CURVE SMOOTH",
"648 -387 OFFCURVE",
"682 -384 OFFCURVE",
"707 -380 CURVE",
"700 -310 LINE",
"680 -315 OFFCURVE",
"656 -317 OFFCURVE",
"628 -317 CURVE SMOOTH",
"571 -317 OFFCURVE",
"518 -298 OFFCURVE",
"482 -256 CURVE SMOOTH",
"445 -214 OFFCURVE",
"423 -146 OFFCURVE",
"423 -49 CURVE SMOOTH",
"423 22 OFFCURVE",
"427 78 OFFCURVE",
"431 142 CURVE SMOOTH",
"435 205 OFFCURVE",
"439 271 OFFCURVE",
"439 360 CURVE SMOOTH",
"439 417 OFFCURVE",
"429 488 OFFCURVE",
"397 551 CURVE SMOOTH",
"365 614 OFFCURVE",
"308 666 OFFCURVE",
"212 682 CURVE",
"212 691 LINE",
"308 708 OFFCURVE",
"365 761 OFFCURVE",
"397 821 CURVE SMOOTH",
"429 881 OFFCURVE",
"439 953 OFFCURVE",
"439 1010 CURVE SMOOTH",
"439 1098 OFFCURVE",
"435 1164 OFFCURVE",
"431 1223 CURVE SMOOTH",
"427 1282 OFFCURVE",
"423 1333 OFFCURVE",
"423 1393 CURVE SMOOTH"
);
}
);
width = 778;
}
);
note = braceleft;
unicode = 007B;
},
{
glyphname = braceright;
lastChange = "2016-12-06 15:22:26 +0000";
layers = (
{
layerId = "B831CC2C-6991-4D3A-BB51-B9DC9D9CB4BD";
paths = (
{
closed = 1;
nodes = (
"355 1363 OFFCURVE",
"354 1335 OFFCURVE",
"352 1308 CURVE SMOOTH",
"350 1281 OFFCURVE",
"348 1252 OFFCURVE",
"347 1223 CURVE SMOOTH",
"345 1194 OFFCURVE",
"343 1162 OFFCURVE",
"341 1128 CURVE SMOOTH",
"339 1093 OFFCURVE",
"338 1054 OFFCURVE",
"338 1010 CURVE SMOOTH",
"338 953 OFFCURVE",
"348 881 OFFCURVE",
"381 821 CURVE SMOOTH",
"413 761 OFFCURVE",
"469 708 OFFCURVE",
"565 691 CURVE",
"565 682 LINE",
"469 666 OFFCURVE",
"413 614 OFFCURVE",
"381 551 CURVE SMOOTH",
"348 488 OFFCURVE",
"338 417 OFFCURVE",
"338 360 CURVE SMOOTH",
"338 315 OFFCURVE",
"339 276 OFFCURVE",
"341 241 CURVE SMOOTH",
"343 206 OFFCURVE",
"345 173 OFFCURVE",
"347 142 CURVE SMOOTH",
"348 110 OFFCURVE",
"350 79 OFFCURVE",
"352 49 CURVE SMOOTH",
"354 19 OFFCURVE",
"355 -14 OFFCURVE",
"355 -49 CURVE SMOOTH",
"355 -146 OFFCURVE",
"333 -214 OFFCURVE",
"296 -256 CURVE SMOOTH",
"259 -298 OFFCURVE",
"208 -317 OFFCURVE",
"149 -317 CURVE SMOOTH",
"123 -317 OFFCURVE",
"100 -315 OFFCURVE",
"79 -310 CURVE",
"70 -380 LINE",
"97 -384 OFFCURVE",
"130 -387 OFFCURVE",
"157 -387 CURVE SMOOTH",
"262 -387 OFFCURVE",
"360 -353 OFFCURVE",
"431 -281 CURVE SMOOTH",
"502 -209 OFFCURVE",
"545 -98 OFFCURVE",
"545 58 CURVE SMOOTH",
"545 118 OFFCURVE",
"541 170 OFFCURVE",
"537 225 CURVE SMOOTH",
"532 280 OFFCURVE",
"527 343 OFFCURVE",
"527 427 CURVE SMOOTH",
"527 515 OFFCURVE",
"540 570 OFFCURVE",
"567 602 CURVE SMOOTH",
"594 634 OFFCURVE",
"631 645 OFFCURVE",
"682 650 CURVE SMOOTH",
"706 652 LINE",
"706 718 LINE",
"682 720 LINE SMOOTH",
"631 723 OFFCURVE",
"594 735 OFFCURVE",
"567 768 CURVE SMOOTH",
"540 800 OFFCURVE",
"527 853 OFFCURVE",
"527 941 CURVE SMOOTH",
"527 1025 OFFCURVE",
"532 1081 OFFCURVE",
"537 1132 CURVE SMOOTH",
"541 1183 OFFCURVE",
"545 1226 OFFCURVE",
"545 1289 CURVE SMOOTH",
"545 1445 OFFCURVE",
"502 1555 OFFCURVE",
"431 1627 CURVE SMOOTH",
"360 1699 OFFCURVE",
"262 1733 OFFCURVE",
"157 1733 CURVE SMOOTH",
"130 1733 OFFCURVE",
"92 1731 OFFCURVE",
"65 1726 CURVE",
"79 1656 LINE",
"99 1661 OFFCURVE",
"124 1663 OFFCURVE",
"149 1663 CURVE SMOOTH",
"268 1663 OFFCURVE",
"355 1593 OFFCURVE",
"355 1393 CURVE SMOOTH"
);
}
);
width = 778;
}
);
note = braceright;
unicode = 007D;
},
{
glyphname = parenleft;
lastChange = "2016-12-06 15:22:26 +0000";
layers = (
{
layerId = "B831CC2C-6991-4D3A-BB51-B9DC9D9CB4BD";
paths = (
{
closed = 1;
nodes = (
"301 865 OFFCURVE",
"319 1064 OFFCURVE",
"385 1251 CURVE SMOOTH",
"451 1438 OFFCURVE",
"564 1614 OFFCURVE",
"756 1737 CURVE",
"720 1793 LINE",
"521 1682 OFFCURVE",
"362 1516 OFFCURVE",
"253 1321 CURVE SMOOTH",
"144 1126 OFFCURVE",
"83 906 OFFCURVE",
"83 682 CURVE SMOOTH",
"83 418 OFFCURVE",
"142 188 OFFCURVE",
"251 -3 CURVE SMOOTH",
"360 -194 OFFCURVE",
"518 -343 OFFCURVE",
"713 -446 CURVE",
"749 -391 LINE",
"557 -268 OFFCURVE",
"444 -81 OFFCURVE",
"381 119 CURVE SMOOTH",
"317 318 OFFCURVE",
"301 529 OFFCURVE",
"301 697 CURVE SMOOTH"
);
}
);
width = 778;
}
);
note = parenleft;
unicode = 0028;
},
{
glyphname = parenright;
lastChange = "2016-12-06 15:22:26 +0000";
layers = (
{
layerId = "B831CC2C-6991-4D3A-BB51-B9DC9D9CB4BD";
paths = (
{
closed = 1;
nodes = (
"477 482 OFFCURVE",
"460 283 OFFCURVE",
"394 96 CURVE SMOOTH",
"328 -92 OFFCURVE",
"214 -268 OFFCURVE",
"22 -391 CURVE",
"58 -446 LINE",
"254 -337 OFFCURVE",
"416 -170 OFFCURVE",
"525 25 CURVE SMOOTH",
"634 220 OFFCURVE",
"695 441 OFFCURVE",
"695 664 CURVE SMOOTH",
"695 925 OFFCURVE",
"635 1158 OFFCURVE",
"527 1349 CURVE SMOOTH",
"418 1540 OFFCURVE",
"260 1689 OFFCURVE",
"65 1793 CURVE",
"29 1737 LINE",
"221 1614 OFFCURVE",
"333 1427 OFFCURVE",
"397 1228 CURVE SMOOTH",
"461 1028 OFFCURVE",
"477 818 OFFCURVE",
"477 650 CURVE SMOOTH"
);
}
);
width = 778;
}
);
note = parenright;
unicode = 0029;
},
{
glyphname = endash;
lastChange = "2016-12-06 15:22:26 +0000";
layers = (
{
layerId = "B831CC2C-6991-4D3A-BB51-B9DC9D9CB4BD";
paths = (
{
closed = 1;
nodes = (
"1058 632 LINE",
"-7 632 LINE",
"-7 542 LINE",
"1058 542 LINE"
);
}
);
width = 1051;
}
);
note = endash;
unicode = 2013;
},
{
glyphname = emdash;
lastChange = "2016-12-06 15:22:26 +0000";
layers = (
{
layerId = "B831CC2C-6991-4D3A-BB51-B9DC9D9CB4BD";
paths = (
{
closed = 1;
nodes = (
"1433 632 LINE",
"-7 632 LINE",
"-7 542 LINE",
"1433 542 LINE"
);
}
);
width = 1426;
}
);
note = emdash;
unicode = 2014;
},
{
glyphname = MinusArabic;
lastChange = "2016-12-06 15:22:26 +0000";
layers = (
{
layerId = "B831CC2C-6991-4D3A-BB51-B9DC9D9CB4BD";
paths = (
{
closed = 1;
nodes = (
"103 684 LINE",
"103 596 LINE",
"1060 596 LINE",
"1060 684 LINE"
);
}
);
width = 1161;
}
);
note = MinusArabic;
unicode = 2212;
},
{
glyphname = MultiplyArabic;
lastChange = "2016-12-06 15:22:26 +0000";
layers = (
{
layerId = "B831CC2C-6991-4D3A-BB51-B9DC9D9CB4BD";
paths = (
{
closed = 1;
nodes = (
"994 992 LINE",
"931 1053 LINE",
"580 700 LINE",
"225 1053 LINE",
"166 992 LINE",
"518 639 LINE",
"167 286 LINE",
"227 225 LINE",
"580 578 LINE",
"932 225 LINE",
"995 286 LINE",
"641 639 LINE"
);
}
);
width = 1161;
}
);
note = MultiplyArabic;
unicode = 00D7;
},
{
glyphname = DivideArabic;
lastChange = "2016-12-06 15:22:26 +0000";
layers = (
{
layerId = "B831CC2C-6991-4D3A-BB51-B9DC9D9CB4BD";
paths = (
{
closed = 1;
nodes = (
"103 684 LINE",
"103 596 LINE",
"1060 596 LINE",
"1060 684 LINE"
);
},
{
closed = 1;
nodes = (
"479 966 OFFCURVE",
"518 931 OFFCURVE",
"569 880 CURVE",
"583 880 LINE",
"661 937 OFFCURVE",
"700 981 OFFCURVE",
"700 1013 CURVE SMOOTH",
"700 1057 OFFCURVE",
"662 1091 OFFCURVE",
"590 1136 CURVE",
"576 1136 LINE",
"559 1127 OFFCURVE",
"483 1042 OFFCURVE",
"452 999 CURVE",
"452 986 LINE"
);
},
{
closed = 1;
nodes = (
"477 232 OFFCURVE",
"516 197 OFFCURVE",
"569 144 CURVE",
"583 144 LINE",
"661 201 OFFCURVE",
"700 246 OFFCURVE",
"700 279 CURVE SMOOTH",
"700 320 OFFCURVE",
"662 352 OFFCURVE",
"590 400 CURVE",
"576 400 LINE",
"557 389 OFFCURVE",
"480 308 OFFCURVE",
"452 265 CURVE",
"452 250 LINE"
);
}
);
width = 1161;
}
);
note = DivideArabic;
unicode = 00F7;
},
{
glyphname = EqualArabic;
lastChange = "2016-12-06 15:22:26 +0000";
layers = (
{
layerId = "B831CC2C-6991-4D3A-BB51-B9DC9D9CB4BD";
paths = (
{
closed = 1;
nodes = (
"103 851 LINE",
"103 763 LINE",
"1060 763 LINE",
"1060 851 LINE"
);
},
{
closed = 1;
nodes = (
"103 504 LINE",
"103 416 LINE",
"1060 416 LINE",
"1060 504 LINE"
);
}
);
width = 1161;
}
);
note = EqualArabic;
unicode = 003D;
},
{
glyphname = DecimalPointArabic;
lastChange = "2016-12-06 15:22:26 +0000";
layers = (
{
layerId = "B831CC2C-6991-4D3A-BB51-B9DC9D9CB4BD";
paths = (
{
closed = 1;
nodes = (
"276 380 OFFCURVE",
"170 268 OFFCURVE",
"110 187 CURVE",
"110 169 LINE",
"193 110 OFFCURVE",
"245 67 OFFCURVE",
"267 38 CURVE SMOOTH",
"288 9 OFFCURVE",
"299 -19 OFFCURVE",
"299 -47 CURVE SMOOTH",
"299 -119 OFFCURVE",
"251 -195 OFFCURVE",
"202 -272 CURVE",
"239 -299 LINE",
"394 -134 OFFCURVE",
"475 28 OFFCURVE",
"475 149 CURVE SMOOTH",
"475 243 OFFCURVE",
"421 323 OFFCURVE",
"313 389 CURVE",
"295 389 LINE"
);
}
);
width = 583;
}
);
note = DecimalPointArabic;
unicode = 066B;
},
{
glyphname = DecimalPointFarsi;
lastChange = "2016-12-06 15:22:26 +0000";
layers = (
{
layerId = "B831CC2C-6991-4D3A-BB51-B9DC9D9CB4BD";
paths = (
{
closed = 1;
nodes = (
"440 328 OFFCURVE",
"208 12 OFFCURVE",
"133 -272 CURVE",
"166 -288 LINE",
"263 -108 OFFCURVE",
"310 -41 OFFCURVE",
"574 124 CURVE",
"601 144 OFFCURVE",
"623 161 OFFCURVE",
"635 194 CURVE",
"670 324 LINE SMOOTH",
"675 345 OFFCURVE",
"679 366 OFFCURVE",
"684 387 CURVE SMOOTH",
"689 408 OFFCURVE",
"691 424 OFFCURVE",
"691 437 CURVE",
"661 455 LINE"
);
}
);
width = 792;
}
);
note = DecimalPointFarsi;
},
{
glyphname = ThousandMarkerArabic;
lastChange = "2016-12-06 15:22:26 +0000";
layers = (
{
layerId = "B831CC2C-6991-4D3A-BB51-B9DC9D9CB4BD";
paths = (
{
closed = 1;
nodes = (
"252 1527 OFFCURVE",
"164 1438 OFFCURVE",
"104 1357 CURVE",
"104 1341 LINE",
"173 1290 OFFCURVE",
"218 1252 OFFCURVE",
"241 1227 CURVE SMOOTH",
"264 1201 OFFCURVE",
"275 1174 OFFCURVE",
"275 1147 CURVE SMOOTH",
"275 1099 OFFCURVE",
"246 1032 OFFCURVE",
"187 945 CURVE",
"221 920 LINE",
"334 1035 OFFCURVE",
"434 1200 OFFCURVE",
"434 1323 CURVE SMOOTH",
"434 1407 OFFCURVE",
"385 1479 OFFCURVE",
"288 1539 CURVE",
"272 1539 LINE"
);
}
);
width = 583;
}
);
note = ThousandMarkerArabic;
unicode = 066C;
},
{
glyphname = PeriodUrdu;
lastChange = "2016-12-06 15:22:26 +0000";
layers = (
{
layerId = "B831CC2C-6991-4D3A-BB51-B9DC9D9CB4BD";
paths = (
{
closed = 1;
nodes = (
"172 158 OFFCURVE",
"325 178 OFFCURVE",
"587 203 CURVE SMOOTH",
"829 226 OFFCURVE",
"980 245 OFFCURVE",
"1040 259 CURVE SMOOTH",
"1124 279 OFFCURVE",
"1207 369 OFFCURVE",
"1238 497 CURVE",
"1229 513 LINE",
"1176 498 OFFCURVE",
"1125 487 OFFCURVE",
"1076 481 CURVE SMOOTH",
"980 469 OFFCURVE",
"888 459 OFFCURVE",
"792 452 CURVE SMOOTH",
"281 407 OFFCURVE",
"186 358 OFFCURVE",
"119 158 CURVE",
"128 142 LINE"
);
}
);
width = 1357;
}
);
note = PeriodUrdu;
unicode = 06D4;
},
{
glyphname = CommaArabic;
lastChange = "2016-12-06 15:22:26 +0000";
layers = (
{
layerId = "B831CC2C-6991-4D3A-BB51-B9DC9D9CB4BD";
paths = (
{
closed = 1;
nodes = (
"547 259 OFFCURVE",
"533 285 OFFCURVE",
"506 310 CURVE",
"443 363 OFFCURVE",
"405 398 OFFCURVE",
"390 416 CURVE SMOOTH",
"375 434 OFFCURVE",
"367 454 OFFCURVE",
"367 475 CURVE SMOOTH",
"367 528 OFFCURVE",
"418 616 OFFCURVE",
"473 700 CURVE",
"436 727 LINE",
"304 586 OFFCURVE",
"211 396 OFFCURVE",
"211 261 CURVE SMOOTH",
"211 213 OFFCURVE",
"225 171 OFFCURVE",
"254 134 CURVE SMOOTH",
"268 115 OFFCURVE",
"303 84 OFFCURVE",
"360 40 CURVE",
"380 40 LINE",
"491 120 OFFCURVE",
"547 185 OFFCURVE",
"547 234 CURVE SMOOTH"
);
}
);
width = 731;
}
);
note = CommaArabic;
unicode = 060C;
},
{
glyphname = SemicolonArabic;
lastChange = "2016-12-06 15:22:26 +0000";
layers = (
{
layerId = "B831CC2C-6991-4D3A-BB51-B9DC9D9CB4BD";
paths = (
{
closed = 1;
nodes = (
"334 1105 OFFCURVE",
"319 1122 OFFCURVE",
"319 1161 CURVE SMOOTH",
"319 1221 OFFCURVE",
"377 1314 OFFCURVE",
"425 1386 CURVE",
"387 1413 LINE",
"252 1269 OFFCURVE",
"162 1082 OFFCURVE",
"162 947 CURVE SMOOTH",
"162 916 OFFCURVE",
"168 886 OFFCURVE",
"181 858 CURVE SMOOTH",
"194 829 OFFCURVE",
"237 785 OFFCURVE",
"311 725 CURVE",
"331 725 LINE",
"389 766 OFFCURVE",
"432 804 OFFCURVE",
"459 837 CURVE SMOOTH",
"486 870 OFFCURVE",
"499 897 OFFCURVE",
"499 920 CURVE SMOOTH",
"499 953 OFFCURVE",
"481 974 OFFCURVE",
"457 995 CURVE SMOOTH",
"373 1069 LINE SMOOTH"
);
},
{
closed = 1;
nodes = (
"239 117 LINE",
"284 74 LINE",
"319 40 LINE",
"337 40 LINE",
"396 82 OFFCURVE",
"439 119 OFFCURVE",
"466 152 CURVE SMOOTH",
"493 184 OFFCURVE",
"506 211 OFFCURVE",
"506 234 CURVE SMOOTH",
"506 291 OFFCURVE",
"454 339 OFFCURVE",
"346 407 CURVE",
"328 407 LINE",
"301 390 OFFCURVE",
"185 266 OFFCURVE",
"149 211 CURVE",
"149 193 LINE"
);
}
);
width = 650;
}
);
note = SemicolonArabic;
unicode = 061B;
},
{
glyphname = QuoteSingleLeftArabic;
lastChange = "2016-12-06 15:22:26 +0000";
layers = (
{
layerId = "B831CC2C-6991-4D3A-BB51-B9DC9D9CB4BD";
paths = (
{
closed = 1;
nodes = (
"466 1635 OFFCURVE",
"440 1669 OFFCURVE",
"389 1706 CURVE",
"332 1751 OFFCURVE",
"304 1787 OFFCURVE",
"304 1814 CURVE SMOOTH",
"304 1873 OFFCURVE",
"332 1923 OFFCURVE",
"400 2023 CURVE",
"365 2048 LINE",
"245 1921 OFFCURVE",
"162 1744 OFFCURVE",
"162 1629 CURVE SMOOTH",
"162 1538 OFFCURVE",
"206 1489 OFFCURVE",
"297 1429 CURVE",
"315 1429 LINE",
"399 1485 OFFCURVE",
"466 1560 OFFCURVE",
"466 1604 CURVE SMOOTH"
);
}
);
width = 628;
}
);
note = QuoteSingleLeftArabic;
unicode = 2018;
},
{
glyphname = QuoteSingleRightArabic;
lastChange = "2016-12-06 15:22:26 +0000";
layers = (
{
layerId = "B831CC2C-6991-4D3A-BB51-B9DC9D9CB4BD";
paths = (
{
closed = 1;
nodes = (
"239 1945 OFFCURVE",
"170 1865 OFFCURVE",
"155 1822 CURVE",
"155 1805 LINE",
"228 1740 OFFCURVE",
"273 1698 OFFCURVE",
"290 1678 CURVE SMOOTH",
"307 1657 OFFCURVE",
"315 1632 OFFCURVE",
"315 1602 CURVE SMOOTH",
"315 1547 OFFCURVE",
"298 1507 OFFCURVE",
"229 1399 CURVE",
"263 1375 LINE",
"383 1503 OFFCURVE",
"466 1679 OFFCURVE",
"466 1795 CURVE SMOOTH",
"466 1879 OFFCURVE",
"420 1945 OFFCURVE",
"329 1994 CURVE",
"311 1994 LINE"
);
}
);
width = 628;
}
);
note = QuoteSingleRightArabic;
unicode = 2019;
},
{
glyphname = SglGuillemetLeftArabic;
lastChange = "2016-12-06 15:22:26 +0000";
layers = (
{
layerId = "B831CC2C-6991-4D3A-BB51-B9DC9D9CB4BD";
paths = (
{
closed = 1;
nodes = (
"394 133 OFFCURVE",
"447 265 OFFCURVE",
"452 292 CURVE",
"351 389 OFFCURVE",
"301 517 OFFCURVE",
"301 677 CURVE SMOOTH",
"301 804 OFFCURVE",
"354 968 OFFCURVE",
"443 1091 CURVE",
"409 1120 LINE",
"260 956 OFFCURVE",
"173 733 OFFCURVE",
"173 545 CURVE SMOOTH",
"173 364 OFFCURVE",
"244 206 OFFCURVE",
"369 122 CURVE",
"387 126 LINE"
);
}
);
width = 625;
}
);
note = SglGuillemetLeftArabic;
unicode = 2039;
},
{
glyphname = SglGuillemetRightArabic;
lastChange = "2016-12-06 15:22:26 +0000";
layers = (
{
layerId = "B831CC2C-6991-4D3A-BB51-B9DC9D9CB4BD";
paths = (
{
closed = 1;
nodes = (
"230 1114 OFFCURVE",
"177 980 OFFCURVE",
"173 956 CURVE",
"274 859 OFFCURVE",
"324 730 OFFCURVE",
"324 571 CURVE SMOOTH",
"324 443 OFFCURVE",
"270 278 OFFCURVE",
"182 157 CURVE",
"216 128 LINE",
"365 288 OFFCURVE",
"452 513 OFFCURVE",
"452 702 CURVE SMOOTH",
"452 879 OFFCURVE",
"388 1034 OFFCURVE",
"256 1125 CURVE",
"238 1121 LINE"
);
}
);
width = 625;
}
);
note = SglGuillemetRightArabic;
unicode = 203A;
},
{
glyphname = DblGuillemetLeftArabic;
lastChange = "2016-12-06 15:22:26 +0000";
layers = (
{
layerId = "B831CC2C-6991-4D3A-BB51-B9DC9D9CB4BD";
paths = (
{
closed = 1;
nodes = (
"763 209 OFFCURVE",
"804 319 OFFCURVE",
"812 360 CURVE",
"707 447 OFFCURVE",
"661 543 OFFCURVE",
"661 702 CURVE SMOOTH",
"661 819 OFFCURVE",
"711 971 OFFCURVE",
"803 1098 CURVE",
"769 1125 LINE",
"617 957 OFFCURVE",
"533 758 OFFCURVE",
"533 571 CURVE SMOOTH",
"533 405 OFFCURVE",
"600 278 OFFCURVE",
"734 191 CURVE",
"752 194 LINE"
);
},
{
closed = 1;
nodes = (
"394 133 OFFCURVE",
"447 265 OFFCURVE",
"452 292 CURVE",
"351 389 OFFCURVE",
"301 517 OFFCURVE",
"301 677 CURVE SMOOTH",
"301 804 OFFCURVE",
"354 968 OFFCURVE",
"443 1091 CURVE",
"409 1120 LINE",
"260 956 OFFCURVE",
"173 733 OFFCURVE",
"173 545 CURVE SMOOTH",
"173 364 OFFCURVE",
"244 205 OFFCURVE",
"369 122 CURVE",
"387 126 LINE"
);
}
);
width = 985;
}
);
note = DblGuillemetLeftArabic;
unicode = 00AB;
},
{
glyphname = DblGuillemetRightArabic;
lastChange = "2016-12-06 15:22:26 +0000";
layers = (
{
layerId = "B831CC2C-6991-4D3A-BB51-B9DC9D9CB4BD";
paths = (
{
closed = 1;
nodes = (
"216 1029 OFFCURVE",
"180 922 OFFCURVE",
"173 887 CURVE",
"278 802 OFFCURVE",
"324 704 OFFCURVE",
"324 545 CURVE SMOOTH",
"324 428 OFFCURVE",
"273 277 OFFCURVE",
"182 149 CURVE",
"216 122 LINE",
"367 289 OFFCURVE",
"452 489 OFFCURVE",
"452 677 CURVE SMOOTH",
"452 842 OFFCURVE",
"385 969 OFFCURVE",
"250 1057 CURVE",
"232 1053 LINE"
);
},
{
closed = 1;
nodes = (
"590 1114 OFFCURVE",
"537 980 OFFCURVE",
"533 956 CURVE",
"634 859 OFFCURVE",
"684 730 OFFCURVE",
"684 571 CURVE SMOOTH",
"684 443 OFFCURVE",
"630 278 OFFCURVE",
"542 157 CURVE",
"576 128 LINE",
"725 288 OFFCURVE",
"812 515 OFFCURVE",
"812 702 CURVE SMOOTH",
"812 879 OFFCURVE",
"748 1034 OFFCURVE",
"616 1125 CURVE",
"598 1121 LINE"
);
}
);
width = 985;
}
);
note = DblGuillemetRightArabic;
unicode = 00BB;
},
{
glyphname = QuestionmarkArabic;
lastChange = "2016-12-06 15:22:26 +0000";
layers = (
{
layerId = "B831CC2C-6991-4D3A-BB51-B9DC9D9CB4BD";
paths = (
{
closed = 1;
nodes = (
"591 589 OFFCURVE",
"596 632 OFFCURVE",
"596 675 CURVE SMOOTH",
"596 854 OFFCURVE",
"527 1016 OFFCURVE",
"389 1161 CURVE SMOOTH",
"311 1244 OFFCURVE",
"272 1308 OFFCURVE",
"272 1355 CURVE SMOOTH",
"272 1462 OFFCURVE",
"393 1530 OFFCURVE",
"556 1530 CURVE SMOOTH",
"616 1530 OFFCURVE",
"662 1524 OFFCURVE",
"695 1512 CURVE",
"713 1512 LINE",
"743 1551 OFFCURVE",
"758 1593 OFFCURVE",
"758 1636 CURVE SMOOTH",
"758 1708 OFFCURVE",
"691 1753 OFFCURVE",
"572 1753 CURVE SMOOTH",
"359 1753 OFFCURVE",
"180 1543 OFFCURVE",
"180 1332 CURVE SMOOTH",
"180 1217 OFFCURVE",
"213 1126 OFFCURVE",
"333 970 CURVE SMOOTH",
"494 763 OFFCURVE",
"522 681 OFFCURVE",
"542 549 CURVE",
"581 547 LINE"
);
},
{
closed = 1;
nodes = (
"451 132 OFFCURVE",
"505 83 OFFCURVE",
"542 40 CURVE",
"560 40 LINE",
"629 94 OFFCURVE",
"674 134 OFFCURVE",
"693 160 CURVE SMOOTH",
"712 185 OFFCURVE",
"722 208 OFFCURVE",
"722 227 CURVE SMOOTH",
"722 282 OFFCURVE",
"669 328 OFFCURVE",
"569 392 CURVE",
"551 392 LINE",
"530 380 OFFCURVE",
"435 282 OFFCURVE",
"380 205 CURVE",
"380 187 LINE"
);
}
);
width = 974;
}
);
note = QuestionmarkArabic;
unicode = 061F;
},
{
glyphname = DateSeparatorArabic;
lastChange = "2016-12-06 15:22:26 +0000";
layers = (
{
layerId = "B831CC2C-6991-4D3A-BB51-B9DC9D9CB4BD";
paths = (
{
closed = 1;
nodes = (
"580 726 OFFCURVE",
"315 345 OFFCURVE",
"234 2 CURVE",
"272 -11 LINE",
"380 210 OFFCURVE",
"457 315 OFFCURVE",
"709 495 CURVE",
"738 514 OFFCURVE",
"762 535 OFFCURVE",
"774 576 CURVE",
"779 597 OFFCURVE",
"785 619 OFFCURVE",
"792 644 CURVE SMOOTH",
"809 712 OFFCURVE",
"832 797 OFFCURVE",
"832 833 CURVE",
"799 853 LINE"
);
}
);
width = 1084;
}
);
note = DateSeparatorArabic;
unicode = 060D;
},
{
glyphname = AsteriskArabic;
lastChange = "2016-12-06 15:22:26 +0000";
layers = (
{
layerId = "B831CC2C-6991-4D3A-BB51-B9DC9D9CB4BD";
paths = (
{
closed = 1;
nodes = (
"556 767 OFFCURVE",
"542 806 OFFCURVE",
"513 806 CURVE SMOOTH",
"492 806 OFFCURVE",
"482 786 OFFCURVE",
"482 747 CURVE SMOOTH",
"482 696 OFFCURVE",
"488 653 OFFCURVE",
"500 618 CURVE SMOOTH",
"511 583 OFFCURVE",
"522 565 OFFCURVE",
"531 565 CURVE SMOOTH",
"548 565 OFFCURVE",
"556 606 OFFCURVE",
"556 689 CURVE SMOOTH"
);
},
{
closed = 1;
nodes = (
"756 726 OFFCURVE",
"748 736 OFFCURVE",
"731 736 CURVE SMOOTH",
"686 736 OFFCURVE",
"589 605 OFFCURVE",
"589 554 CURVE SMOOTH",
"589 548 OFFCURVE",
"592 545 OFFCURVE",
"598 545 CURVE",
"629 548 OFFCURVE",
"756 662 OFFCURVE",
"756 707 CURVE SMOOTH"
);
},
{
closed = 1;
nodes = (
"296 704 OFFCURVE",
"286 695 OFFCURVE",
"286 677 CURVE SMOOTH",
"286 633 OFFCURVE",
"417 535 OFFCURVE",
"468 535 CURVE SMOOTH",
"474 535 OFFCURVE",
"477 538 OFFCURVE",
"477 544 CURVE SMOOTH",
"477 575 OFFCURVE",
"358 704 OFFCURVE",
"315 704 CURVE SMOOTH"
);
},
{
closed = 1;
nodes = (
"820 466 OFFCURVE",
"859 481 OFFCURVE",
"859 511 CURVE SMOOTH",
"859 550 OFFCURVE",
"745 543 OFFCURVE",
"673 522 CURVE SMOOTH",
"637 511 OFFCURVE",
"619 501 OFFCURVE",
"619 491 CURVE SMOOTH",
"619 474 OFFCURVE",
"660 466 OFFCURVE",
"743 466 CURVE SMOOTH"
);
},
{
closed = 1;
nodes = (
"255 502 OFFCURVE",
"216 488 OFFCURVE",
"216 459 CURVE SMOOTH",
"216 438 OFFCURVE",
"237 428 OFFCURVE",
"279 428 CURVE SMOOTH",
"330 429 OFFCURVE",
"372 436 OFFCURVE",
"405 447 CURVE SMOOTH",
"438 458 OFFCURVE",
"455 468 OFFCURVE",
"455 479 CURVE SMOOTH",
"455 494 OFFCURVE",
"414 502 OFFCURVE",
"333 502 CURVE SMOOTH"
);
},
{
closed = 1;
nodes = (
"780 266 OFFCURVE",
"790 275 OFFCURVE",
"790 292 CURVE SMOOTH",
"790 337 OFFCURVE",
"655 434 OFFCURVE",
"608 434 CURVE SMOOTH",
"601 434 OFFCURVE",
"598 432 OFFCURVE",
"598 427 CURVE SMOOTH",
"599 392 OFFCURVE",
"713 266 OFFCURVE",
"761 266 CURVE SMOOTH"
);
},
{
closed = 1;
nodes = (
"319 242 OFFCURVE",
"328 232 OFFCURVE",
"346 232 CURVE",
"389 235 OFFCURVE",
"486 366 OFFCURVE",
"486 414 CURVE SMOOTH",
"486 421 OFFCURVE",
"484 425 OFFCURVE",
"479 425 CURVE SMOOTH",
"450 425 OFFCURVE",
"319 306 OFFCURVE",
"319 261 CURVE SMOOTH"
);
},
{
closed = 1;
nodes = (
"520 202 OFFCURVE",
"534 164 OFFCURVE",
"563 164 CURVE SMOOTH",
"584 164 OFFCURVE",
"594 184 OFFCURVE",
"594 223 CURVE SMOOTH",
"594 269 OFFCURVE",
"588 311 OFFCURVE",
"576 348 CURVE SMOOTH",
"564 385 OFFCURVE",
"553 403 OFFCURVE",
"544 403 CURVE SMOOTH",
"528 403 OFFCURVE",
"520 362 OFFCURVE",
"520 279 CURVE SMOOTH"
);
}
);
width = 1075;
}
);
note = AsteriskArabic;
unicode = 066D;
},
{
glyphname = Divine_nm_p1;
lastChange = "2016-12-06 15:22:26 +0000";
layers = (
{
layerId = "B831CC2C-6991-4D3A-BB51-B9DC9D9CB4BD";
paths = (
{
closed = 1;
nodes = (
"1208 695 OFFCURVE",
"1157 758 OFFCURVE",
"1156 884 CURVE",
"1156 898 OFFCURVE",
"1156 912 OFFCURVE",
"1157 925 CURVE",
"1109 932 LINE",
"1057 728 OFFCURVE",
"965 626 OFFCURVE",
"833 626 CURVE SMOOTH",
"740 626 OFFCURVE",
"677 686 OFFCURVE",
"677 801 CURVE SMOOTH",
"677 824 OFFCURVE",
"679 845 OFFCURVE",
"682 864 CURVE",
"648 877 LINE",
"569 776 OFFCURVE",
"251 434 OFFCURVE",
"58 247 CURVE",
"90 212 LINE",
"201 288 OFFCURVE",
"330 389 OFFCURVE",
"477 515 CURVE",
"501 386 OFFCURVE",
"595 302 OFFCURVE",
"752 302 CURVE SMOOTH",
"887 302 OFFCURVE",
"986 375 OFFCURVE",
"1037 459 CURVE",
"1075 400 OFFCURVE",
"1135 371 OFFCURVE",
"1217 371 CURVE SMOOTH",
"1280 371 OFFCURVE",
"1337 393 OFFCURVE",
"1387 436 CURVE SMOOTH",
"1487 522 OFFCURVE",
"1549 654 OFFCURVE",
"1582 796 CURVE SMOOTH",
"1598 867 OFFCURVE",
"1612 1000 OFFCURVE",
"1624 1197 CURVE SMOOTH",
"1629 1278 OFFCURVE",
"1637 1344 OFFCURVE",
"1649 1395 CURVE",
"1609 1411 LINE",
"1530 1273 OFFCURVE",
"1490 1140 OFFCURVE",
"1490 1012 CURVE SMOOTH",
"1490 960 OFFCURVE",
"1488 905 OFFCURVE",
"1485 846 CURVE",
"1473 759 OFFCURVE",
"1411 695 OFFCURVE",
"1310 695 CURVE SMOOTH"
);
}
);
width = 1643;
}
);
note = Divine_nm_p1;
},
{
glyphname = Mhmd;
lastChange = "2016-12-06 15:22:26 +0000";
layers = (
{
layerId = "B831CC2C-6991-4D3A-BB51-B9DC9D9CB4BD";
paths = (
{
closed = 1;
nodes = (
"1057 487 OFFCURVE",
"1085 535 OFFCURVE",
"1142 579 CURVE SMOOTH",
"1198 622 OFFCURVE",
"1321 687 OFFCURVE",
"1510 772 CURVE SMOOTH",
"1786 895 OFFCURVE",
"1855 973 OFFCURVE",
"1915 1093 CURVE",
"1913 1107 LINE",
"1810 1152 OFFCURVE",
"1545 1183 OFFCURVE",
"1386 1183 CURVE SMOOTH",
"1365 1183 OFFCURVE",
"1341 1182 OFFCURVE",
"1316 1181 CURVE",
"1394 1306 OFFCURVE",
"1557 1413 OFFCURVE",
"1805 1503 CURVE SMOOTH",
"1875 1527 OFFCURVE",
"1930 1549 OFFCURVE",
"1969 1568 CURVE SMOOTH",
"2065 1613 OFFCURVE",
"2196 1793 OFFCURVE",
"2196 1886 CURVE SMOOTH",
"2196 1963 OFFCURVE",
"2044 2063 OFFCURVE",
"1940 2063 CURVE SMOOTH",
"1898 2063 OFFCURVE",
"1857 2039 OFFCURVE",
"1817 1990 CURVE SMOOTH",
"1737 1893 OFFCURVE",
"1688 1796 OFFCURVE",
"1688 1741 CURVE SMOOTH",
"1688 1693 OFFCURVE",
"1714 1669 OFFCURVE",
"1753 1636 CURVE",
"1625 1579 OFFCURVE",
"1520 1517 OFFCURVE",
"1438 1450 CURVE SMOOTH",
"1273 1317 OFFCURVE",
"1160 1124 OFFCURVE",
"1121 1004 CURVE",
"1138 985 LINE",
"1170 986 OFFCURVE",
"1199 986 OFFCURVE",
"1226 986 CURVE SMOOTH",
"1413 986 OFFCURVE",
"1594 964 OFFCURVE",
"1633 945 CURVE",
"1460 871 LINE SMOOTH",
"1324 814 OFFCURVE",
"1226 761 OFFCURVE",
"1166 712 CURVE SMOOTH",
"1045 615 OFFCURVE",
"964 477 OFFCURVE",
"932 360 CURVE",
"867 407 OFFCURVE",
"835 489 OFFCURVE",
"835 608 CURVE SMOOTH",
"835 625 OFFCURVE",
"845 696 OFFCURVE",
"864 819 CURVE",
"803 828 LINE",
"760 659 OFFCURVE",
"719 529 OFFCURVE",
"681 440 CURVE SMOOTH",
"604 261 OFFCURVE",
"382 112 OFFCURVE",
"115 -31 CURVE",
"119 -76 LINE",
"251 -60 OFFCURVE",
"346 -45 OFFCURVE",
"404 -31 CURVE SMOOTH",
"461 -18 OFFCURVE",
"503 -2 OFFCURVE",
"529 16 CURVE",
"610 105 OFFCURVE",
"668 195 OFFCURVE",
"704 288 CURVE",
"707 288 LINE",
"707 120 OFFCURVE",
"797 0 OFFCURVE",
"965 0 CURVE SMOOTH",
"1125 5 OFFCURVE",
"1271 166 OFFCURVE",
"1271 322 CURVE",
"1262 338 LINE",
"1253 347 OFFCURVE",
"1209 358 OFFCURVE",
"1130 371 CURVE SMOOTH",
"1081 379 OFFCURVE",
"1057 401 OFFCURVE",
"1057 436 CURVE SMOOTH"
);
}
);
width = 2250;
}
);
note = Mhmd;
unicode = FDF4;
},
{
glyphname = uniFDFD;
lastChange = "2016-12-06 15:22:26 +0000";
layers = (
{
layerId = "B831CC2C-6991-4D3A-BB51-B9DC9D9CB4BD";
paths = (
{
closed = 1;
nodes = (
"6789 -371 OFFCURVE",
"6750 -559 OFFCURVE",
"6731 -764 CURVE SMOOTH",
"6711 -969 OFFCURVE",
"6710 -1194 OFFCURVE",
"6710 -1429 CURVE SMOOTH",
"6710 -1564 OFFCURVE",
"6711 -1714 OFFCURVE",
"6716 -1843 CURVE",
"6788 -1843 LINE",
"6797 -1738 OFFCURVE",
"6807 -1576 OFFCURVE",
"6816 -1411 CURVE SMOOTH",
"6824 -1246 OFFCURVE",
"6833 -1075 OFFCURVE",
"6844 -952 CURVE SMOOTH",
"6863 -681 OFFCURVE",
"6882 -527 OFFCURVE",
"6902 -426 CURVE SMOOTH",
"6921 -326 OFFCURVE",
"6945 -277 OFFCURVE",
"6973 -220 CURVE SMOOTH",
"7033 -97 OFFCURVE",
"7153 -17 OFFCURVE",
"7288 42 CURVE SMOOTH",
"7423 101 OFFCURVE",
"7577 134 OFFCURVE",
"7706 158 CURVE SMOOTH",
"7745 166 OFFCURVE",
"7759 174 OFFCURVE",
"7771 182 CURVE SMOOTH",
"7816 210 OFFCURVE",
"7864 281 OFFCURVE",
"7900 353 CURVE SMOOTH",
"7936 425 OFFCURVE",
"7961 499 OFFCURVE",
"7961 536 CURVE SMOOTH",
"7961 570 OFFCURVE",
"7935 598 OFFCURVE",
"7882 619 CURVE SMOOTH",
"7831 639 OFFCURVE",
"7774 657 OFFCURVE",
"7726 666 CURVE",
"7774 738 OFFCURVE",
"7831 808 OFFCURVE",
"7900 860 CURVE SMOOTH",
"7969 911 OFFCURVE",
"8051 945 OFFCURVE",
"8147 945 CURVE SMOOTH",
"8186 945 OFFCURVE",
"8220 942 OFFCURVE",
"8253 911 CURVE",
"8280 890 OFFCURVE",
"8308 873 OFFCURVE",
"8357 873 CURVE SMOOTH",
"8449 873 OFFCURVE",
"8511 928 OFFCURVE",
"8568 1004 CURVE",
"8595 980 OFFCURVE",
"8632 959 OFFCURVE",
"8680 959 CURVE SMOOTH",
"8756 959 OFFCURVE",
"8801 1003 OFFCURVE",
"8842 1058 CURVE",
"8875 1034 OFFCURVE",
"8894 1033 OFFCURVE",
"8914 1033 CURVE SMOOTH",
"8974 1033 OFFCURVE",
"9022 1072 OFFCURVE",
"9062 1124 CURVE SMOOTH",
"9102 1176 OFFCURVE",
"9132 1239 OFFCURVE",
"9151 1287 CURVE SMOOTH",
"9172 1338 OFFCURVE",
"9200 1415 OFFCURVE",
"9221 1516 CURVE",
"9229 1544 OFFCURVE",
"9235 1578 OFFCURVE",
"9241 1620 CURVE SMOOTH",
"9247 1662 OFFCURVE",
"9253 1715 OFFCURVE",
"9257 1784 CURVE SMOOTH",
"9260 1829 OFFCURVE",
"9264 1859 OFFCURVE",
"9268 1882 CURVE",
"9271 1905 OFFCURVE",
"9274 1922 OFFCURVE",
"9279 1946 CURVE",
"9236 1960 LINE",
"9192 1891 OFFCURVE",
"9158 1836 OFFCURVE",
"9137 1784 CURVE SMOOTH",
"9116 1731 OFFCURVE",
"9104 1681 OFFCURVE",
"9103 1616 CURVE SMOOTH",
"9100 1525 OFFCURVE",
"9093 1452 OFFCURVE",
"9088 1404 CURVE SMOOTH",
"9073 1289 OFFCURVE",
"9049 1251 OFFCURVE",
"8982 1251 CURVE SMOOTH",
"8953 1251 OFFCURVE",
"8927 1262 OFFCURVE",
"8915 1274 CURVE",
"8914 1284 OFFCURVE",
"8912 1291 OFFCURVE",
"8908 1296 CURVE",
"8865 1294 LINE",
"8850 1222 OFFCURVE",
"8812 1175 OFFCURVE",
"8744 1175 CURVE SMOOTH",
"8707 1175 OFFCURVE",
"8665 1192 OFFCURVE",
"8638 1229 CURVE",
"8602 1228 LINE",
"8571 1145 OFFCURVE",
"8513 1091 OFFCURVE",
"8426 1091 CURVE SMOOTH",
"8399 1091 OFFCURVE",
"8382 1098 OFFCURVE",
"8343 1127 CURVE SMOOTH",
"8316 1146 OFFCURVE",
"8281 1163 OFFCURVE",
"8233 1163 CURVE SMOOTH",
"8158 1163 OFFCURVE",
"8065 1136 OFFCURVE",
"7988 1085 CURVE SMOOTH",
"7895 1025 OFFCURVE",
"7824 963 OFFCURVE",
"7758 883 CURVE SMOOTH",
"7692 803 OFFCURVE",
"7628 702 OFFCURVE",
"7555 565 CURVE SMOOTH",
"7520 502 OFFCURVE",
"7495 441 OFFCURVE",
"7468 369 CURVE",
"7309 292 OFFCURVE",
"7194 220 OFFCURVE",
"7101 133 CURVE SMOOTH",
"7008 45 OFFCURVE",
"6937 -62 OFFCURVE",
"6865 -211 CURVE SMOOTH"
);
},
{
closed = 1;
nodes = (
"6624 747 OFFCURVE",
"6577 821 OFFCURVE",
"6577 936 CURVE SMOOTH",
"6577 943 OFFCURVE",
"6577 950 OFFCURVE",
"6577 956 CURVE SMOOTH",
"6577 962 OFFCURVE",
"6578 969 OFFCURVE",
"6579 977 CURVE",
"6530 985 LINE",
"6475 773 OFFCURVE",
"6387 679 OFFCURVE",
"6255 679 CURVE SMOOTH",
"6162 679 OFFCURVE",
"6098 738 OFFCURVE",
"6098 853 CURVE SMOOTH",
"6098 874 OFFCURVE",
"6100 895 OFFCURVE",
"6104 916 CURVE",
"6070 929 LINE",
"6041 893 OFFCURVE",
"5986 829 OFFCURVE",
"5918 754 CURVE SMOOTH",
"5849 679 OFFCURVE",
"5769 592 OFFCURVE",
"5691 511 CURVE SMOOTH",
"5613 430 OFFCURVE",
"5536 354 OFFCURVE",
"5479 299 CURVE",
"5512 265 LINE",
"5569 302 OFFCURVE",
"5639 356 OFFCURVE",
"5708 410 CURVE SMOOTH",
"5777 464 OFFCURVE",
"5843 519 OFFCURVE",
"5899 567 CURVE",
"5923 438 OFFCURVE",
"6013 355 OFFCURVE",
"6174 355 CURVE SMOOTH",
"6311 355 OFFCURVE",
"6409 427 OFFCURVE",
"6458 511 CURVE",
"6505 442 OFFCURVE",
"6569 423 OFFCURVE",
"6638 423 CURVE SMOOTH",
"6763 423 OFFCURVE",
"6865 517 OFFCURVE",
"6926 637 CURVE SMOOTH",
"6970 721 OFFCURVE",
"6996 806 OFFCURVE",
"7012 904 CURVE SMOOTH",
"7028 1002 OFFCURVE",
"7036 1113 OFFCURVE",
"7045 1249 CURVE SMOOTH",
"7050 1341 OFFCURVE",
"7058 1399 OFFCURVE",
"7070 1447 CURVE",
"7031 1463 LINE",
"6939 1306 OFFCURVE",
"6912 1172 OFFCURVE",
"6912 1064 CURVE SMOOTH",
"6912 1058 OFFCURVE",
"6912 1048 OFFCURVE",
"6912 1035 CURVE SMOOTH",
"6912 1022 OFFCURVE",
"6912 1007 OFFCURVE",
"6911 991 CURVE SMOOTH",
"6910 975 OFFCURVE",
"6910 959 OFFCURVE",
"6909 942 CURVE SMOOTH",
"6908 925 OFFCURVE",
"6908 910 OFFCURVE",
"6907 898 CURVE",
"6895 811 OFFCURVE",
"6833 747 OFFCURVE",
"6732 747 CURVE SMOOTH"
);
},
{
closed = 1;
nodes = (
"6390 1758 OFFCURVE",
"6410 1715 OFFCURVE",
"6466 1715 CURVE SMOOTH",
"6527 1715 OFFCURVE",
"6571 1762 OFFCURVE",
"6604 1841 CURVE",
"6616 1832 OFFCURVE",
"6638 1825 OFFCURVE",
"6655 1825 CURVE SMOOTH",
"6763 1825 OFFCURVE",
"6815 1924 OFFCURVE",
"6815 2048 CURVE SMOOTH",
"6815 2070 LINE",
"6779 2065 LINE",
"6772 2012 OFFCURVE",
"6762 1976 OFFCURVE",
"6750 1958 CURVE SMOOTH",
"6738 1939 OFFCURVE",
"6721 1930 OFFCURVE",
"6698 1930 CURVE SMOOTH",
"6677 1930 OFFCURVE",
"6648 1939 OFFCURVE",
"6633 1966 CURVE",
"6601 1960 LINE",
"6574 1855 OFFCURVE",
"6546 1820 OFFCURVE",
"6491 1820 CURVE SMOOTH",
"6459 1820 OFFCURVE",
"6442 1836 OFFCURVE",
"6435 1881 CURVE",
"6435 1890 LINE",
"6408 1886 LINE",
"6396 1862 OFFCURVE",
"6390 1834 OFFCURVE",
"6390 1802 CURVE SMOOTH"
);
},
{
closed = 1;
nodes = (
"5116 1154 OFFCURVE",
"5115 1124 OFFCURVE",
"5112 1090 CURVE SMOOTH",
"5106 1022 OFFCURVE",
"5096 969 OFFCURVE",
"5073 917 CURVE SMOOTH",
"5050 865 OFFCURVE",
"4996 830 OFFCURVE",
"4948 806 CURVE SMOOTH",
"4924 793 OFFCURVE",
"4896 778 OFFCURVE",
"4865 761 CURVE SMOOTH",
"4816 736 OFFCURVE",
"4781 708 OFFCURVE",
"4746 664 CURVE SMOOTH",
"4711 619 OFFCURVE",
"4678 560 OFFCURVE",
"4631 473 CURVE SMOOTH",
"4579 376 LINE SMOOTH",
"4539 300 OFFCURVE",
"4509 275 OFFCURVE",
"4464 236 CURVE",
"4401 188 OFFCURVE",
"4315 132 OFFCURVE",
"4228 81 CURVE SMOOTH",
"4140 30 OFFCURVE",
"4051 -19 OFFCURVE",
"3983 -52 CURVE",
"3987 -99 LINE",
"4062 -92 OFFCURVE",
"4151 -84 OFFCURVE",
"4230 -71 CURVE SMOOTH",
"4309 -58 OFFCURVE",
"4379 -43 OFFCURVE",
"4415 -23 CURVE",
"4451 8 OFFCURVE",
"4482 39 OFFCURVE",
"4512 79 CURVE SMOOTH",
"4542 118 OFFCURVE",
"4568 164 OFFCURVE",
"4603 227 CURVE SMOOTH",
"4675 364 LINE",
"4700 416 OFFCURVE",
"4732 456 OFFCURVE",
"4793 497 CURVE SMOOTH",
"4834 524 OFFCURVE",
"4870 547 OFFCURVE",
"4918 574 CURVE SMOOTH",
"4951 594 OFFCURVE",
"4976 612 OFFCURVE",
"5009 639 CURVE SMOOTH",
"5057 680 OFFCURVE",
"5094 734 OFFCURVE",
"5123 794 CURVE SMOOTH",
"5139 827 OFFCURVE",
"5158 876 OFFCURVE",
"5172 927 CURVE SMOOTH",
"5186 978 OFFCURVE",
"5198 1030 OFFCURVE",
"5206 1071 CURVE SMOOTH",
"5218 1136 OFFCURVE",
"5234 1227 OFFCURVE",
"5249 1331 CURVE SMOOTH",
"5264 1434 OFFCURVE",
"5275 1548 OFFCURVE",
"5278 1656 CURVE SMOOTH",
"5287 1998 LINE SMOOTH",
"5291 2118 OFFCURVE",
"5300 2214 OFFCURVE",
"5312 2266 CURVE",
"5269 2282 LINE",
"5248 2237 OFFCURVE",
"5232 2197 OFFCURVE",
"5219 2164 CURVE SMOOTH",
"5194 2096 OFFCURVE",
"5177 2045 OFFCURVE",
"5168 2002 CURVE SMOOTH",
"5163 1980 OFFCURVE",
"5158 1959 OFFCURVE",
"5153 1939 CURVE SMOOTH",
"5134 1856 OFFCURVE",
"5126 1778 OFFCURVE",
"5123 1678 CURVE SMOOTH",
"5116 1179 LINE SMOOTH"
);
},
{
closed = 1;
nodes = (
"1643 945 OFFCURVE",
"1687 938 OFFCURVE",
"1723 911 CURVE SMOOTH",
"1759 884 OFFCURVE",
"1796 862 OFFCURVE",
"1847 862 CURVE SMOOTH",
"1931 862 OFFCURVE",
"2005 892 OFFCURVE",
"2078 944 CURVE SMOOTH",
"2151 996 OFFCURVE",
"2223 1067 OFFCURVE",
"2304 1148 CURVE SMOOTH",
"2439 1285 LINE SMOOTH",
"2454 1301 OFFCURVE",
"2474 1321 OFFCURVE",
"2499 1345 CURVE SMOOTH",
"2548 1393 OFFCURVE",
"2600 1440 OFFCURVE",
"2640 1476 CURVE SMOOTH",
"2659 1494 OFFCURVE",
"2672 1505 OFFCURVE",
"2678 1510 CURVE",
"2675 1535 LINE",
"2634 1540 OFFCURVE",
"2559 1570 OFFCURVE",
"2482 1607 CURVE",
"2465 1616 OFFCURVE",
"2446 1625 OFFCURVE",
"2425 1635 CURVE",
"2381 1654 OFFCURVE",
"2337 1672 OFFCURVE",
"2295 1688 CURVE SMOOTH",
"2253 1703 OFFCURVE",
"2201 1721 OFFCURVE",
"2144 1721 CURVE SMOOTH",
"2021 1721 OFFCURVE",
"1920 1659 OFFCURVE",
"1829 1476 CURVE",
"1881 1458 LINE",
"1917 1523 OFFCURVE",
"1971 1534 OFFCURVE",
"2023 1534 CURVE SMOOTH",
"2079 1534 OFFCURVE",
"2115 1523 OFFCURVE",
"2178 1499 CURVE SMOOTH",
"2231 1479 OFFCURVE",
"2282 1459 OFFCURVE",
"2332 1440 CURVE SMOOTH",
"2382 1421 OFFCURVE",
"2422 1406 OFFCURVE",
"2452 1397 CURVE",
"2293 1262 LINE SMOOTH",
"2226 1205 OFFCURVE",
"2168 1160 OFFCURVE",
"2107 1129 CURVE SMOOTH",
"2046 1097 OFFCURVE",
"1985 1080 OFFCURVE",
"1913 1080 CURVE SMOOTH",
"1876 1080 OFFCURVE",
"1852 1089 OFFCURVE",
"1805 1125 CURVE SMOOTH",
"1784 1142 OFFCURVE",
"1747 1163 OFFCURVE",
"1692 1163 CURVE SMOOTH",
"1548 1163 OFFCURVE",
"1417 1077 OFFCURVE",
"1303 961 CURVE SMOOTH",
"1189 844 OFFCURVE",
"1093 694 OFFCURVE",
"1024 565 CURVE SMOOTH",
"1023 563 OFFCURVE",
"1022 561 OFFCURVE",
"1022 560 CURVE SMOOTH",
"1022 559 OFFCURVE",
"1022 557 OFFCURVE",
"1021 556 CURVE",
"1009 537 OFFCURVE",
"992 500 OFFCURVE",
"976 464 CURVE SMOOTH",
"959 427 OFFCURVE",
"945 388 OFFCURVE",
"938 369 CURVE",
"779 292 OFFCURVE",
"665 220 OFFCURVE",
"571 133 CURVE SMOOTH",
"477 45 OFFCURVE",
"407 -62 OFFCURVE",
"335 -211 CURVE SMOOTH",
"258 -371 OFFCURVE",
"219 -559 OFFCURVE",
"200 -764 CURVE SMOOTH",
"180 -969 OFFCURVE",
"180 -1194 OFFCURVE",
"180 -1429 CURVE SMOOTH",
"180 -1564 OFFCURVE",
"181 -1714 OFFCURVE",
"185 -1843 CURVE",
"257 -1843 LINE",
"268 -1738 OFFCURVE",
"277 -1576 OFFCURVE",
"286 -1411 CURVE SMOOTH",
"294 -1246 OFFCURVE",
"304 -1075 OFFCURVE",
"313 -952 CURVE SMOOTH",
"333 -681 OFFCURVE",
"351 -527 OFFCURVE",
"371 -426 CURVE SMOOTH",
"390 -326 OFFCURVE",
"414 -277 OFFCURVE",
"443 -220 CURVE SMOOTH",
"503 -97 OFFCURVE",
"623 -17 OFFCURVE",
"758 42 CURVE SMOOTH",
"893 101 OFFCURVE",
"1046 134 OFFCURVE",
"1175 158 CURVE SMOOTH",
"1214 166 OFFCURVE",
"1228 174 OFFCURVE",
"1240 182 CURVE SMOOTH",
"1285 210 OFFCURVE",
"1334 281 OFFCURVE",
"1370 353 CURVE SMOOTH",
"1406 425 OFFCURVE",
"1431 499 OFFCURVE",
"1431 536 CURVE SMOOTH",
"1431 570 OFFCURVE",
"1405 598 OFFCURVE",
"1352 619 CURVE SMOOTH",
"1301 639 OFFCURVE",
"1234 657 OFFCURVE",
"1186 666 CURVE",
"1237 743 OFFCURVE",
"1294 813 OFFCURVE",
"1365 864 CURVE SMOOTH",
"1436 915 OFFCURVE",
"1520 945 OFFCURVE",
"1624 945 CURVE SMOOTH"
);
},
{
closed = 1;
nodes = (
"8818 597 OFFCURVE",
"8832 586 OFFCURVE",
"8847 573 CURVE SMOOTH",
"8878 547 OFFCURVE",
"8912 515 OFFCURVE",
"8941 487 CURVE SMOOTH",
"8955 473 OFFCURVE",
"8966 462 OFFCURVE",
"8975 454 CURVE",
"8993 454 LINE",
"9036 485 OFFCURVE",
"9078 519 OFFCURVE",
"9110 553 CURVE SMOOTH",
"9141 587 OFFCURVE",
"9162 619 OFFCURVE",
"9162 648 CURVE SMOOTH",
"9162 705 OFFCURVE",
"9107 753 OFFCURVE",
"9002 821 CURVE",
"8984 821 LINE",
"8972 813 OFFCURVE",
"8939 782 OFFCURVE",
"8904 744 CURVE SMOOTH",
"8869 706 OFFCURVE",
"8830 661 OFFCURVE",
"8806 625 CURVE",
"8806 607 LINE"
);
},
{
closed = 1;
nodes = (
"8581 1675 OFFCURVE",
"8637 1712 OFFCURVE",
"8685 1748 CURVE SMOOTH",
"8733 1784 OFFCURVE",
"8775 1821 OFFCURVE",
"8782 1836 CURVE",
"8775 1867 LINE",
"8631 1928 OFFCURVE",
"8531 1940 OFFCURVE",
"8478 1940 CURVE SMOOTH",
"8463 1940 OFFCURVE",
"8443 1938 OFFCURVE",
"8420 1920 CURVE SMOOTH",
"8396 1902 OFFCURVE",
"8371 1868 OFFCURVE",
"8347 1811 CURVE",
"8368 1800 LINE",
"8383 1812 OFFCURVE",
"8402 1822 OFFCURVE",
"8433 1822 CURVE SMOOTH",
"8460 1822 OFFCURVE",
"8495 1816 OFFCURVE",
"8534 1808 CURVE SMOOTH",
"8573 1800 OFFCURVE",
"8610 1789 OFFCURVE",
"8638 1778 CURVE",
"8638 1773 LINE",
"8633 1767 OFFCURVE",
"8622 1760 OFFCURVE",
"8604 1752 CURVE",
"8586 1743 OFFCURVE",
"8564 1734 OFFCURVE",
"8537 1723 CURVE SMOOTH",
"8483 1701 OFFCURVE",
"8413 1679 OFFCURVE",
"8341 1660 CURVE",
"8345 1629 LINE",
"8363 1630 OFFCURVE",
"8383 1633 OFFCURVE",
"8406 1637 CURVE SMOOTH",
"8451 1644 OFFCURVE",
"8494 1651 OFFCURVE",
"8523 1657 CURVE SMOOTH",
"8538 1660 OFFCURVE",
"8547 1662 OFFCURVE",
"8550 1663 CURVE"
);
},
{
closed = 1;
nodes = (
"7404 914 OFFCURVE",
"7457 1122 OFFCURVE",
"7466 1294 CURVE SMOOTH",
"7488 1692 LINE SMOOTH",
"7491 1751 OFFCURVE",
"7495 1811 OFFCURVE",
"7498 1872 CURVE SMOOTH",
"7501 1933 OFFCURVE",
"7505 1991 OFFCURVE",
"7510 2045 CURVE SMOOTH",
"7520 2153 OFFCURVE",
"7530 2241 OFFCURVE",
"7549 2286 CURVE",
"7506 2302 LINE",
"7422 2118 OFFCURVE",
"7385 2007 OFFCURVE",
"7366 1926 CURVE SMOOTH",
"7346 1845 OFFCURVE",
"7340 1737 OFFCURVE",
"7335 1636 CURVE SMOOTH",
"7315 1127 LINE SMOOTH",
"7311 1038 OFFCURVE",
"7305 951 OFFCURVE",
"7298 883 CURVE SMOOTH",
"7290 815 OFFCURVE",
"7284 761 OFFCURVE",
"7279 740 CURVE",
"7324 729 LINE"
);
},
{
closed = 1;
nodes = (
"5616 912 OFFCURVE",
"5670 1120 OFFCURVE",
"5679 1292 CURVE SMOOTH",
"5701 1690 LINE SMOOTH",
"5704 1749 OFFCURVE",
"5708 1809 OFFCURVE",
"5711 1870 CURVE SMOOTH",
"5714 1931 OFFCURVE",
"5717 1989 OFFCURVE",
"5722 2043 CURVE SMOOTH",
"5731 2151 OFFCURVE",
"5742 2239 OFFCURVE",
"5762 2284 CURVE",
"5719 2300 LINE",
"5635 2116 OFFCURVE",
"5598 2005 OFFCURVE",
"5578 1924 CURVE SMOOTH",
"5559 1843 OFFCURVE",
"5552 1735 OFFCURVE",
"5548 1634 CURVE SMOOTH",
"5528 1125 LINE SMOOTH",
"5523 1036 OFFCURVE",
"5517 949 OFFCURVE",
"5510 881 CURVE SMOOTH",
"5502 813 OFFCURVE",
"5496 759 OFFCURVE",
"5492 738 CURVE",
"5537 727 LINE"
);
},
{
closed = 1;
nodes = (
"2326 -399 OFFCURVE",
"2359 -426 OFFCURVE",
"2392 -456 CURVE SMOOTH",
"2424 -486 OFFCURVE",
"2455 -516 OFFCURVE",
"2471 -533 CURVE",
"2489 -533 LINE",
"2533 -501 OFFCURVE",
"2575 -467 OFFCURVE",
"2607 -434 CURVE SMOOTH",
"2638 -401 OFFCURVE",
"2659 -367 OFFCURVE",
"2659 -338 CURVE SMOOTH",
"2659 -281 OFFCURVE",
"2605 -233 OFFCURVE",
"2498 -166 CURVE",
"2480 -166 LINE",
"2468 -173 OFFCURVE",
"2435 -204 OFFCURVE",
"2400 -243 CURVE SMOOTH",
"2365 -282 OFFCURVE",
"2326 -326 OFFCURVE",
"2302 -362 CURVE",
"2302 -380 LINE"
);
},
{
closed = 1;
nodes = (
"4363 1850 OFFCURVE",
"4383 1807 OFFCURVE",
"4439 1807 CURVE SMOOTH",
"4502 1807 OFFCURVE",
"4544 1854 OFFCURVE",
"4577 1933 CURVE",
"4589 1924 OFFCURVE",
"4611 1917 OFFCURVE",
"4628 1917 CURVE SMOOTH",
"4736 1917 OFFCURVE",
"4788 2016 OFFCURVE",
"4788 2140 CURVE SMOOTH",
"4788 2162 LINE",
"4752 2156 LINE",
"4745 2103 OFFCURVE",
"4735 2068 OFFCURVE",
"4723 2049 CURVE SMOOTH",
"4711 2030 OFFCURVE",
"4694 2021 OFFCURVE",
"4671 2021 CURVE SMOOTH",
"4650 2021 OFFCURVE",
"4621 2032 OFFCURVE",
"4606 2057 CURVE",
"4574 2052 LINE",
"4547 1947 OFFCURVE",
"4519 1912 OFFCURVE",
"4464 1912 CURVE SMOOTH",
"4433 1912 OFFCURVE",
"4416 1928 OFFCURVE",
"4408 1973 CURVE",
"4408 1982 LINE",
"4381 1978 LINE",
"4369 1954 OFFCURVE",
"4363 1926 OFFCURVE",
"4363 1894 CURVE SMOOTH"
);
},
{
closed = 1;
nodes = (
"3487 912 OFFCURVE",
"3539 1120 OFFCURVE",
"3550 1292 CURVE SMOOTH",
"3571 1690 LINE SMOOTH",
"3575 1749 OFFCURVE",
"3579 1809 OFFCURVE",
"3582 1870 CURVE SMOOTH",
"3585 1931 OFFCURVE",
"3588 1989 OFFCURVE",
"3593 2043 CURVE SMOOTH",
"3602 2151 OFFCURVE",
"3613 2239 OFFCURVE",
"3632 2284 CURVE",
"3589 2300 LINE",
"3505 2116 OFFCURVE",
"3468 2005 OFFCURVE",
"3449 1924 CURVE SMOOTH",
"3429 1843 OFFCURVE",
"3423 1735 OFFCURVE",
"3418 1634 CURVE SMOOTH",
"3398 1125 LINE SMOOTH",
"3394 1036 OFFCURVE",
"3388 949 OFFCURVE",
"3381 881 CURVE SMOOTH",
"3373 813 OFFCURVE",
"3367 759 OFFCURVE",
"3362 738 CURVE",
"3407 727 LINE"
);
},
{
closed = 1;
nodes = (
"791 -501 OFFCURVE",
"805 -512 OFFCURVE",
"821 -525 CURVE SMOOTH",
"852 -551 OFFCURVE",
"886 -583 OFFCURVE",
"915 -611 CURVE SMOOTH",
"929 -625 OFFCURVE",
"940 -636 OFFCURVE",
"949 -644 CURVE",
"967 -644 LINE",
"1036 -595 OFFCURVE",
"1100 -539 OFFCURVE",
"1127 -488 CURVE",
"1151 -508 OFFCURVE",
"1175 -529 OFFCURVE",
"1199 -552 CURVE SMOOTH",
"1223 -575 OFFCURVE",
"1242 -594 OFFCURVE",
"1256 -607 CURVE",
"1274 -607 LINE",
"1361 -544 OFFCURVE",
"1438 -468 OFFCURVE",
"1438 -412 CURVE SMOOTH",
"1438 -355 OFFCURVE",
"1383 -307 OFFCURVE",
"1278 -239 CURVE",
"1260 -239 LINE",
"1248 -247 OFFCURVE",
"1226 -268 OFFCURVE",
"1199 -296 CURVE SMOOTH",
"1172 -324 OFFCURVE",
"1141 -359 OFFCURVE",
"1114 -391 CURVE",
"1087 -356 OFFCURVE",
"1043 -321 OFFCURVE",
"976 -277 CURVE",
"958 -277 LINE",
"946 -285 OFFCURVE",
"913 -316 OFFCURVE",
"878 -354 CURVE SMOOTH",
"842 -392 OFFCURVE",
"803 -437 OFFCURVE",
"779 -473 CURVE",
"779 -491 LINE"
);
},
{
closed = 1;
nodes = (
"8813 -300 OFFCURVE",
"8773 -328 OFFCURVE",
"8753 -405 CURVE",
"8768 -416 LINE",
"8789 -392 OFFCURVE",
"8828 -369 OFFCURVE",
"8876 -342 CURVE SMOOTH",
"9160 -187 LINE SMOOTH",
"9208 -160 OFFCURVE",
"9245 -127 OFFCURVE",
"9274 -50 CURVE",
"9256 -40 LINE",
"9246 -47 OFFCURVE",
"9231 -56 OFFCURVE",
"9210 -68 CURVE SMOOTH",
"9189 -80 OFFCURVE",
"9170 -91 OFFCURVE",
"9153 -101 CURVE SMOOTH",
"9132 -113 OFFCURVE",
"9108 -126 OFFCURVE",
"9081 -140 CURVE SMOOTH",
"9028 -169 OFFCURVE",
"8971 -200 OFFCURVE",
"8926 -227 CURVE SMOOTH",
"8903 -241 OFFCURVE",
"8885 -252 OFFCURVE",
"8870 -261 CURVE"
);
},
{
closed = 1;
nodes = (
"7303 -800 OFFCURVE",
"7263 -829 OFFCURVE",
"7243 -905 CURVE",
"7258 -916 LINE",
"7279 -892 OFFCURVE",
"7318 -869 OFFCURVE",
"7366 -842 CURVE SMOOTH",
"7650 -688 LINE SMOOTH",
"7698 -661 OFFCURVE",
"7735 -627 OFFCURVE",
"7763 -551 CURVE",
"7745 -540 LINE",
"7736 -547 OFFCURVE",
"7721 -557 OFFCURVE",
"7700 -569 CURVE SMOOTH",
"7658 -593 OFFCURVE",
"7623 -612 OFFCURVE",
"7571 -640 CURVE SMOOTH",
"7518 -669 OFFCURVE",
"7461 -700 OFFCURVE",
"7416 -728 CURVE SMOOTH",
"7393 -742 OFFCURVE",
"7375 -753 OFFCURVE",
"7360 -761 CURVE"
);
},
{
closed = 1;
nodes = (
"2355 2008 OFFCURVE",
"2314 1979 OFFCURVE",
"2295 1903 CURVE",
"2309 1892 LINE",
"2332 1916 OFFCURVE",
"2369 1939 OFFCURVE",
"2417 1966 CURVE SMOOTH",
"2702 2120 LINE SMOOTH",
"2750 2147 OFFCURVE",
"2787 2181 OFFCURVE",
"2815 2257 CURVE",
"2797 2268 LINE",
"2788 2261 OFFCURVE",
"2773 2251 OFFCURVE",
"2752 2239 CURVE SMOOTH",
"2710 2215 OFFCURVE",
"2675 2196 OFFCURVE",
"2623 2168 CURVE SMOOTH",
"2570 2139 OFFCURVE",
"2513 2108 OFFCURVE",
"2468 2080 CURVE SMOOTH",
"2445 2066 OFFCURVE",
"2427 2055 OFFCURVE",
"2412 2047 CURVE"
);
},
{
closed = 1;
nodes = (
"2986 1128 OFFCURVE",
"2979 1051 OFFCURVE",
"2970 1003 CURVE SMOOTH",
"2958 940 OFFCURVE",
"2941 888 OFFCURVE",
"2885 848 CURVE",
"2865 832 OFFCURVE",
"2843 818 OFFCURVE",
"2819 806 CURVE SMOOTH",
"2795 793 OFFCURVE",
"2767 778 OFFCURVE",
"2736 761 CURVE",
"2685 736 OFFCURVE",
"2651 708 OFFCURVE",
"2616 664 CURVE SMOOTH",
"2581 619 OFFCURVE",
"2547 560 OFFCURVE",
"2502 473 CURVE SMOOTH",
"2450 376 LINE SMOOTH",
"2409 300 OFFCURVE",
"2380 275 OFFCURVE",
"2335 236 CURVE",
"2272 188 OFFCURVE",
"2186 132 OFFCURVE",
"2098 81 CURVE SMOOTH",
"2010 30 OFFCURVE",
"1921 -19 OFFCURVE",
"1854 -52 CURVE",
"1858 -99 LINE",
"1895 -95 LINE",
"1775 -355 OFFCURVE",
"1717 -590 OFFCURVE",
"1717 -866 CURVE SMOOTH",
"1717 -1010 OFFCURVE",
"1763 -1142 OFFCURVE",
"1849 -1237 CURVE SMOOTH",
"1935 -1333 OFFCURVE",
"2063 -1391 OFFCURVE",
"2234 -1391 CURVE SMOOTH",
"2471 -1391 OFFCURVE",
"2663 -1282 OFFCURVE",
"2810 -1113 CURVE SMOOTH",
"2957 -944 OFFCURVE",
"3059 -716 OFFCURVE",
"3119 -479 CURVE SMOOTH",
"3160 -315 OFFCURVE",
"3181 -166 OFFCURVE",
"3186 -5 CURVE",
"3195 -5 LINE SMOOTH",
"3260 -5 OFFCURVE",
"3313 12 OFFCURVE",
"3363 45 CURVE SMOOTH",
"3413 78 OFFCURVE",
"3463 128 OFFCURVE",
"3524 193 CURVE SMOOTH",
"3565 235 OFFCURVE",
"3599 268 OFFCURVE",
"3624 291 CURVE SMOOTH",
"3649 314 OFFCURVE",
"3669 332 OFFCURVE",
"3684 343 CURVE SMOOTH",
"3714 366 OFFCURVE",
"3728 367 OFFCURVE",
"3748 367 CURVE SMOOTH",
"3784 367 OFFCURVE",
"3809 360 OFFCURVE",
"3857 333 CURVE",
"3890 316 OFFCURVE",
"3914 308 OFFCURVE",
"3931 308 CURVE SMOOTH",
"3975 308 OFFCURVE",
"4019 350 OFFCURVE",
"4051 400 CURVE SMOOTH",
"4083 450 OFFCURVE",
"4106 509 OFFCURVE",
"4106 544 CURVE SMOOTH",
"4106 556 OFFCURVE",
"4104 567 OFFCURVE",
"4100 576 CURVE",
"4091 594 OFFCURVE",
"4072 610 OFFCURVE",
"4041 627 CURVE SMOOTH",
"4026 635 OFFCURVE",
"4007 645 OFFCURVE",
"3985 657 CURVE",
"3955 672 OFFCURVE",
"3940 690 OFFCURVE",
"3940 711 CURVE SMOOTH",
"3940 718 OFFCURVE",
"3941 735 OFFCURVE",
"3953 754 CURVE SMOOTH",
"3972 785 OFFCURVE",
"4019 821 OFFCURVE",
"4092 862 CURVE SMOOTH",
"4165 903 OFFCURVE",
"4259 949 OFFCURVE",
"4376 1001 CURVE SMOOTH",
"4467 1041 OFFCURVE",
"4535 1073 OFFCURVE",
"4604 1120 CURVE",
"4669 1160 OFFCURVE",
"4737 1237 OFFCURVE",
"4781 1321 CURVE",
"4779 1336 LINE",
"4746 1360 OFFCURVE",
"4672 1387 OFFCURVE",
"4587 1411 CURVE SMOOTH",
"4502 1435 OFFCURVE",
"4406 1454 OFFCURVE",
"4334 1462 CURVE",
"4315 1463 OFFCURVE",
"4294 1465 OFFCURVE",
"4273 1465 CURVE SMOOTH",
"4108 1465 OFFCURVE",
"3997 1361 OFFCURVE",
"3913 1192 CURVE",
"3962 1170 LINE",
"4025 1247 OFFCURVE",
"4087 1264 OFFCURVE",
"4171 1264 CURVE SMOOTH",
"4220 1264 OFFCURVE",
"4290 1258 OFFCURVE",
"4360 1247 CURVE SMOOTH",
"4430 1235 OFFCURVE",
"4501 1218 OFFCURVE",
"4550 1197 CURVE",
"4325 1100 LINE SMOOTH",
"4229 1059 OFFCURVE",
"4138 1016 OFFCURVE",
"4055 957 CURVE SMOOTH",
"3971 898 OFFCURVE",
"3901 823 OFFCURVE",
"3848 716 CURVE SMOOTH",
"3835 691 OFFCURVE",
"3820 651 OFFCURVE",
"3812 619 CURVE",
"3791 606 OFFCURVE",
"3767 584 OFFCURVE",
"3741 554 CURVE SMOOTH",
"3714 523 OFFCURVE",
"3679 479 OFFCURVE",
"3636 421 CURVE SMOOTH",
"3528 280 OFFCURVE",
"3383 212 OFFCURVE",
"3263 212 CURVE SMOOTH",
"3230 212 OFFCURVE",
"3174 218 OFFCURVE",
"3134 225 CURVE",
"3101 214 LINE",
"3101 63 OFFCURVE",
"3098 -50 OFFCURVE",
"3089 -153 CURVE SMOOTH",
"3080 -256 OFFCURVE",
"3063 -349 OFFCURVE",
"3031 -464 CURVE SMOOTH",
"3004 -560 OFFCURVE",
"2948 -700 OFFCURVE",
"2837 -816 CURVE SMOOTH",
"2726 -933 OFFCURVE",
"2565 -1024 OFFCURVE",
"2333 -1024 CURVE SMOOTH",
"2033 -1024 OFFCURVE",
"1854 -874 OFFCURVE",
"1854 -563 CURVE SMOOTH",
"1854 -436 OFFCURVE",
"1883 -289 OFFCURVE",
"1967 -88 CURVE",
"2032 -81 OFFCURVE",
"2097 -73 OFFCURVE",
"2154 -62 CURVE SMOOTH",
"2210 -51 OFFCURVE",
"2257 -38 OFFCURVE",
"2286 -23 CURVE",
"2322 8 OFFCURVE",
"2353 39 OFFCURVE",
"2383 79 CURVE SMOOTH",
"2413 118 OFFCURVE",
"2440 164 OFFCURVE",
"2473 227 CURVE SMOOTH",
"2545 364 LINE SMOOTH",
"2558 390 OFFCURVE",
"2574 414 OFFCURVE",
"2591 435 CURVE SMOOTH",
"2626 477 OFFCURVE",
"2686 511 OFFCURVE",
"2724 536 CURVE SMOOTH",
"2743 548 OFFCURVE",
"2764 561 OFFCURVE",
"2788 574 CURVE",
"2821 594 OFFCURVE",
"2847 612 OFFCURVE",
"2880 639 CURVE SMOOTH",
"2928 680 OFFCURVE",
"2965 734 OFFCURVE",
"2993 794 CURVE",
"3010 827 OFFCURVE",
"3027 876 OFFCURVE",
"3042 927 CURVE SMOOTH",
"3057 978 OFFCURVE",
"3069 1030 OFFCURVE",
"3076 1071 CURVE SMOOTH",
"3088 1136 OFFCURVE",
"3106 1227 OFFCURVE",
"3120 1331 CURVE SMOOTH",
"3134 1434 OFFCURVE",
"3145 1548 OFFCURVE",
"3148 1656 CURVE SMOOTH",
"3157 1998 LINE SMOOTH",
"3162 2118 OFFCURVE",
"3170 2214 OFFCURVE",
"3182 2266 CURVE",
"3139 2282 LINE",
"3119 2237 OFFCURVE",
"3103 2197 OFFCURVE",
"3090 2164 CURVE SMOOTH",
"3065 2096 OFFCURVE",
"3049 2045 OFFCURVE",
"3039 2002 CURVE SMOOTH",
"3034 1980 OFFCURVE",
"3029 1959 OFFCURVE",
"3024 1939 CURVE SMOOTH",
"3005 1856 OFFCURVE",
"2996 1778 OFFCURVE",
"2993 1678 CURVE SMOOTH",
"2986 1179 LINE SMOOTH"
);
},
{
closed = 1;
nodes = (
"1097 -1478 OFFCURVE",
"1122 -1374 OFFCURVE",
"1127 -1287 CURVE SMOOTH",
"1132 -1204 LINE SMOOTH",
"1135 -1144 OFFCURVE",
"1138 -1082 OFFCURVE",
"1143 -1028 CURVE SMOOTH",
"1148 -974 OFFCURVE",
"1154 -928 OFFCURVE",
"1163 -907 CURVE",
"1141 -900 LINE",
"1098 -984 OFFCURVE",
"1080 -1047 OFFCURVE",
"1071 -1087 CURVE",
"1059 -1128 OFFCURVE",
"1058 -1182 OFFCURVE",
"1057 -1233 CURVE SMOOTH",
"1051 -1370 LINE SMOOTH",
"1047 -1461 OFFCURVE",
"1038 -1540 OFFCURVE",
"1033 -1564 CURVE",
"1057 -1570 LINE"
);
}
);
width = 9459;
}
);
note = uniFDFD;
unicode = FDFD;
},
{
glyphname = uniFDFA;
lastChange = "2016-12-06 15:22:26 +0000";
layers = (
{
layerId = "B831CC2C-6991-4D3A-BB51-B9DC9D9CB4BD";
paths = (
{
closed = 1;
nodes = (
"2509 1446 OFFCURVE",
"2490 1402 OFFCURVE",
"2474 1353 CURVE SMOOTH",
"2458 1304 OFFCURVE",
"2448 1250 OFFCURVE",
"2448 1201 CURVE SMOOTH",
"2448 1094 OFFCURVE",
"2541 1040 OFFCURVE",
"2657 1013 CURVE SMOOTH",
"2720 1000 OFFCURVE",
"2788 989 OFFCURVE",
"2853 986 CURVE SMOOTH",
"2918 982 OFFCURVE",
"2977 981 OFFCURVE",
"3020 981 CURVE SMOOTH",
"3116 981 OFFCURVE",
"3218 985 OFFCURVE",
"3306 990 CURVE SMOOTH",
"3393 995 OFFCURVE",
"3467 1000 OFFCURVE",
"3512 1004 CURVE SMOOTH",
"3588 1009 OFFCURVE",
"3735 1025 OFFCURVE",
"3914 1049 CURVE SMOOTH",
"4093 1072 OFFCURVE",
"4307 1103 OFFCURVE",
"4518 1140 CURVE SMOOTH",
"4729 1177 OFFCURVE",
"4940 1222 OFFCURVE",
"5116 1273 CURVE",
"5114 1319 LINE",
"5003 1331 OFFCURVE",
"4835 1341 OFFCURVE",
"4626 1341 CURVE SMOOTH",
"4451 1341 OFFCURVE",
"4252 1337 OFFCURVE",
"4036 1318 CURVE SMOOTH",
"3595 1283 LINE SMOOTH",
"3452 1271 OFFCURVE",
"3299 1265 OFFCURVE",
"3155 1265 CURVE SMOOTH",
"2987 1265 OFFCURVE",
"2815 1273 OFFCURVE",
"2716 1300 CURVE SMOOTH",
"2632 1321 OFFCURVE",
"2603 1351 OFFCURVE",
"2603 1391 CURVE SMOOTH",
"2603 1406 OFFCURVE",
"2611 1430 OFFCURVE",
"2615 1442 CURVE",
"2659 1521 OFFCURVE",
"2737 1575 OFFCURVE",
"2840 1631 CURVE",
"2857 1639 OFFCURVE",
"2873 1647 OFFCURVE",
"2886 1654 CURVE SMOOTH",
"2899 1661 OFFCURVE",
"2912 1668 OFFCURVE",
"2925 1675 CURVE",
"2952 1688 OFFCURVE",
"2977 1702 OFFCURVE",
"3013 1715 CURVE",
"3081 1744 OFFCURVE",
"3138 1772 OFFCURVE",
"3186 1805 CURVE SMOOTH",
"3234 1837 OFFCURVE",
"3273 1876 OFFCURVE",
"3301 1931 CURVE",
"3309 1835 OFFCURVE",
"3325 1749 OFFCURVE",
"3366 1687 CURVE SMOOTH",
"3407 1625 OFFCURVE",
"3469 1586 OFFCURVE",
"3562 1586 CURVE SMOOTH",
"3631 1586 OFFCURVE",
"3684 1616 OFFCURVE",
"3730 1661 CURVE SMOOTH",
"3776 1705 OFFCURVE",
"3813 1766 OFFCURVE",
"3854 1831 CURVE SMOOTH",
"3882 1874 OFFCURVE",
"3898 1900 OFFCURVE",
"3913 1914 CURVE SMOOTH",
"3928 1928 OFFCURVE",
"3937 1931 OFFCURVE",
"3949 1931 CURVE SMOOTH",
"3969 1931 OFFCURVE",
"3985 1923 OFFCURVE",
"4010 1906 CURVE",
"4097 1854 OFFCURVE",
"4174 1834 OFFCURVE",
"4261 1834 CURVE SMOOTH",
"4345 1834 OFFCURVE",
"4412 1850 OFFCURVE",
"4496 1883 CURVE SMOOTH",
"4604 1926 OFFCURVE",
"4685 1985 OFFCURVE",
"4747 2046 CURVE SMOOTH",
"4809 2107 OFFCURVE",
"4853 2173 OFFCURVE",
"4889 2230 CURVE SMOOTH",
"4944 2314 OFFCURVE",
"4999 2418 OFFCURVE",
"4999 2529 CURVE SMOOTH",
"4999 2606 OFFCURVE",
"4943 2660 OFFCURVE",
"4844 2660 CURVE SMOOTH",
"4779 2660 OFFCURVE",
"4706 2644 OFFCURVE",
"4622 2596 CURVE SMOOTH",
"4538 2548 OFFCURVE",
"4445 2468 OFFCURVE",
"4334 2344 CURVE",
"4321 2328 OFFCURVE",
"4306 2309 OFFCURVE",
"4288 2288 CURVE SMOOTH",
"4270 2266 OFFCURVE",
"4252 2244 OFFCURVE",
"4234 2222 CURVE SMOOTH",
"4198 2178 OFFCURVE",
"4161 2131 OFFCURVE",
"4140 2102 CURVE",
"4125 2107 OFFCURVE",
"4106 2115 OFFCURVE",
"4081 2126 CURVE SMOOTH",
"4064 2133 OFFCURVE",
"4039 2142 OFFCURVE",
"4018 2142 CURVE SMOOTH",
"3982 2142 OFFCURVE",
"3960 2131 OFFCURVE",
"3931 2095 CURVE SMOOTH",
"3861 2003 LINE SMOOTH",
"3818 1948 OFFCURVE",
"3758 1910 OFFCURVE",
"3665 1910 CURVE SMOOTH",
"3564 1910 OFFCURVE",
"3511 1961 OFFCURVE",
"3480 2044 CURVE SMOOTH",
"3448 2127 OFFCURVE",
"3443 2243 OFFCURVE",
"3443 2378 CURVE SMOOTH",
"3443 2613 OFFCURVE",
"3449 2789 OFFCURVE",
"3461 2921 CURVE SMOOTH",
"3472 3053 OFFCURVE",
"3482 3143 OFFCURVE",
"3494 3200 CURVE",
"3452 3213 LINE",
"3409 3114 OFFCURVE",
"3385 3035 OFFCURVE",
"3367 2957 CURVE SMOOTH",
"3349 2879 OFFCURVE",
"3341 2804 OFFCURVE",
"3334 2720 CURVE SMOOTH",
"3333 2709 OFFCURVE",
"3331 2688 OFFCURVE",
"3329 2656 CURVE SMOOTH",
"3327 2624 OFFCURVE",
"3325 2587 OFFCURVE",
"3322 2545 CURVE SMOOTH",
"3316 2461 OFFCURVE",
"3311 2357 OFFCURVE",
"3307 2268 CURVE SMOOTH",
"3302 2187 OFFCURVE",
"3298 2126 OFFCURVE",
"3298 2074 CURVE",
"3293 2050 OFFCURVE",
"3281 2029 OFFCURVE",
"3246 2004 CURVE SMOOTH",
"3211 1979 OFFCURVE",
"3151 1948 OFFCURVE",
"3046 1904 CURVE SMOOTH",
"3006 1887 OFFCURVE",
"2966 1868 OFFCURVE",
"2927 1846 CURVE SMOOTH",
"2847 1802 OFFCURVE",
"2772 1751 OFFCURVE",
"2708 1695 CURVE SMOOTH",
"2644 1638 OFFCURVE",
"2607 1590 OFFCURVE",
"2575 1551 CURVE SMOOTH",
"2559 1531 OFFCURVE",
"2542 1505 OFFCURVE",
"2525 1474 CURVE SMOOTH"
);
},
{
closed = 1;
nodes = (
"4471 2085 OFFCURVE",
"4394 2066 OFFCURVE",
"4293 2066 CURVE SMOOTH",
"4276 2066 OFFCURVE",
"4248 2071 OFFCURVE",
"4228 2075 CURVE",
"4261 2122 OFFCURVE",
"4289 2158 OFFCURVE",
"4324 2194 CURVE",
"4396 2275 OFFCURVE",
"4457 2327 OFFCURVE",
"4514 2358 CURVE SMOOTH",
"4570 2389 OFFCURVE",
"4622 2399 OFFCURVE",
"4675 2399 CURVE SMOOTH",
"4699 2399 OFFCURVE",
"4734 2393 OFFCURVE",
"4763 2381 CURVE",
"4791 2368 OFFCURVE",
"4815 2344 OFFCURVE",
"4815 2311 CURVE SMOOTH",
"4815 2263 OFFCURVE",
"4765 2218 OFFCURVE",
"4705 2181 CURVE SMOOTH",
"4645 2144 OFFCURVE",
"4573 2116 OFFCURVE",
"4532 2104 CURVE SMOOTH"
);
},
{
closed = 1;
nodes = (
"4488 -190 OFFCURVE",
"4450 -237 OFFCURVE",
"4419 -288 CURVE SMOOTH",
"4388 -339 OFFCURVE",
"4360 -393 OFFCURVE",
"4351 -441 CURVE",
"4291 -414 OFFCURVE",
"4258 -356 OFFCURVE",
"4240 -278 CURVE SMOOTH",
"4222 -200 OFFCURVE",
"4217 -100 OFFCURVE",
"4217 11 CURVE SMOOTH",
"4217 246 OFFCURVE",
"4223 422 OFFCURVE",
"4235 554 CURVE SMOOTH",
"4246 686 OFFCURVE",
"4256 776 OFFCURVE",
"4268 833 CURVE",
"4226 846 LINE",
"4183 747 OFFCURVE",
"4159 668 OFFCURVE",
"4141 590 CURVE SMOOTH",
"4123 512 OFFCURVE",
"4115 437 OFFCURVE",
"4108 353 CURVE SMOOTH",
"4107 342 OFFCURVE",
"4105 321 OFFCURVE",
"4103 289 CURVE SMOOTH",
"4101 257 OFFCURVE",
"4099 220 OFFCURVE",
"4096 178 CURVE SMOOTH",
"4090 94 OFFCURVE",
"4085 -10 OFFCURVE",
"4081 -99 CURVE SMOOTH",
"4078 -154 OFFCURVE",
"4074 -222 OFFCURVE",
"4070 -285 CURVE SMOOTH",
"4065 -349 OFFCURVE",
"4061 -404 OFFCURVE",
"4054 -436 CURVE SMOOTH",
"4019 -599 OFFCURVE",
"3953 -713 OFFCURVE",
"3836 -713 CURVE SMOOTH",
"3800 -713 OFFCURVE",
"3776 -703 OFFCURVE",
"3749 -691 CURVE",
"3725 -679 OFFCURVE",
"3697 -671 OFFCURVE",
"3676 -671 CURVE SMOOTH",
"3640 -671 OFFCURVE",
"3618 -685 OFFCURVE",
"3591 -724 CURVE SMOOTH",
"3574 -748 OFFCURVE",
"3556 -773 OFFCURVE",
"3524 -812 CURVE SMOOTH",
"3481 -867 OFFCURVE",
"3440 -900 OFFCURVE",
"3344 -900 CURVE SMOOTH",
"3311 -900 OFFCURVE",
"3270 -894 OFFCURVE",
"3242 -889 CURVE SMOOTH",
"3207 -882 OFFCURVE",
"3172 -878 OFFCURVE",
"3137 -878 CURVE SMOOTH",
"2980 -878 OFFCURVE",
"2823 -1004 OFFCURVE",
"2698 -1323 CURVE",
"2740 -1343 LINE",
"2783 -1283 OFFCURVE",
"2819 -1244 OFFCURVE",
"2856 -1220 CURVE SMOOTH",
"2893 -1196 OFFCURVE",
"2930 -1188 OFFCURVE",
"2974 -1188 CURVE SMOOTH",
"2999 -1188 OFFCURVE",
"3041 -1199 OFFCURVE",
"3074 -1208 CURVE SMOOTH",
"3109 -1217 OFFCURVE",
"3137 -1224 OFFCURVE",
"3170 -1224 CURVE SMOOTH",
"3218 -1224 OFFCURVE",
"3266 -1217 OFFCURVE",
"3314 -1192 CURVE SMOOTH",
"3393 -1151 OFFCURVE",
"3455 -1069 OFFCURVE",
"3515 -985 CURVE",
"3544 -941 OFFCURVE",
"3561 -917 OFFCURVE",
"3573 -902 CURVE SMOOTH",
"3585 -887 OFFCURVE",
"3592 -882 OFFCURVE",
"3607 -882 CURVE SMOOTH",
"3622 -882 OFFCURVE",
"3636 -889 OFFCURVE",
"3663 -904 CURVE",
"3696 -920 OFFCURVE",
"3719 -931 OFFCURVE",
"3767 -931 CURVE SMOOTH",
"3839 -931 OFFCURVE",
"3905 -909 OFFCURVE",
"3962 -856 CURVE SMOOTH",
"4019 -804 OFFCURVE",
"4067 -720 OFFCURVE",
"4106 -596 CURVE",
"4139 -707 OFFCURVE",
"4204 -781 OFFCURVE",
"4336 -781 CURVE SMOOTH",
"4504 -781 OFFCURVE",
"4667 -711 OFFCURVE",
"4799 -609 CURVE SMOOTH",
"4931 -507 OFFCURVE",
"5033 -373 OFFCURVE",
"5081 -241 CURVE",
"5044 -220 LINE",
"4972 -325 OFFCURVE",
"4882 -388 OFFCURVE",
"4759 -421 CURVE",
"4750 -421 LINE SMOOTH",
"4711 -421 OFFCURVE",
"4669 -410 OFFCURVE",
"4634 -389 CURVE SMOOTH",
"4599 -368 OFFCURVE",
"4576 -332 OFFCURVE",
"4576 -281 CURVE SMOOTH",
"4576 -240 OFFCURVE",
"4597 -197 OFFCURVE",
"4633 -166 CURVE SMOOTH",
"4681 -125 OFFCURVE",
"4743 -104 OFFCURVE",
"4806 -104 CURVE SMOOTH",
"4854 -104 OFFCURVE",
"4901 -118 OFFCURVE",
"4937 -151 CURVE",
"4955 -153 LINE",
"4999 -129 OFFCURVE",
"5013 -76 OFFCURVE",
"5013 -40 CURVE SMOOTH",
"5013 1 OFFCURVE",
"4995 31 OFFCURVE",
"4968 51 CURVE SMOOTH",
"4941 70 OFFCURVE",
"4906 79 OFFCURVE",
"4873 79 CURVE SMOOTH",
"4802 79 OFFCURVE",
"4744 52 OFFCURVE",
"4686 10 CURVE SMOOTH",
"4628 -32 OFFCURVE",
"4573 -92 OFFCURVE",
"4516 -157 CURVE SMOOTH"
);
},
{
closed = 1;
nodes = (
"1598 148 OFFCURVE",
"1590 113 OFFCURVE",
"1576 88 CURVE SMOOTH",
"1548 37 OFFCURVE",
"1516 10 OFFCURVE",
"1473 -21 CURVE SMOOTH",
"1429 -53 OFFCURVE",
"1381 -87 OFFCURVE",
"1337 -115 CURVE SMOOTH",
"1314 -130 OFFCURVE",
"1295 -142 OFFCURVE",
"1280 -153 CURVE",
"1205 -204 OFFCURVE",
"1168 -238 OFFCURVE",
"1120 -293 CURVE SMOOTH",
"1085 -334 OFFCURVE",
"1054 -369 OFFCURVE",
"1021 -432 CURVE",
"1009 -451 OFFCURVE",
"992 -488 OFFCURVE",
"976 -525 CURVE SMOOTH",
"959 -562 OFFCURVE",
"945 -600 OFFCURVE",
"938 -619 CURVE",
"779 -696 OFFCURVE",
"665 -768 OFFCURVE",
"571 -856 CURVE SMOOTH",
"477 -944 OFFCURVE",
"407 -1050 OFFCURVE",
"335 -1199 CURVE SMOOTH",
"258 -1359 OFFCURVE",
"219 -1547 OFFCURVE",
"200 -1752 CURVE SMOOTH",
"180 -1957 OFFCURVE",
"180 -2182 OFFCURVE",
"180 -2417 CURVE SMOOTH",
"180 -2552 OFFCURVE",
"181 -2702 OFFCURVE",
"185 -2831 CURVE",
"257 -2831 LINE",
"268 -2726 OFFCURVE",
"277 -2565 OFFCURVE",
"286 -2399 CURVE SMOOTH",
"294 -2233 OFFCURVE",
"304 -2063 OFFCURVE",
"313 -1940 CURVE SMOOTH",
"333 -1669 OFFCURVE",
"351 -1515 OFFCURVE",
"371 -1414 CURVE SMOOTH",
"390 -1314 OFFCURVE",
"414 -1265 OFFCURVE",
"443 -1208 CURVE SMOOTH",
"503 -1085 OFFCURVE",
"623 -1005 OFFCURVE",
"758 -946 CURVE SMOOTH",
"893 -887 OFFCURVE",
"1046 -854 OFFCURVE",
"1175 -830 CURVE SMOOTH",
"1214 -822 OFFCURVE",
"1228 -814 OFFCURVE",
"1240 -806 CURVE SMOOTH",
"1285 -778 OFFCURVE",
"1334 -707 OFFCURVE",
"1370 -635 CURVE SMOOTH",
"1406 -563 OFFCURVE",
"1431 -491 OFFCURVE",
"1431 -452 CURVE SMOOTH",
"1431 -418 OFFCURVE",
"1405 -390 OFFCURVE",
"1352 -369 CURVE SMOOTH",
"1311 -352 OFFCURVE",
"1268 -340 OFFCURVE",
"1228 -329 CURVE",
"1251 -312 OFFCURVE",
"1275 -296 OFFCURVE",
"1301 -279 CURVE SMOOTH",
"1456 -183 OFFCURVE",
"1542 -123 OFFCURVE",
"1593 -34 CURVE",
"1596 -147 OFFCURVE",
"1608 -251 OFFCURVE",
"1648 -327 CURVE SMOOTH",
"1688 -404 OFFCURVE",
"1751 -454 OFFCURVE",
"1858 -454 CURVE SMOOTH",
"1927 -454 OFFCURVE",
"1980 -423 OFFCURVE",
"2025 -379 CURVE SMOOTH",
"2070 -335 OFFCURVE",
"2109 -273 OFFCURVE",
"2149 -209 CURVE SMOOTH",
"2178 -165 OFFCURVE",
"2195 -141 OFFCURVE",
"2209 -126 CURVE SMOOTH",
"2223 -111 OFFCURVE",
"2233 -108 OFFCURVE",
"2245 -108 CURVE SMOOTH",
"2258 -108 OFFCURVE",
"2275 -115 OFFCURVE",
"2300 -130 CURVE",
"2335 -146 OFFCURVE",
"2357 -157 OFFCURVE",
"2405 -157 CURVE SMOOTH",
"2479 -157 OFFCURVE",
"2546 -107 OFFCURVE",
"2606 -7 CURVE",
"2631 -14 OFFCURVE",
"2655 -18 OFFCURVE",
"2678 -18 CURVE SMOOTH",
"2761 -18 OFFCURVE",
"2827 27 OFFCURVE",
"2876 99 CURVE SMOOTH",
"2924 171 OFFCURVE",
"2959 266 OFFCURVE",
"2983 373 CURVE",
"2923 385 LINE",
"2911 346 OFFCURVE",
"2897 302 OFFCURVE",
"2874 267 CURVE SMOOTH",
"2851 232 OFFCURVE",
"2820 207 OFFCURVE",
"2779 207 CURVE SMOOTH",
"2751 207 OFFCURVE",
"2724 211 OFFCURVE",
"2684 230 CURVE",
"2664 225 LINE",
"2628 162 OFFCURVE",
"2599 121 OFFCURVE",
"2571 96 CURVE SMOOTH",
"2542 71 OFFCURVE",
"2512 61 OFFCURVE",
"2473 61 CURVE SMOOTH",
"2437 61 OFFCURVE",
"2414 71 OFFCURVE",
"2387 83 CURVE",
"2363 95 OFFCURVE",
"2334 103 OFFCURVE",
"2313 103 CURVE SMOOTH",
"2277 103 OFFCURVE",
"2255 92 OFFCURVE",
"2227 56 CURVE SMOOTH",
"2156 -36 LINE SMOOTH",
"2113 -91 OFFCURVE",
"2053 -130 OFFCURVE",
"1960 -130 CURVE SMOOTH",
"1860 -130 OFFCURVE",
"1806 -79 OFFCURVE",
"1775 5 CURVE SMOOTH",
"1743 88 OFFCURVE",
"1739 205 OFFCURVE",
"1739 338 CURVE SMOOTH",
"1739 574 OFFCURVE",
"1745 750 OFFCURVE",
"1756 882 CURVE SMOOTH",
"1767 1014 OFFCURVE",
"1777 1104 OFFCURVE",
"1789 1161 CURVE",
"1748 1174 LINE",
"1704 1075 OFFCURVE",
"1681 996 OFFCURVE",
"1663 918 CURVE SMOOTH",
"1645 840 OFFCURVE",
"1636 764 OFFCURVE",
"1629 680 CURVE SMOOTH",
"1628 669 OFFCURVE",
"1626 649 OFFCURVE",
"1625 619 CURVE SMOOTH",
"1623 589 OFFCURVE",
"1621 557 OFFCURVE",
"1619 523 CURVE SMOOTH",
"1614 455 OFFCURVE",
"1609 386 OFFCURVE",
"1609 362 CURVE",
"1600 191 LINE SMOOTH"
);
},
{
closed = 1;
nodes = (
"2266 1826 OFFCURVE",
"2320 2034 OFFCURVE",
"2329 2207 CURVE SMOOTH",
"2351 2605 LINE SMOOTH",
"2354 2664 OFFCURVE",
"2358 2724 OFFCURVE",
"2361 2785 CURVE SMOOTH",
"2364 2846 OFFCURVE",
"2368 2903 OFFCURVE",
"2373 2957 CURVE SMOOTH",
"2383 3065 OFFCURVE",
"2393 3152 OFFCURVE",
"2412 3199 CURVE",
"2369 3215 LINE",
"2285 3030 OFFCURVE",
"2248 2920 OFFCURVE",
"2228 2839 CURVE SMOOTH",
"2209 2756 OFFCURVE",
"2202 2649 OFFCURVE",
"2198 2549 CURVE SMOOTH",
"2178 2039 LINE SMOOTH",
"2173 1951 OFFCURVE",
"2167 1864 OFFCURVE",
"2160 1796 CURVE SMOOTH",
"2153 1727 OFFCURVE",
"2147 1675 OFFCURVE",
"2142 1652 CURVE",
"2187 1642 LINE"
);
},
{
closed = 1;
nodes = (
"1487 1660 OFFCURVE",
"1440 1733 OFFCURVE",
"1440 1849 CURVE SMOOTH",
"1440 1856 OFFCURVE",
"1440 1862 OFFCURVE",
"1440 1868 CURVE SMOOTH",
"1440 1874 OFFCURVE",
"1441 1881 OFFCURVE",
"1442 1890 CURVE",
"1393 1897 LINE",
"1338 1686 OFFCURVE",
"1250 1591 OFFCURVE",
"1118 1591 CURVE SMOOTH",
"1025 1591 OFFCURVE",
"961 1650 OFFCURVE",
"961 1766 CURVE SMOOTH",
"961 1786 OFFCURVE",
"963 1807 OFFCURVE",
"967 1829 CURVE",
"932 1841 LINE",
"904 1805 OFFCURVE",
"849 1742 OFFCURVE",
"781 1667 CURVE SMOOTH",
"712 1592 OFFCURVE",
"632 1505 OFFCURVE",
"554 1424 CURVE SMOOTH",
"476 1343 OFFCURVE",
"399 1267 OFFCURVE",
"342 1211 CURVE",
"374 1177 LINE",
"433 1216 OFFCURVE",
"501 1269 OFFCURVE",
"571 1323 CURVE SMOOTH",
"641 1377 OFFCURVE",
"706 1432 OFFCURVE",
"761 1480 CURVE",
"785 1349 OFFCURVE",
"876 1267 OFFCURVE",
"1037 1267 CURVE SMOOTH",
"1173 1267 OFFCURVE",
"1270 1340 OFFCURVE",
"1321 1424 CURVE",
"1366 1355 OFFCURVE",
"1432 1336 OFFCURVE",
"1501 1336 CURVE SMOOTH",
"1626 1336 OFFCURVE",
"1726 1430 OFFCURVE",
"1789 1550 CURVE SMOOTH",
"1833 1634 OFFCURVE",
"1859 1717 OFFCURVE",
"1875 1816 CURVE SMOOTH",
"1890 1915 OFFCURVE",
"1899 2025 OFFCURVE",
"1908 2162 CURVE SMOOTH",
"1913 2253 OFFCURVE",
"1921 2312 OFFCURVE",
"1933 2360 CURVE",
"1894 2376 LINE",
"1802 2217 OFFCURVE",
"1775 2084 OFFCURVE",
"1775 1976 CURVE SMOOTH",
"1775 1970 OFFCURVE",
"1775 1961 OFFCURVE",
"1775 1948 CURVE SMOOTH",
"1775 1935 OFFCURVE",
"1775 1920 OFFCURVE",
"1774 1904 CURVE SMOOTH",
"1773 1887 OFFCURVE",
"1773 1871 OFFCURVE",
"1772 1854 CURVE SMOOTH",
"1771 1837 OFFCURVE",
"1770 1823 OFFCURVE",
"1769 1811 CURVE",
"1757 1724 OFFCURVE",
"1695 1660 OFFCURVE",
"1595 1660 CURVE SMOOTH"
);
},
{
closed = 1;
nodes = (
"1177 2252 OFFCURVE",
"1197 2209 OFFCURVE",
"1253 2209 CURVE SMOOTH",
"1316 2209 OFFCURVE",
"1358 2255 OFFCURVE",
"1391 2335 CURVE",
"1403 2324 OFFCURVE",
"1425 2318 OFFCURVE",
"1442 2318 CURVE SMOOTH",
"1550 2318 OFFCURVE",
"1602 2417 OFFCURVE",
"1602 2542 CURVE SMOOTH",
"1602 2563 LINE",
"1566 2558 LINE",
"1559 2505 OFFCURVE",
"1549 2470 OFFCURVE",
"1537 2451 CURVE SMOOTH",
"1525 2432 OFFCURVE",
"1508 2423 OFFCURVE",
"1485 2423 CURVE SMOOTH",
"1464 2423 OFFCURVE",
"1435 2432 OFFCURVE",
"1420 2459 CURVE",
"1388 2453 LINE",
"1361 2348 OFFCURVE",
"1333 2313 OFFCURVE",
"1278 2313 CURVE SMOOTH",
"1247 2313 OFFCURVE",
"1230 2329 OFFCURVE",
"1222 2374 CURVE",
"1222 2383 LINE",
"1195 2380 LINE",
"1183 2356 OFFCURVE",
"1177 2328 OFFCURVE",
"1177 2295 CURVE SMOOTH"
);
},
{
closed = 1;
nodes = (
"2518 -771 OFFCURVE",
"2512 -687 OFFCURVE",
"2487 -619 CURVE SMOOTH",
"2462 -552 OFFCURVE",
"2415 -504 OFFCURVE",
"2338 -504 CURVE SMOOTH",
"2277 -504 OFFCURVE",
"2231 -536 OFFCURVE",
"2200 -601 CURVE SMOOTH",
"2133 -736 LINE SMOOTH",
"2102 -799 OFFCURVE",
"2092 -850 OFFCURVE",
"2092 -887 CURVE SMOOTH",
"2092 -938 OFFCURVE",
"2117 -978 OFFCURVE",
"2152 -1004 CURVE SMOOTH",
"2187 -1030 OFFCURVE",
"2231 -1044 OFFCURVE",
"2270 -1044 CURVE SMOOTH",
"2318 -1044 OFFCURVE",
"2368 -1022 OFFCURVE",
"2407 -995 CURVE",
"2411 -1000 OFFCURVE",
"2412 -1007 OFFCURVE",
"2412 -1012 CURVE SMOOTH",
"2412 -1037 OFFCURVE",
"2379 -1097 OFFCURVE",
"2324 -1157 CURVE SMOOTH",
"2271 -1216 OFFCURVE",
"2189 -1284 OFFCURVE",
"2103 -1348 CURVE SMOOTH",
"2017 -1413 OFFCURVE",
"1924 -1474 OFFCURVE",
"1852 -1517 CURVE",
"1863 -1562 LINE",
"1938 -1543 OFFCURVE",
"2035 -1512 OFFCURVE",
"2124 -1477 CURVE SMOOTH",
"2213 -1442 OFFCURVE",
"2293 -1406 OFFCURVE",
"2329 -1382 CURVE",
"2452 -1238 OFFCURVE",
"2518 -1035 OFFCURVE",
"2518 -846 CURVE SMOOTH"
);
},
{
closed = 1;
nodes = (
"3336 -1630 OFFCURVE",
"3369 -1657 OFFCURVE",
"3401 -1687 CURVE SMOOTH",
"3417 -1702 OFFCURVE",
"3432 -1717 OFFCURVE",
"3447 -1730 CURVE",
"3462 -1744 OFFCURVE",
"3473 -1755 OFFCURVE",
"3481 -1764 CURVE",
"3499 -1764 LINE",
"3568 -1713 OFFCURVE",
"3634 -1658 OFFCURVE",
"3659 -1607 CURVE",
"3683 -1628 OFFCURVE",
"3707 -1649 OFFCURVE",
"3731 -1672 CURVE SMOOTH",
"3755 -1695 OFFCURVE",
"3774 -1713 OFFCURVE",
"3789 -1726 CURVE",
"3807 -1726 LINE",
"3894 -1663 OFFCURVE",
"3971 -1587 OFFCURVE",
"3971 -1532 CURVE SMOOTH",
"3971 -1475 OFFCURVE",
"3916 -1426 OFFCURVE",
"3811 -1359 CURVE",
"3793 -1359 LINE",
"3781 -1366 OFFCURVE",
"3758 -1388 OFFCURVE",
"3732 -1415 CURVE SMOOTH",
"3706 -1443 OFFCURVE",
"3674 -1479 OFFCURVE",
"3647 -1510 CURVE",
"3620 -1477 OFFCURVE",
"3576 -1440 OFFCURVE",
"3508 -1397 CURVE",
"3490 -1397 LINE",
"3478 -1404 OFFCURVE",
"3445 -1435 OFFCURVE",
"3410 -1474 CURVE SMOOTH",
"3375 -1513 OFFCURVE",
"3336 -1557 OFFCURVE",
"3312 -1593 CURVE",
"3312 -1611 LINE"
);
},
{
closed = 1;
nodes = (
"789 428 OFFCURVE",
"749 398 OFFCURVE",
"720 353 CURVE SMOOTH",
"691 308 OFFCURVE",
"677 249 OFFCURVE",
"677 196 CURVE SMOOTH",
"677 105 OFFCURVE",
"730 47 OFFCURVE",
"814 47 CURVE SMOOTH",
"919 47 OFFCURVE",
"983 125 OFFCURVE",
"983 236 CURVE SMOOTH",
"983 284 OFFCURVE",
"967 333 OFFCURVE",
"943 369 CURVE SMOOTH",
"919 405 OFFCURVE",
"883 428 OFFCURVE",
"844 428 CURVE SMOOTH"
);
},
{
closed = 1;
nodes = (
"925 186 OFFCURVE",
"879 149 OFFCURVE",
"826 149 CURVE SMOOTH",
"754 149 OFFCURVE",
"738 188 OFFCURVE",
"738 227 CURVE SMOOTH",
"738 278 OFFCURVE",
"779 320 OFFCURVE",
"830 320 CURVE SMOOTH",
"882 320 OFFCURVE",
"925 285 OFFCURVE",
"925 241 CURVE SMOOTH"
);
},
{
closed = 1;
nodes = (
"3502 -229 OFFCURVE",
"3557 -193 OFFCURVE",
"3605 -157 CURVE SMOOTH",
"3653 -121 OFFCURVE",
"3695 -83 OFFCURVE",
"3703 -68 CURVE",
"3695 -38 LINE",
"3551 25 OFFCURVE",
"3451 36 OFFCURVE",
"3398 36 CURVE SMOOTH",
"3385 36 OFFCURVE",
"3363 34 OFFCURVE",
"3340 16 CURVE SMOOTH",
"3317 -2 OFFCURVE",
"3291 -35 OFFCURVE",
"3267 -94 CURVE",
"3289 -104 LINE",
"3302 -92 OFFCURVE",
"3322 -83 OFFCURVE",
"3353 -83 CURVE SMOOTH",
"3380 -83 OFFCURVE",
"3415 -88 OFFCURVE",
"3454 -96 CURVE SMOOTH",
"3493 -105 OFFCURVE",
"3530 -117 OFFCURVE",
"3559 -126 CURVE",
"3559 -131 LINE",
"3554 -137 OFFCURVE",
"3542 -144 OFFCURVE",
"3524 -153 CURVE SMOOTH",
"3506 -162 OFFCURVE",
"3484 -171 OFFCURVE",
"3457 -182 CURVE SMOOTH",
"3403 -203 OFFCURVE",
"3334 -225 OFFCURVE",
"3262 -245 CURVE",
"3265 -275 LINE",
"3283 -274 OFFCURVE",
"3304 -272 OFFCURVE",
"3327 -268 CURVE SMOOTH",
"3373 -261 OFFCURVE",
"3415 -253 OFFCURVE",
"3444 -247 CURVE SMOOTH",
"3458 -244 OFFCURVE",
"3467 -242 OFFCURVE",
"3470 -241 CURVE"
);
},
{
closed = 1;
nodes = (
"4124 2996 OFFCURVE",
"4084 2967 OFFCURVE",
"4064 2891 CURVE",
"4079 2880 LINE",
"4100 2904 OFFCURVE",
"4139 2927 OFFCURVE",
"4187 2954 CURVE SMOOTH",
"4471 3109 LINE SMOOTH",
"4519 3134 OFFCURVE",
"4556 3169 OFFCURVE",
"4585 3245 CURVE",
"4567 3256 LINE",
"4557 3249 OFFCURVE",
"4542 3239 OFFCURVE",
"4521 3227 CURVE SMOOTH",
"4479 3203 OFFCURVE",
"4445 3184 OFFCURVE",
"4392 3156 CURVE SMOOTH",
"4339 3127 OFFCURVE",
"4282 3096 OFFCURVE",
"4237 3068 CURVE SMOOTH",
"4214 3054 OFFCURVE",
"4196 3043 OFFCURVE",
"4181 3035 CURVE"
);
},
{
closed = 1;
nodes = (
"2829 2341 OFFCURVE",
"2854 2446 OFFCURVE",
"2858 2533 CURVE SMOOTH",
"2864 2615 LINE SMOOTH",
"2867 2675 OFFCURVE",
"2870 2737 OFFCURVE",
"2875 2791 CURVE SMOOTH",
"2879 2845 OFFCURVE",
"2885 2891 OFFCURVE",
"2894 2912 CURVE",
"2873 2920 LINE",
"2829 2836 OFFCURVE",
"2812 2773 OFFCURVE",
"2803 2732 CURVE",
"2797 2712 OFFCURVE",
"2793 2689 OFFCURVE",
"2792 2663 CURVE SMOOTH",
"2791 2637 OFFCURVE",
"2789 2612 OFFCURVE",
"2788 2587 CURVE SMOOTH",
"2783 2450 LINE SMOOTH",
"2778 2358 OFFCURVE",
"2769 2279 OFFCURVE",
"2765 2255 CURVE",
"2788 2250 LINE"
);
},
{
closed = 1;
nodes = (
"2180 517 OFFCURVE",
"2140 487 OFFCURVE",
"2120 410 CURVE",
"2135 400 LINE",
"2156 424 OFFCURVE",
"2195 448 OFFCURVE",
"2243 473 CURVE SMOOTH",
"2527 628 LINE SMOOTH",
"2575 655 OFFCURVE",
"2612 688 OFFCURVE",
"2641 765 CURVE",
"2623 776 LINE",
"2613 769 OFFCURVE",
"2598 759 OFFCURVE",
"2577 747 CURVE SMOOTH",
"2535 723 OFFCURVE",
"2501 704 OFFCURVE",
"2448 675 CURVE SMOOTH",
"2395 646 OFFCURVE",
"2338 615 OFFCURVE",
"2293 588 CURVE SMOOTH",
"2270 574 OFFCURVE",
"2252 563 OFFCURVE",
"2237 554 CURVE"
);
},
{
closed = 1;
nodes = (
"4589 656 OFFCURVE",
"4548 627 OFFCURVE",
"4529 551 CURVE",
"4543 540 LINE",
"4564 564 OFFCURVE",
"4603 587 OFFCURVE",
"4651 614 CURVE SMOOTH",
"4936 769 LINE SMOOTH",
"4984 794 OFFCURVE",
"5020 829 OFFCURVE",
"5049 905 CURVE",
"5031 916 LINE",
"5022 909 OFFCURVE",
"5007 899 OFFCURVE",
"4986 887 CURVE SMOOTH",
"4944 863 OFFCURVE",
"4909 844 OFFCURVE",
"4857 816 CURVE SMOOTH",
"4804 787 OFFCURVE",
"4748 756 OFFCURVE",
"4702 728 CURVE SMOOTH",
"4679 714 OFFCURVE",
"4660 703 OFFCURVE",
"4646 695 CURVE"
);
},
{
closed = 1;
nodes = (
"1437 2689 OFFCURVE",
"1464 2793 OFFCURVE",
"1469 2880 CURVE SMOOTH",
"1471 2916 LINE SMOOTH",
"1473 2976 OFFCURVE",
"1476 3022 OFFCURVE",
"1479 3054 CURVE SMOOTH",
"1482 3085 OFFCURVE",
"1485 3108 OFFCURVE",
"1489 3121 CURVE",
"1467 3128 LINE",
"1440 3079 OFFCURVE",
"1423 3040 OFFCURVE",
"1412 3004 CURVE SMOOTH",
"1401 2968 OFFCURVE",
"1398 2932 OFFCURVE",
"1395 2887 CURVE SMOOTH",
"1391 2797 LINE SMOOTH",
"1387 2706 OFFCURVE",
"1378 2627 OFFCURVE",
"1373 2603 CURVE",
"1397 2597 LINE"
);
},
{
closed = 1;
nodes = (
"3211 3386 OFFCURVE",
"3231 3343 OFFCURVE",
"3287 3343 CURVE SMOOTH",
"3350 3343 OFFCURVE",
"3392 3389 OFFCURVE",
"3425 3469 CURVE",
"3437 3458 OFFCURVE",
"3459 3452 OFFCURVE",
"3476 3452 CURVE SMOOTH",
"3584 3452 OFFCURVE",
"3636 3551 OFFCURVE",
"3636 3676 CURVE SMOOTH",
"3636 3697 LINE",
"3600 3692 LINE",
"3593 3639 OFFCURVE",
"3583 3604 OFFCURVE",
"3571 3585 CURVE SMOOTH",
"3559 3566 OFFCURVE",
"3542 3557 OFFCURVE",
"3519 3557 CURVE SMOOTH",
"3498 3557 OFFCURVE",
"3469 3566 OFFCURVE",
"3454 3593 CURVE",
"3422 3587 LINE",
"3395 3482 OFFCURVE",
"3367 3447 OFFCURVE",
"3312 3447 CURVE SMOOTH",
"3281 3447 OFFCURVE",
"3264 3463 OFFCURVE",
"3256 3508 CURVE",
"3256 3517 LINE",
"3229 3514 LINE",
"3217 3490 OFFCURVE",
"3211 3462 OFFCURVE",
"3211 3429 CURVE SMOOTH"
);
},
{
closed = 1;
nodes = (
"2461 -2006 OFFCURVE",
"2421 -2035 OFFCURVE",
"2401 -2111 CURVE",
"2416 -2122 LINE",
"2437 -2098 OFFCURVE",
"2476 -2075 OFFCURVE",
"2524 -2048 CURVE SMOOTH",
"2808 -1894 LINE SMOOTH",
"2856 -1867 OFFCURVE",
"2893 -1833 OFFCURVE",
"2921 -1757 CURVE",
"2903 -1746 LINE",
"2894 -1753 OFFCURVE",
"2879 -1763 OFFCURVE",
"2858 -1775 CURVE SMOOTH",
"2816 -1799 OFFCURVE",
"2781 -1818 OFFCURVE",
"2729 -1846 CURVE SMOOTH",
"2676 -1875 OFFCURVE",
"2619 -1906 OFFCURVE",
"2574 -1934 CURVE SMOOTH",
"2551 -1948 OFFCURVE",
"2533 -1959 OFFCURVE",
"2518 -1967 CURVE"
);
}
);
width = 5296;
}
);
note = uniFDFA;
unicode = FDFA;
},
{
glyphname = uniFDFC;
lastChange = "2016-12-06 15:22:26 +0000";
layers = (
{
layerId = "B831CC2C-6991-4D3A-BB51-B9DC9D9CB4BD";
paths = (
{
closed = 1;
nodes = (
"2451 776 OFFCURVE",
"2416 693 OFFCURVE",
"2371 605 CURVE SMOOTH",
"2336 542 OFFCURVE",
"2313 517 OFFCURVE",
"2277 482 CURVE",
"2220 422 OFFCURVE",
"2144 359 OFFCURVE",
"2071 301 CURVE SMOOTH",
"1998 243 OFFCURVE",
"1925 194 OFFCURVE",
"1872 166 CURVE",
"1881 119 LINE",
"1960 135 OFFCURVE",
"2037 156 OFFCURVE",
"2105 174 CURVE SMOOTH",
"2172 192 OFFCURVE",
"2224 210 OFFCURVE",
"2255 225 CURVE",
"2323 278 OFFCURVE",
"2380 382 OFFCURVE",
"2429 501 CURVE SMOOTH",
"2478 620 OFFCURVE",
"2518 755 OFFCURVE",
"2543 868 CURVE",
"2484 877 LINE"
);
},
{
closed = 1;
nodes = (
"2012 540 OFFCURVE",
"2086 604 OFFCURVE",
"2138 687 CURVE SMOOTH",
"2189 770 OFFCURVE",
"2224 872 OFFCURVE",
"2237 947 CURVE",
"2187 954 LINE",
"2144 867 OFFCURVE",
"2100 801 OFFCURVE",
"2009 801 CURVE SMOOTH",
"1908 801 OFFCURVE",
"1859 859 OFFCURVE",
"1832 936 CURVE SMOOTH",
"1804 1013 OFFCURVE",
"1804 1111 OFFCURVE",
"1804 1195 CURVE SMOOTH",
"1811 1404 OFFCURVE",
"1820 1556 OFFCURVE",
"1832 1668 CURVE SMOOTH",
"1844 1779 OFFCURVE",
"1856 1847 OFFCURVE",
"1865 1895 CURVE",
"1820 1903 LINE",
"1791 1823 OFFCURVE",
"1770 1759 OFFCURVE",
"1754 1698 CURVE SMOOTH",
"1737 1637 OFFCURVE",
"1723 1578 OFFCURVE",
"1715 1510 CURVE SMOOTH",
"1699 1369 OFFCURVE",
"1690 1263 OFFCURVE",
"1684 1170 CURVE SMOOTH",
"1678 1077 OFFCURVE",
"1676 992 OFFCURVE",
"1676 896 CURVE SMOOTH",
"1676 788 OFFCURVE",
"1694 700 OFFCURVE",
"1732 637 CURVE SMOOTH",
"1770 574 OFFCURVE",
"1830 540 OFFCURVE",
"1919 540 CURVE SMOOTH"
);
},
{
closed = 1;
nodes = (
"809 -565 OFFCURVE",
"957 -486 OFFCURVE",
"1074 -362 CURVE SMOOTH",
"1190 -239 OFFCURVE",
"1274 -69 OFFCURVE",
"1334 115 CURVE",
"1374 255 OFFCURVE",
"1416 438 OFFCURVE",
"1424 610 CURVE SMOOTH",
"1442 1262 LINE SMOOTH",
"1447 1418 OFFCURVE",
"1452 1543 OFFCURVE",
"1457 1638 CURVE SMOOTH",
"1462 1733 OFFCURVE",
"1471 1804 OFFCURVE",
"1483 1852 CURVE",
"1440 1859 LINE",
"1411 1798 OFFCURVE",
"1393 1753 OFFCURVE",
"1380 1716 CURVE SMOOTH",
"1367 1679 OFFCURVE",
"1359 1651 OFFCURVE",
"1352 1616 CURVE",
"1347 1583 OFFCURVE",
"1338 1531 OFFCURVE",
"1334 1476 CURVE",
"1331 1449 OFFCURVE",
"1329 1422 OFFCURVE",
"1327 1395 CURVE",
"1324 1368 OFFCURVE",
"1322 1346 OFFCURVE",
"1321 1327 CURVE SMOOTH",
"1285 493 LINE SMOOTH",
"1282 421 OFFCURVE",
"1279 352 OFFCURVE",
"1275 294 CURVE SMOOTH",
"1270 236 OFFCURVE",
"1265 192 OFFCURVE",
"1260 171 CURVE",
"1245 94 OFFCURVE",
"1200 -17 OFFCURVE",
"1109 -107 CURVE SMOOTH",
"1017 -197 OFFCURVE",
"884 -268 OFFCURVE",
"697 -268 CURVE SMOOTH",
"449 -268 OFFCURVE",
"308 -148 OFFCURVE",
"308 103 CURVE SMOOTH",
"308 208 OFFCURVE",
"334 328 OFFCURVE",
"401 493 CURVE",
"347 509 LINE",
"295 400 OFFCURVE",
"252 306 OFFCURVE",
"224 206 CURVE SMOOTH",
"195 106 OFFCURVE",
"180 5 OFFCURVE",
"180 -122 CURVE SMOOTH",
"180 -265 OFFCURVE",
"224 -373 OFFCURVE",
"301 -449 CURVE SMOOTH",
"377 -525 OFFCURVE",
"488 -565 OFFCURVE",
"625 -565 CURVE SMOOTH"
);
},
{
closed = 1;
nodes = (
"1666 -376 OFFCURVE",
"1677 -385 OFFCURVE",
"1690 -396 CURVE",
"1717 -417 OFFCURVE",
"1744 -440 OFFCURVE",
"1767 -463 CURVE",
"1778 -475 OFFCURVE",
"1788 -484 OFFCURVE",
"1795 -491 CURVE",
"1807 -491 LINE",
"1863 -451 OFFCURVE",
"1916 -406 OFFCURVE",
"1937 -365 CURVE",
"1976 -397 OFFCURVE",
"2019 -437 OFFCURVE",
"2043 -461 CURVE",
"2057 -461 LINE",
"2128 -410 OFFCURVE",
"2189 -348 OFFCURVE",
"2189 -304 CURVE SMOOTH",
"2189 -256 OFFCURVE",
"2145 -218 OFFCURVE",
"2061 -166 CURVE",
"2047 -166 LINE",
"2027 -175 OFFCURVE",
"1971 -234 OFFCURVE",
"1928 -286 CURVE",
"1907 -258 OFFCURVE",
"1870 -230 OFFCURVE",
"1814 -194 CURVE",
"1802 -194 LINE",
"1790 -202 OFFCURVE",
"1764 -226 OFFCURVE",
"1736 -257 CURVE SMOOTH",
"1707 -289 OFFCURVE",
"1677 -326 OFFCURVE",
"1658 -355 CURVE",
"1658 -369 LINE"
);
}
);
width = 2700;
}
);
note = uniFDFC;
unicode = FDFC;
},
{
glyphname = uniFDFB;
lastChange = "2016-12-06 15:22:26 +0000";
layers = (
{
layerId = "B831CC2C-6991-4D3A-BB51-B9DC9D9CB4BD";
paths = (
{
closed = 1;
nodes = (
"2000 499 OFFCURVE",
"1839 562 OFFCURVE",
"1750 665 CURVE SMOOTH",
"1661 768 OFFCURVE",
"1649 894 OFFCURVE",
"1649 1073 CURVE SMOOTH",
"1655 1267 OFFCURVE",
"1665 1423 OFFCURVE",
"1679 1540 CURVE SMOOTH",
"1692 1657 OFFCURVE",
"1707 1745 OFFCURVE",
"1723 1805 CURVE",
"1679 1823 LINE",
"1660 1780 OFFCURVE",
"1645 1744 OFFCURVE",
"1634 1714 CURVE SMOOTH",
"1610 1654 OFFCURVE",
"1595 1609 OFFCURVE",
"1587 1572 CURVE",
"1582 1553 OFFCURVE",
"1578 1534 OFFCURVE",
"1573 1514 CURVE SMOOTH",
"1558 1451 OFFCURVE",
"1548 1352 OFFCURVE",
"1541 1256 CURVE SMOOTH",
"1533 1159 OFFCURVE",
"1526 1064 OFFCURVE",
"1525 1019 CURVE SMOOTH",
"1481 122 LINE SMOOTH",
"1477 34 OFFCURVE",
"1469 -52 OFFCURVE",
"1462 -123 CURVE SMOOTH",
"1454 -194 OFFCURVE",
"1446 -248 OFFCURVE",
"1442 -272 CURVE SMOOTH",
"1425 -371 OFFCURVE",
"1358 -505 OFFCURVE",
"1234 -617 CURVE SMOOTH",
"1110 -730 OFFCURVE",
"929 -817 OFFCURVE",
"689 -817 CURVE SMOOTH",
"538 -817 OFFCURVE",
"406 -779 OFFCURVE",
"311 -703 CURVE SMOOTH",
"215 -627 OFFCURVE",
"157 -512 OFFCURVE",
"157 -356 CURVE SMOOTH",
"157 -229 OFFCURVE",
"188 -64 OFFCURVE",
"272 140 CURVE",
"214 162 LINE",
"85 -111 OFFCURVE",
"20 -368 OFFCURVE",
"20 -659 CURVE SMOOTH",
"20 -803 OFFCURVE",
"78 -935 OFFCURVE",
"179 -1030 CURVE SMOOTH",
"279 -1126 OFFCURVE",
"421 -1184 OFFCURVE",
"590 -1184 CURVE SMOOTH",
"845 -1184 OFFCURVE",
"1043 -1087 OFFCURVE",
"1193 -934 CURVE SMOOTH",
"1343 -781 OFFCURVE",
"1447 -570 OFFCURVE",
"1519 -342 CURVE SMOOTH",
"1575 -169 OFFCURVE",
"1603 25 OFFCURVE",
"1615 198 CURVE SMOOTH",
"1629 405 LINE",
"1672 328 OFFCURVE",
"1759 271 OFFCURVE",
"1860 232 CURVE SMOOTH",
"1960 193 OFFCURVE",
"2076 175 OFFCURVE",
"2176 175 CURVE SMOOTH",
"2500 175 OFFCURVE",
"2790 251 OFFCURVE",
"3059 373 CURVE SMOOTH",
"3327 495 OFFCURVE",
"3574 667 OFFCURVE",
"3808 862 CURVE SMOOTH",
"4042 1057 OFFCURVE",
"4264 1274 OFFCURVE",
"4487 1489 CURVE SMOOTH",
"4601 1597 LINE SMOOTH",
"4614 1609 OFFCURVE",
"4630 1622 OFFCURVE",
"4647 1636 CURVE",
"4664 1649 OFFCURVE",
"4680 1662 OFFCURVE",
"4693 1674 CURVE",
"4689 1699 LINE",
"4648 1704 OFFCURVE",
"4573 1732 OFFCURVE",
"4496 1771 CURVE SMOOTH",
"4479 1780 OFFCURVE",
"4460 1789 OFFCURVE",
"4439 1799 CURVE",
"4395 1818 OFFCURVE",
"4351 1836 OFFCURVE",
"4309 1852 CURVE SMOOTH",
"4267 1867 OFFCURVE",
"4215 1885 OFFCURVE",
"4158 1885 CURVE SMOOTH",
"4035 1885 OFFCURVE",
"3934 1823 OFFCURVE",
"3843 1640 CURVE",
"3895 1622 LINE",
"3931 1686 OFFCURVE",
"3985 1697 OFFCURVE",
"4037 1697 CURVE SMOOTH",
"4093 1697 OFFCURVE",
"4129 1687 OFFCURVE",
"4192 1663 CURVE SMOOTH",
"4233 1646 OFFCURVE",
"4274 1631 OFFCURVE",
"4316 1616 CURVE SMOOTH",
"4357 1601 OFFCURVE",
"4393 1587 OFFCURVE",
"4424 1575 CURVE",
"4244 1392 OFFCURVE",
"4043 1214 OFFCURVE",
"3821 1054 CURVE SMOOTH",
"3599 894 OFFCURVE",
"3358 756 OFFCURVE",
"3103 657 CURVE SMOOTH",
"2847 558 OFFCURVE",
"2579 499 OFFCURVE",
"2300 499 CURVE SMOOTH"
);
},
{
closed = 1;
nodes = (
"1279 1378 OFFCURVE",
"1288 1474 OFFCURVE",
"1300 1526 CURVE",
"1256 1543 LINE",
"1236 1497 OFFCURVE",
"1220 1457 OFFCURVE",
"1207 1424 CURVE SMOOTH",
"1182 1356 OFFCURVE",
"1166 1305 OFFCURVE",
"1156 1262 CURVE SMOOTH",
"1151 1240 OFFCURVE",
"1146 1219 OFFCURVE",
"1141 1199 CURVE SMOOTH",
"1122 1118 OFFCURVE",
"1112 1038 OFFCURVE",
"1111 938 CURVE SMOOTH",
"1105 580 LINE SMOOTH",
"1104 491 OFFCURVE",
"1102 424 OFFCURVE",
"1099 379 CURVE SMOOTH",
"1096 334 OFFCURVE",
"1092 300 OFFCURVE",
"1087 277 CURVE SMOOTH",
"1071 193 OFFCURVE",
"1051 143 OFFCURVE",
"1023 113 CURVE SMOOTH",
"994 83 OFFCURVE",
"954 74 OFFCURVE",
"902 74 CURVE SMOOTH",
"872 74 OFFCURVE",
"845 78 OFFCURVE",
"822 85 CURVE SMOOTH",
"799 92 OFFCURVE",
"769 95 OFFCURVE",
"734 95 CURVE SMOOTH",
"655 95 OFFCURVE",
"584 67 OFFCURVE",
"517 -1 CURVE SMOOTH",
"449 -69 OFFCURVE",
"385 -178 OFFCURVE",
"322 -338 CURVE",
"364 -358 LINE",
"407 -298 OFFCURVE",
"438 -262 OFFCURVE",
"468 -241 CURVE SMOOTH",
"498 -220 OFFCURVE",
"527 -214 OFFCURVE",
"571 -214 CURVE SMOOTH",
"601 -214 OFFCURVE",
"630 -220 OFFCURVE",
"658 -232 CURVE SMOOTH",
"686 -244 OFFCURVE",
"716 -250 OFFCURVE",
"749 -250 CURVE SMOOTH",
"864 -250 OFFCURVE",
"950 -190 OFFCURVE",
"1017 -104 CURVE SMOOTH",
"1084 -18 OFFCURVE",
"1128 94 OFFCURVE",
"1159 194 CURVE SMOOTH",
"1188 289 OFFCURVE",
"1209 401 OFFCURVE",
"1224 517 CURVE SMOOTH",
"1239 632 OFFCURVE",
"1248 745 OFFCURVE",
"1253 844 CURVE SMOOTH",
"1265 1078 LINE",
"1274 1258 LINE SMOOTH"
);
},
{
closed = 1;
nodes = (
"2948 1129 OFFCURVE",
"3071 1172 OFFCURVE",
"3180 1243 CURVE SMOOTH",
"3289 1314 OFFCURVE",
"3384 1414 OFFCURVE",
"3472 1526 CURVE SMOOTH",
"3552 1627 OFFCURVE",
"3624 1736 OFFCURVE",
"3692 1840 CURVE",
"3686 1865 LINE",
"3648 1873 OFFCURVE",
"3581 1895 OFFCURVE",
"3485 1930 CURVE SMOOTH",
"3381 1966 OFFCURVE",
"3308 1985 OFFCURVE",
"3224 1985 CURVE SMOOTH",
"3108 1985 OFFCURVE",
"3032 1932 OFFCURVE",
"2957 1809 CURVE SMOOTH",
"2896 1710 OFFCURVE",
"2839 1582 OFFCURVE",
"2815 1462 CURVE",
"2746 1478 OFFCURVE",
"2705 1522 OFFCURVE",
"2680 1583 CURVE SMOOTH",
"2655 1643 OFFCURVE",
"2648 1738 OFFCURVE",
"2648 1883 CURVE SMOOTH",
"2657 2255 OFFCURVE",
"2678 2512 OFFCURVE",
"2709 2632 CURVE",
"2666 2650 LINE",
"2630 2563 OFFCURVE",
"2607 2506 OFFCURVE",
"2592 2462 CURVE SMOOTH",
"2577 2417 OFFCURVE",
"2569 2382 OFFCURVE",
"2560 2342 CURVE SMOOTH",
"2537 2246 OFFCURVE",
"2520 2124 OFFCURVE",
"2513 1987 CURVE SMOOTH",
"2486 1435 LINE SMOOTH",
"2481 1348 OFFCURVE",
"2479 1289 OFFCURVE",
"2464 1239 CURVE SMOOTH",
"2448 1189 OFFCURVE",
"2420 1145 OFFCURVE",
"2367 1100 CURVE SMOOTH",
"2290 1031 OFFCURVE",
"2184 991 OFFCURVE",
"2079 972 CURVE",
"2154 1152 OFFCURVE",
"2203 1348 OFFCURVE",
"2212 1516 CURVE SMOOTH",
"2234 1913 LINE SMOOTH",
"2237 1972 OFFCURVE",
"2241 2033 OFFCURVE",
"2244 2094 CURVE SMOOTH",
"2247 2155 OFFCURVE",
"2251 2212 OFFCURVE",
"2256 2266 CURVE SMOOTH",
"2266 2374 OFFCURVE",
"2276 2462 OFFCURVE",
"2295 2507 CURVE",
"2252 2524 LINE",
"2168 2339 OFFCURVE",
"2131 2230 OFFCURVE",
"2111 2147 CURVE SMOOTH",
"2092 2066 OFFCURVE",
"2085 1958 OFFCURVE",
"2081 1858 CURVE SMOOTH",
"2061 1348 LINE SMOOTH",
"2056 1260 OFFCURVE",
"2050 1174 OFFCURVE",
"2043 1106 CURVE SMOOTH",
"2036 1038 OFFCURVE",
"2030 987 OFFCURVE",
"2025 963 CURVE",
"2013 960 OFFCURVE",
"2005 959 OFFCURVE",
"1993 959 CURVE",
"1982 920 LINE",
"2003 899 OFFCURVE",
"2048 873 OFFCURVE",
"2094 853 CURVE SMOOTH",
"2140 832 OFFCURVE",
"2187 815 OFFCURVE",
"2223 812 CURVE",
"2264 821 OFFCURVE",
"2306 848 OFFCURVE",
"2342 878 CURVE SMOOTH",
"2378 908 OFFCURVE",
"2411 945 OFFCURVE",
"2432 974 CURVE SMOOTH",
"2487 1050 OFFCURVE",
"2528 1144 OFFCURVE",
"2560 1256 CURVE",
"2584 1207 OFFCURVE",
"2622 1173 OFFCURVE",
"2666 1154 CURVE SMOOTH",
"2709 1134 OFFCURVE",
"2756 1129 OFFCURVE",
"2799 1129 CURVE SMOOTH"
);
},
{
closed = 1;
nodes = (
"3077 1765 OFFCURVE",
"3133 1777 OFFCURVE",
"3186 1777 CURVE SMOOTH",
"3261 1777 OFFCURVE",
"3332 1757 OFFCURVE",
"3404 1733 CURVE SMOOTH",
"3499 1703 LINE",
"3444 1623 OFFCURVE",
"3358 1561 OFFCURVE",
"3254 1519 CURVE SMOOTH",
"3149 1477 OFFCURVE",
"3029 1453 OFFCURVE",
"2902 1453 CURVE SMOOTH",
"2882 1453 LINE",
"2911 1581 OFFCURVE",
"2962 1674 OFFCURVE",
"3037 1732 CURVE SMOOTH"
);
},
{
closed = 1;
nodes = (
"4211 2218 OFFCURVE",
"4170 2188 OFFCURVE",
"4151 2111 CURVE",
"4165 2101 LINE",
"4186 2125 OFFCURVE",
"4225 2149 OFFCURVE",
"4273 2174 CURVE SMOOTH",
"4558 2329 LINE SMOOTH",
"4606 2356 OFFCURVE",
"4642 2389 OFFCURVE",
"4671 2466 CURVE",
"4653 2477 LINE",
"4634 2462 OFFCURVE",
"4585 2435 OFFCURVE",
"4550 2416 CURVE SMOOTH",
"4507 2392 OFFCURVE",
"4453 2362 OFFCURVE",
"4399 2332 CURVE SMOOTH",
"4345 2302 OFFCURVE",
"4296 2272 OFFCURVE",
"4268 2255 CURVE SMOOTH"
);
},
{
closed = 1;
nodes = (
"4081 674 OFFCURVE",
"4114 647 OFFCURVE",
"4147 617 CURVE SMOOTH",
"4179 587 OFFCURVE",
"4210 557 OFFCURVE",
"4226 540 CURVE",
"4244 540 LINE",
"4288 571 OFFCURVE",
"4330 606 OFFCURVE",
"4362 639 CURVE SMOOTH",
"4393 672 OFFCURVE",
"4414 706 OFFCURVE",
"4414 734 CURVE SMOOTH",
"4414 793 OFFCURVE",
"4360 840 OFFCURVE",
"4253 907 CURVE",
"4235 907 LINE",
"4223 900 OFFCURVE",
"4190 869 OFFCURVE",
"4155 830 CURVE SMOOTH",
"4120 791 OFFCURVE",
"4081 747 OFFCURVE",
"4057 711 CURVE",
"4057 693 LINE"
);
},
{
closed = 1;
nodes = (
"3012 -48 OFFCURVE",
"3045 -75 OFFCURVE",
"3077 -105 CURVE SMOOTH",
"3093 -120 OFFCURVE",
"3108 -135 OFFCURVE",
"3123 -148 CURVE",
"3138 -162 OFFCURVE",
"3149 -173 OFFCURVE",
"3157 -182 CURVE",
"3175 -182 LINE",
"3219 -150 OFFCURVE",
"3261 -116 OFFCURVE",
"3293 -83 CURVE SMOOTH",
"3324 -50 OFFCURVE",
"3344 -16 OFFCURVE",
"3344 13 CURVE SMOOTH",
"3344 70 OFFCURVE",
"3289 118 OFFCURVE",
"3184 185 CURVE",
"3166 185 LINE",
"3154 178 OFFCURVE",
"3121 147 OFFCURVE",
"3086 108 CURVE SMOOTH",
"3051 69 OFFCURVE",
"3012 25 OFFCURVE",
"2988 -11 CURVE",
"2988 -29 LINE"
);
},
{
closed = 1;
nodes = (
"3129 2269 OFFCURVE",
"3088 2240 OFFCURVE",
"3069 2164 CURVE",
"3083 2153 LINE",
"3106 2177 OFFCURVE",
"3143 2200 OFFCURVE",
"3191 2227 CURVE SMOOTH",
"3476 2381 LINE SMOOTH",
"3524 2408 OFFCURVE",
"3561 2442 OFFCURVE",
"3589 2518 CURVE",
"3571 2529 LINE",
"3562 2522 OFFCURVE",
"3547 2512 OFFCURVE",
"3526 2500 CURVE SMOOTH",
"3484 2476 OFFCURVE",
"3449 2457 OFFCURVE",
"3397 2429 CURVE SMOOTH",
"3344 2400 OFFCURVE",
"3287 2369 OFFCURVE",
"3242 2341 CURVE SMOOTH",
"3219 2327 OFFCURVE",
"3201 2316 OFFCURVE",
"3186 2308 CURVE"
);
},
{
closed = 1;
nodes = (
"451 677 OFFCURVE",
"470 686 OFFCURVE",
"493 698 CURVE SMOOTH",
"537 721 OFFCURVE",
"584 746 OFFCURVE",
"626 770 CURVE SMOOTH",
"647 782 OFFCURVE",
"664 792 OFFCURVE",
"677 799 CURVE",
"722 831 OFFCURVE",
"775 869 OFFCURVE",
"816 914 CURVE SMOOTH",
"856 958 OFFCURVE",
"886 1010 OFFCURVE",
"886 1073 CURVE SMOOTH",
"886 1121 OFFCURVE",
"864 1163 OFFCURVE",
"808 1163 CURVE SMOOTH",
"772 1163 OFFCURVE",
"734 1140 OFFCURVE",
"706 1109 CURVE SMOOTH",
"677 1077 OFFCURVE",
"657 1037 OFFCURVE",
"657 1001 CURVE SMOOTH",
"657 974 OFFCURVE",
"670 939 OFFCURVE",
"697 907 CURVE",
"680 895 OFFCURVE",
"637 863 OFFCURVE",
"592 824 CURVE",
"529 776 OFFCURVE",
"464 721 OFFCURVE",
"425 682 CURVE",
"436 670 LINE"
);
},
{
closed = 1;
nodes = (
"815 1013 OFFCURVE",
"794 988 OFFCURVE",
"770 967 CURVE",
"739 995 OFFCURVE",
"720 1016 OFFCURVE",
"720 1037 CURVE SMOOTH",
"720 1068 OFFCURVE",
"745 1085 OFFCURVE",
"772 1085 CURVE SMOOTH",
"799 1085 OFFCURVE",
"815 1071 OFFCURVE",
"815 1044 CURVE SMOOTH"
);
},
{
closed = 1;
nodes = (
"886 1788 OFFCURVE",
"846 1760 OFFCURVE",
"826 1683 CURVE",
"841 1672 LINE",
"862 1696 OFFCURVE",
"901 1719 OFFCURVE",
"949 1746 CURVE SMOOTH",
"1233 1901 LINE SMOOTH",
"1281 1928 OFFCURVE",
"1318 1961 OFFCURVE",
"1346 2038 CURVE",
"1328 2048 LINE",
"1319 2041 OFFCURVE",
"1304 2032 OFFCURVE",
"1283 2020 CURVE SMOOTH",
"1241 1996 OFFCURVE",
"1206 1976 OFFCURVE",
"1154 1948 CURVE SMOOTH",
"1101 1919 OFFCURVE",
"1044 1888 OFFCURVE",
"999 1861 CURVE SMOOTH",
"976 1847 OFFCURVE",
"958 1836 OFFCURVE",
"943 1827 CURVE"
);
},
{
closed = 1;
nodes = (
"1517 2072 OFFCURVE",
"1538 2029 OFFCURVE",
"1593 2029 CURVE SMOOTH",
"1656 2029 OFFCURVE",
"1697 2075 OFFCURVE",
"1732 2155 CURVE",
"1744 2144 OFFCURVE",
"1765 2138 OFFCURVE",
"1782 2138 CURVE SMOOTH",
"1890 2138 OFFCURVE",
"1942 2237 OFFCURVE",
"1942 2362 CURVE SMOOTH",
"1942 2383 LINE",
"1906 2378 LINE",
"1899 2325 OFFCURVE",
"1889 2290 OFFCURVE",
"1877 2271 CURVE SMOOTH",
"1865 2252 OFFCURVE",
"1848 2243 OFFCURVE",
"1825 2243 CURVE SMOOTH",
"1804 2243 OFFCURVE",
"1775 2252 OFFCURVE",
"1760 2279 CURVE",
"1728 2273 LINE",
"1701 2168 OFFCURVE",
"1674 2133 OFFCURVE",
"1618 2133 CURVE SMOOTH",
"1587 2133 OFFCURVE",
"1570 2149 OFFCURVE",
"1562 2194 CURVE",
"1562 2203 LINE",
"1535 2200 LINE",
"1523 2176 OFFCURVE",
"1517 2148 OFFCURVE",
"1517 2115 CURVE SMOOTH"
);
},
{
closed = 1;
nodes = (
"1574 2472 OFFCURVE",
"1533 2444 OFFCURVE",
"1514 2367 CURVE",
"1528 2356 LINE",
"1549 2380 OFFCURVE",
"1588 2403 OFFCURVE",
"1636 2430 CURVE SMOOTH",
"1921 2585 LINE SMOOTH",
"1969 2612 OFFCURVE",
"2005 2645 OFFCURVE",
"2034 2722 CURVE",
"2016 2732 LINE",
"2007 2725 OFFCURVE",
"1992 2716 OFFCURVE",
"1971 2704 CURVE SMOOTH",
"1929 2680 OFFCURVE",
"1894 2660 OFFCURVE",
"1842 2632 CURVE SMOOTH",
"1815 2617 OFFCURVE",
"1789 2603 OFFCURVE",
"1762 2588 CURVE SMOOTH",
"1708 2558 OFFCURVE",
"1659 2528 OFFCURVE",
"1631 2511 CURVE"
);
}
);
width = 4734;
}
);
note = uniFDFB;
unicode = FDFB;
},
{
glyphname = Tatweel;
lastChange = "2016-12-06 15:22:26 +0000";
layers = (
{
layerId = "B831CC2C-6991-4D3A-BB51-B9DC9D9CB4BD";
paths = (
{
closed = 1;
nodes = (
"373 302 OFFCURVE",
"349 324 OFFCURVE",
"302 324 CURVE SMOOTH",
"173 324 LINE SMOOTH",
"48 324 OFFCURVE",
"-67 201 OFFCURVE",
"-67 65 CURVE SMOOTH",
"-67 22 OFFCURVE",
"-43 0 OFFCURVE",
"5 0 CURVE SMOOTH",
"135 0 LINE SMOOTH",
"260 0 OFFCURVE",
"373 123 OFFCURVE",
"373 259 CURVE SMOOTH"
);
}
);
width = 133;
}
);
note = Tatweel;
unicode = 0640;
},
{
glyphname = AlefSep;
lastChange = "2016-12-06 15:22:26 +0000";
layers = (
{
layerId = "B831CC2C-6991-4D3A-BB51-B9DC9D9CB4BD";
paths = (
{
closed = 1;
nodes = (
"337 408 OFFCURVE",
"385 596 OFFCURVE",
"394 772 CURVE SMOOTH",
"427 1350 LINE SMOOTH",
"438 1571 OFFCURVE",
"454 1709 OFFCURVE",
"477 1764 CURVE",
"434 1780 LINE",
"386 1673 OFFCURVE",
"351 1587 OFFCURVE",
"328 1520 CURVE SMOOTH",
"282 1387 OFFCURVE",
"272 1323 OFFCURVE",
"263 1114 CURVE SMOOTH",
"243 605 LINE SMOOTH",
"232 407 OFFCURVE",
"220 278 OFFCURVE",
"207 218 CURVE",
"252 207 LINE"
);
}
);
width = 675;
}
);
note = AlefSep;
},
{
glyphname = AlefFin;
lastChange = "2016-12-06 15:22:26 +0000";
layers = (
{
layerId = "B831CC2C-6991-4D3A-BB51-B9DC9D9CB4BD";
paths = (
{
closed = 1;
nodes = (
"248 138 OFFCURVE",
"348 0 OFFCURVE",
"540 0 CURVE SMOOTH",
"641 0 OFFCURVE",
"729 72 OFFCURVE",
"729 207 CURVE SMOOTH",
"729 285 OFFCURVE",
"700 324 OFFCURVE",
"641 324 CURVE SMOOTH",
"512 324 OFFCURVE",
"444 400 OFFCURVE",
"412 519 CURVE SMOOTH",
"395 578 OFFCURVE",
"387 676 OFFCURVE",
"387 812 CURVE SMOOTH",
"387 1202 OFFCURVE",
"403 1491 OFFCURVE",
"434 1678 CURVE",
"392 1690 LINE",
"359 1610 OFFCURVE",
"334 1536 OFFCURVE",
"318 1467 CURVE SMOOTH",
"285 1330 OFFCURVE",
"248 882 OFFCURVE",
"248 457 CURVE SMOOTH"
);
}
);
width = 540;
}
);
note = AlefFin;
},
{
glyphname = BehxSep;
lastChange = "2016-12-06 15:22:26 +0000";
layers = (
{
layerId = "B831CC2C-6991-4D3A-BB51-B9DC9D9CB4BD";
paths = (
{
closed = 1;
nodes = (
"119 85 OFFCURVE",
"295 -34 OFFCURVE",
"707 -34 CURVE SMOOTH",
"994 -34 OFFCURVE",
"1283 7 OFFCURVE",
"1552 88 CURVE SMOOTH",
"1820 168 OFFCURVE",
"2015 296 OFFCURVE",
"2101 417 CURVE SMOOTH",
"2187 538 OFFCURVE",
"2255 694 OFFCURVE",
"2288 833 CURVE",
"2246 846 LINE",
"2214 783 OFFCURVE",
"2185 736 OFFCURVE",
"2159 705 CURVE SMOOTH",
"2106 644 OFFCURVE",
"2031 584 OFFCURVE",
"1919 524 CURVE SMOOTH",
"1667 395 OFFCURVE",
"1213 301 OFFCURVE",
"842 301 CURVE SMOOTH",
"651 301 OFFCURVE",
"518 309 OFFCURVE",
"441 324 CURVE SMOOTH",
"288 354 OFFCURVE",
"229 422 OFFCURVE",
"229 551 CURVE SMOOTH",
"229 575 OFFCURVE",
"230 597 OFFCURVE",
"232 617 CURVE",
"169 626 LINE",
"136 507 OFFCURVE",
"119 408 OFFCURVE",
"119 328 CURVE SMOOTH"
);
}
);
width = 2407;
}
);
note = BehxSep;
},
{
glyphname = BehxFin;
lastChange = "2016-12-06 15:22:26 +0000";
layers = (
{
layerId = "B831CC2C-6991-4D3A-BB51-B9DC9D9CB4BD";
paths = (
{
closed = 1;
nodes = (
"119 85 OFFCURVE",
"295 -34 OFFCURVE",
"707 -34 CURVE SMOOTH",
"1070 -34 OFFCURVE",
"1433 35 OFFCURVE",
"1684 132 CURVE SMOOTH",
"1935 229 OFFCURVE",
"2110 352 OFFCURVE",
"2230 655 CURVE",
"2259 556 OFFCURVE",
"2334 502 OFFCURVE",
"2430 502 CURVE SMOOTH",
"2495 502 OFFCURVE",
"2558 557 OFFCURVE",
"2558 641 CURVE SMOOTH",
"2558 689 OFFCURVE",
"2530 720 OFFCURVE",
"2498 720 CURVE SMOOTH",
"2384 720 OFFCURVE",
"2310 743 OFFCURVE",
"2275 788 CURVE",
"2288 833 LINE",
"2246 846 LINE",
"2214 783 OFFCURVE",
"2185 736 OFFCURVE",
"2159 705 CURVE SMOOTH",
"2106 644 OFFCURVE",
"2031 584 OFFCURVE",
"1919 524 CURVE SMOOTH",
"1667 395 OFFCURVE",
"1213 301 OFFCURVE",
"842 301 CURVE SMOOTH",
"649 301 OFFCURVE",
"515 309 OFFCURVE",
"439 324 CURVE SMOOTH",
"286 355 OFFCURVE",
"229 422 OFFCURVE",
"229 551 CURVE SMOOTH",
"229 574 OFFCURVE",
"230 596 OFFCURVE",
"232 617 CURVE",
"169 626 LINE",
"136 507 OFFCURVE",
"119 408 OFFCURVE",
"119 328 CURVE SMOOTH"
);
}
);
width = 2430;
}
);
note = BehxFin;
},
{
glyphname = NoonxSep;
lastChange = "2016-12-06 15:22:26 +0000";
layers = (
{
layerId = "B831CC2C-6991-4D3A-BB51-B9DC9D9CB4BD";
paths = (
{
closed = 1;
nodes = (
"1419 914 OFFCURVE",
"1391 775 OFFCURVE",
"1391 598 CURVE SMOOTH",
"1393 459 LINE SMOOTH",
"1393 152 OFFCURVE",
"1328 10 OFFCURVE",
"1208 -117 CURVE SMOOTH",
"1088 -244 OFFCURVE",
"910 -331 OFFCURVE",
"673 -331 CURVE SMOOTH",
"373 -331 OFFCURVE",
"194 -181 OFFCURVE",
"194 130 CURVE SMOOTH",
"194 263 OFFCURVE",
"233 422 OFFCURVE",
"310 608 CURVE",
"252 630 LINE",
"123 359 OFFCURVE",
"58 115 OFFCURVE",
"58 -173 CURVE SMOOTH",
"58 -488 OFFCURVE",
"259 -698 OFFCURVE",
"574 -698 CURVE SMOOTH",
"967 -698 OFFCURVE",
"1282 -403 OFFCURVE",
"1454 144 CURVE SMOOTH",
"1512 323 OFFCURVE",
"1543 567 OFFCURVE",
"1548 877 CURVE SMOOTH",
"1549 1021 OFFCURVE",
"1554 1113 OFFCURVE",
"1562 1154 CURVE",
"1519 1165 LINE"
);
}
);
width = 1764;
}
);
note = NoonxSep;
},
{
glyphname = NoonxFin;
lastChange = "2016-12-06 15:22:26 +0000";
layers = (
{
layerId = "B831CC2C-6991-4D3A-BB51-B9DC9D9CB4BD";
paths = (
{
closed = 1;
nodes = (
"1442 676 OFFCURVE",
"1432 504 OFFCURVE",
"1411 390 CURVE SMOOTH",
"1370 161 OFFCURVE",
"1297 1 OFFCURVE",
"1185 -119 CURVE SMOOTH",
"1072 -239 OFFCURVE",
"909 -331 OFFCURVE",
"673 -331 CURVE SMOOTH",
"373 -331 OFFCURVE",
"194 -181 OFFCURVE",
"194 130 CURVE SMOOTH",
"194 263 OFFCURVE",
"233 422 OFFCURVE",
"310 608 CURVE",
"252 630 LINE",
"123 359 OFFCURVE",
"58 114 OFFCURVE",
"58 -171 CURVE SMOOTH",
"58 -488 OFFCURVE",
"259 -698 OFFCURVE",
"574 -698 CURVE SMOOTH",
"747 -698 OFFCURVE",
"903 -640 OFFCURVE",
"1043 -525 CURVE SMOOTH",
"1323 -295 OFFCURVE",
"1513 188 OFFCURVE",
"1526 688 CURVE",
"1535 688 LINE SMOOTH",
"1600 688 OFFCURVE",
"1663 742 OFFCURVE",
"1663 826 CURVE SMOOTH",
"1663 874 OFFCURVE",
"1635 905 OFFCURVE",
"1604 905 CURVE SMOOTH",
"1565 905 OFFCURVE",
"1522 909 OFFCURVE",
"1474 918 CURVE",
"1442 907 LINE"
);
}
);
width = 1535;
}
);
note = NoonxFin;
},
{
glyphname = HahSep;
lastChange = "2016-12-06 15:22:26 +0000";
layers = (
{
layerId = "B831CC2C-6991-4D3A-BB51-B9DC9D9CB4BD";
paths = (
{
closed = 1;
nodes = (
"58 -448 OFFCURVE",
"300 -698 OFFCURVE",
"691 -698 CURVE SMOOTH",
"1128 -698 OFFCURVE",
"1502 -370 OFFCURVE",
"1741 230 CURVE",
"1678 248 LINE",
"1486 -148 OFFCURVE",
"1218 -333 OFFCURVE",
"855 -333 CURVE SMOOTH",
"490 -333 OFFCURVE",
"254 -137 OFFCURVE",
"254 178 CURVE SMOOTH",
"254 526 OFFCURVE",
"559 899 OFFCURVE",
"1022 1192 CURVE SMOOTH",
"1097 1236 OFFCURVE",
"1155 1301 OFFCURVE",
"1197 1386 CURVE",
"1195 1400 LINE",
"1114 1439 OFFCURVE",
"861 1474 OFFCURVE",
"722 1474 CURVE SMOOTH",
"635 1474 OFFCURVE",
"569 1464 OFFCURVE",
"524 1445 CURVE SMOOTH",
"432 1405 OFFCURVE",
"366 1316 OFFCURVE",
"315 1163 CURVE",
"367 1147 LINE",
"380 1173 OFFCURVE",
"396 1194 OFFCURVE",
"414 1211 CURVE SMOOTH",
"450 1243 OFFCURVE",
"481 1255 OFFCURVE",
"590 1255 CURVE SMOOTH",
"697 1255 OFFCURVE",
"905 1241 OFFCURVE",
"914 1226 CURVE",
"355 866 OFFCURVE",
"58 414 OFFCURVE",
"58 -61 CURVE SMOOTH"
);
}
);
width = 1784;
}
);
note = HahSep;
},
{
glyphname = DalSep;
lastChange = "2016-12-06 15:22:26 +0000";
layers = (
{
layerId = "B831CC2C-6991-4D3A-BB51-B9DC9D9CB4BD";
paths = (
{
closed = 1;
nodes = (
"99 -92 OFFCURVE",
"228 -52 OFFCURVE",
"297 -17 CURVE SMOOTH",
"436 54 OFFCURVE",
"565 332 OFFCURVE",
"565 544 CURVE SMOOTH",
"565 713 OFFCURVE",
"479 850 OFFCURVE",
"335 941 CURVE",
"313 941 LINE",
"265 872 OFFCURVE",
"160 660 OFFCURVE",
"139 592 CURVE",
"320 508 OFFCURVE",
"421 395 OFFCURVE",
"421 319 CURVE SMOOTH",
"421 227 OFFCURVE",
"129 19 OFFCURVE",
"-92 -92 CURVE",
"-88 -137 LINE"
);
}
);
width = 614;
}
);
note = DalSep;
},
{
glyphname = DalFin;
lastChange = "2016-12-06 15:22:26 +0000";
layers = (
{
layerId = "B831CC2C-6991-4D3A-BB51-B9DC9D9CB4BD";
paths = (
{
closed = 1;
nodes = (
"545 660 OFFCURVE",
"505 531 OFFCURVE",
"466 441 CURVE SMOOTH",
"388 261 OFFCURVE",
"166 112 OFFCURVE",
"-101 -31 CURVE",
"-97 -76 LINE",
"38 -60 OFFCURVE",
"134 -45 OFFCURVE",
"190 -31 CURVE SMOOTH",
"246 -18 OFFCURVE",
"287 -2 OFFCURVE",
"313 16 CURVE",
"394 105 OFFCURVE",
"452 195 OFFCURVE",
"488 288 CURVE",
"491 288 LINE",
"491 120 OFFCURVE",
"586 0 OFFCURVE",
"742 0 CURVE SMOOTH",
"845 0 OFFCURVE",
"932 75 OFFCURVE",
"932 207 CURVE SMOOTH",
"932 276 OFFCURVE",
"902 324 OFFCURVE",
"842 324 CURVE SMOOTH",
"701 324 OFFCURVE",
"619 431 OFFCURVE",
"619 608 CURVE SMOOTH",
"619 631 OFFCURVE",
"621 655 OFFCURVE",
"625 680 CURVE SMOOTH",
"648 819 LINE",
"587 828 LINE"
);
}
);
width = 742;
}
);
note = DalFin;
},
{
glyphname = RehSep;
lastChange = "2017-01-27 22:28:42 +0000";
layers = (
{
layerId = "B831CC2C-6991-4D3A-BB51-B9DC9D9CB4BD";
paths = (
{
closed = 1;
nodes = (
"140 -25 OFFCURVE",
"291 19 OFFCURVE",
"364 58 CURVE",
"493 158 OFFCURVE",
"623 443 OFFCURVE",
"722 851 CURVE",
"661 862 LINE",
"624 759 OFFCURVE",
"587 669 OFFCURVE",
"552 593 CURVE SMOOTH",
"481 441 OFFCURVE",
"449 410 OFFCURVE",
"309 281 CURVE SMOOTH",
"168 152 OFFCURVE",
"2 24 OFFCURVE",
"-97 -29 CURVE",
"-88 -76 LINE"
);
}
);
width = 832;
}
);
note = RehSep;
},
{
glyphname = SeenSep;
lastChange = "2016-12-06 15:22:26 +0000";
layers = (
{
layerId = "B831CC2C-6991-4D3A-BB51-B9DC9D9CB4BD";
paths = (
{
closed = 1;
nodes = (
"748 -698 OFFCURVE",
"905 -640 OFFCURVE",
"1045 -524 CURVE SMOOTH",
"1325 -293 OFFCURVE",
"1513 193 OFFCURVE",
"1526 666 CURVE",
"1655 691 OFFCURVE",
"1754 754 OFFCURVE",
"1823 853 CURVE",
"1848 846 OFFCURVE",
"1872 842 OFFCURVE",
"1895 842 CURVE SMOOTH",
"1960 842 OFFCURVE",
"2020 875 OFFCURVE",
"2073 942 CURVE SMOOTH",
"2126 1009 OFFCURVE",
"2176 1118 OFFCURVE",
"2221 1269 CURVE",
"2162 1282 LINE",
"2132 1198 OFFCURVE",
"2106 1141 OFFCURVE",
"2083 1112 CURVE SMOOTH",
"2060 1082 OFFCURVE",
"2037 1067 OFFCURVE",
"2014 1067 CURVE SMOOTH",
"1989 1067 OFFCURVE",
"1959 1075 OFFCURVE",
"1926 1091 CURVE",
"1906 1085 LINE",
"1828 966 OFFCURVE",
"1725 907 OFFCURVE",
"1597 907 CURVE SMOOTH",
"1552 907 OFFCURVE",
"1511 914 OFFCURVE",
"1474 929 CURVE",
"1442 918 LINE",
"1438 683 OFFCURVE",
"1425 505 OFFCURVE",
"1404 384 CURVE SMOOTH",
"1361 142 OFFCURVE",
"1297 5 OFFCURVE",
"1185 -116 CURVE SMOOTH",
"1072 -237 OFFCURVE",
"906 -331 OFFCURVE",
"673 -331 CURVE SMOOTH",
"373 -331 OFFCURVE",
"194 -178 OFFCURVE",
"194 130 CURVE SMOOTH",
"194 263 OFFCURVE",
"233 422 OFFCURVE",
"310 608 CURVE",
"252 630 LINE",
"123 359 OFFCURVE",
"58 115 OFFCURVE",
"58 -173 CURVE SMOOTH",
"58 -488 OFFCURVE",
"259 -698 OFFCURVE",
"574 -698 CURVE SMOOTH"
);
}
);
width = 2279;
}
);
note = SeenSep;
},
{
glyphname = SeenFin;
lastChange = "2016-12-06 15:22:26 +0000";
layers = (
{
layerId = "B831CC2C-6991-4D3A-BB51-B9DC9D9CB4BD";
paths = (
{
closed = 1;
nodes = (
"123 359 OFFCURVE",
"58 115 OFFCURVE",
"58 -173 CURVE SMOOTH",
"58 -489 OFFCURVE",
"259 -698 OFFCURVE",
"574 -698 CURVE SMOOTH",
"747 -698 OFFCURVE",
"903 -640 OFFCURVE",
"1043 -525 CURVE SMOOTH",
"1323 -295 OFFCURVE",
"1513 186 OFFCURVE",
"1526 686 CURVE",
"1613 686 OFFCURVE",
"1711 754 OFFCURVE",
"1780 841 CURVE",
"1805 820 OFFCURVE",
"1831 810 OFFCURVE",
"1858 810 CURVE SMOOTH",
"1923 810 OFFCURVE",
"1990 859 OFFCURVE",
"2059 956 CURVE",
"2081 940 OFFCURVE",
"2105 932 OFFCURVE",
"2131 932 CURVE SMOOTH",
"2196 932 OFFCURVE",
"2259 987 OFFCURVE",
"2259 1071 CURVE SMOOTH",
"2259 1119 OFFCURVE",
"2231 1150 OFFCURVE",
"2200 1150 CURVE SMOOTH",
"2167 1150 OFFCURVE",
"2145 1156 OFFCURVE",
"2133 1168 CURVE",
"2128 1183 LINE",
"2083 1181 LINE",
"2065 1085 OFFCURVE",
"2022 1037 OFFCURVE",
"1953 1037 CURVE SMOOTH",
"1922 1037 OFFCURVE",
"1892 1047 OFFCURVE",
"1865 1067 CURVE",
"1847 1067 LINE",
"1778 940 OFFCURVE",
"1709 905 OFFCURVE",
"1604 905 CURVE SMOOTH",
"1558 905 OFFCURVE",
"1515 914 OFFCURVE",
"1474 932 CURVE",
"1442 922 LINE",
"1434 557 OFFCURVE",
"1419 440 OFFCURVE",
"1379 263 CURVE SMOOTH",
"1338 86 OFFCURVE",
"1254 -65 OFFCURVE",
"1127 -172 CURVE SMOOTH",
"999 -279 OFFCURVE",
"861 -331 OFFCURVE",
"673 -331 CURVE SMOOTH",
"373 -331 OFFCURVE",
"194 -181 OFFCURVE",
"194 130 CURVE SMOOTH",
"194 263 OFFCURVE",
"233 422 OFFCURVE",
"310 608 CURVE",
"252 630 LINE"
);
}
);
width = 2131;
}
);
note = SeenFin;
},
{
glyphname = SadSep;
lastChange = "2016-12-06 15:22:26 +0000";
layers = (
{
layerId = "B831CC2C-6991-4D3A-BB51-B9DC9D9CB4BD";
paths = (
{
closed = 1;
nodes = (
"1813 569 OFFCURVE",
"1887 583 OFFCURVE",
"1963 611 CURVE SMOOTH",
"2115 667 OFFCURVE",
"2235 762 OFFCURVE",
"2331 902 CURVE SMOOTH",
"2427 1041 OFFCURVE",
"2484 1150 OFFCURVE",
"2484 1265 CURVE SMOOTH",
"2484 1342 OFFCURVE",
"2428 1397 OFFCURVE",
"2329 1397 CURVE SMOOTH",
"2173 1397 OFFCURVE",
"2012 1299 OFFCURVE",
"1820 1080 CURVE SMOOTH",
"1714 955 OFFCURVE",
"1644 868 OFFCURVE",
"1609 817 CURVE",
"1535 826 OFFCURVE",
"1491 832 OFFCURVE",
"1476 837 CURVE",
"1440 832 LINE",
"1434 520 OFFCURVE",
"1401 288 OFFCURVE",
"1340 137 CURVE SMOOTH",
"1219 -166 OFFCURVE",
"976 -331 OFFCURVE",
"673 -331 CURVE SMOOTH",
"373 -331 OFFCURVE",
"194 -181 OFFCURVE",
"194 130 CURVE SMOOTH",
"194 263 OFFCURVE",
"233 422 OFFCURVE",
"310 608 CURVE",
"252 630 LINE",
"123 359 OFFCURVE",
"58 115 OFFCURVE",
"58 -173 CURVE SMOOTH",
"58 -489 OFFCURVE",
"259 -698 OFFCURVE",
"574 -698 CURVE SMOOTH",
"736 -698 OFFCURVE",
"885 -645 OFFCURVE",
"1020 -540 CURVE SMOOTH",
"1290 -330 OFFCURVE",
"1478 87 OFFCURVE",
"1525 583 CURVE",
"1587 574 OFFCURVE",
"1659 569 OFFCURVE",
"1742 569 CURVE SMOOTH"
);
},
{
closed = 1;
nodes = (
"2300 941 OFFCURVE",
"2038 806 OFFCURVE",
"1778 806 CURVE SMOOTH",
"1754 806 OFFCURVE",
"1732 807 OFFCURVE",
"1712 808 CURVE",
"1880 1036 OFFCURVE",
"2009 1136 OFFCURVE",
"2160 1136 CURVE SMOOTH",
"2239 1136 OFFCURVE",
"2300 1097 OFFCURVE",
"2300 1048 CURVE SMOOTH"
);
}
);
width = 2542;
}
);
note = SadSep;
},
{
glyphname = TahSep;
lastChange = "2016-12-06 15:22:26 +0000";
layers = (
{
layerId = "B831CC2C-6991-4D3A-BB51-B9DC9D9CB4BD";
paths = (
{
closed = 1;
nodes = (
"681 1424 OFFCURVE",
"644 1332 OFFCURVE",
"622 1261 CURVE SMOOTH",
"578 1118 OFFCURVE",
"580 1040 OFFCURVE",
"565 688 CURVE SMOOTH",
"557 501 OFFCURVE",
"544 376 OFFCURVE",
"526 313 CURVE",
"455 222 OFFCURVE",
"392 139 OFFCURVE",
"317 50 CURVE",
"188 24 OFFCURVE",
"99 9 OFFCURVE",
"49 5 CURVE",
"40 -40 LINE",
"104 -53 OFFCURVE",
"335 -67 OFFCURVE",
"563 -67 CURVE SMOOTH",
"647 -67 OFFCURVE",
"713 -62 OFFCURVE",
"761 -51 CURVE SMOOTH",
"856 -31 OFFCURVE",
"974 58 OFFCURVE",
"1068 187 CURVE SMOOTH",
"1162 316 OFFCURVE",
"1215 459 OFFCURVE",
"1215 567 CURVE SMOOTH",
"1215 639 OFFCURVE",
"1175 700 OFFCURVE",
"1075 700 CURVE SMOOTH",
"926 700 OFFCURVE",
"796 615 OFFCURVE",
"621 423 CURVE",
"668 570 OFFCURVE",
"696 714 OFFCURVE",
"707 855 CURVE SMOOTH",
"725 1148 LINE SMOOTH",
"738 1347 OFFCURVE",
"755 1472 OFFCURVE",
"774 1521 CURVE",
"733 1535 LINE"
);
},
{
closed = 1;
nodes = (
"1044 322 OFFCURVE",
"1026 297 OFFCURVE",
"990 271 CURVE SMOOTH",
"918 219 OFFCURVE",
"719 138 OFFCURVE",
"452 81 CURVE",
"551 205 LINE SMOOTH",
"674 355 OFFCURVE",
"795 430 OFFCURVE",
"914 430 CURVE SMOOTH",
"986 430 OFFCURVE",
"1044 391 OFFCURVE",
"1044 346 CURVE SMOOTH"
);
}
);
width = 1337;
}
);
note = TahSep;
},
{
glyphname = AinSep;
lastChange = "2016-12-06 15:22:26 +0000";
layers = (
{
layerId = "B831CC2C-6991-4D3A-BB51-B9DC9D9CB4BD";
paths = (
{
closed = 1;
nodes = (
"1022 1131 OFFCURVE",
"945 1082 OFFCURVE",
"899 1058 CURVE SMOOTH",
"807 1009 OFFCURVE",
"796 1010 OFFCURVE",
"745 1010 CURVE SMOOTH",
"616 1010 OFFCURVE",
"511 1072 OFFCURVE",
"511 1161 CURVE SMOOTH",
"511 1257 OFFCURVE",
"619 1337 OFFCURVE",
"742 1337 CURVE SMOOTH",
"796 1337 OFFCURVE",
"840 1322 OFFCURVE",
"873 1291 CURVE",
"891 1289 LINE",
"930 1310 OFFCURVE",
"949 1348 OFFCURVE",
"949 1402 CURVE SMOOTH",
"949 1471 OFFCURVE",
"889 1521 OFFCURVE",
"808 1521 CURVE SMOOTH",
"715 1521 OFFCURVE",
"629 1476 OFFCURVE",
"496 1333 CURVE SMOOTH",
"363 1190 OFFCURVE",
"295 1081 OFFCURVE",
"295 976 CURVE SMOOTH",
"295 869 OFFCURVE",
"365 784 OFFCURVE",
"473 751 CURVE",
"196 516 OFFCURVE",
"58 244 OFFCURVE",
"58 -63 CURVE SMOOTH",
"58 -452 OFFCURVE",
"312 -698 OFFCURVE",
"693 -698 CURVE SMOOTH",
"1130 -698 OFFCURVE",
"1505 -371 OFFCURVE",
"1742 230 CURVE",
"1679 248 LINE",
"1468 -157 OFFCURVE",
"1197 -335 OFFCURVE",
"810 -335 CURVE SMOOTH",
"483 -335 OFFCURVE",
"265 -145 OFFCURVE",
"265 139 CURVE SMOOTH",
"265 265 OFFCURVE",
"294 375 OFFCURVE",
"351 468 CURVE SMOOTH",
"465 654 OFFCURVE",
"675 812 OFFCURVE",
"1035 1012 CURVE",
"1068 1028 OFFCURVE",
"1141 1136 OFFCURVE",
"1157 1184 CURVE",
"1130 1206 LINE"
);
}
);
width = 1786;
}
);
note = AinSep;
},
{
glyphname = AinFin;
lastChange = "2016-12-06 15:22:26 +0000";
layers = (
{
layerId = "B831CC2C-6991-4D3A-BB51-B9DC9D9CB4BD";
paths = (
{
closed = 1;
nodes = (
"610 762 OFFCURVE",
"667 734 OFFCURVE",
"740 734 CURVE SMOOTH",
"785 734 OFFCURVE",
"842 774 OFFCURVE",
"842 846 CURVE SMOOTH",
"842 885 OFFCURVE",
"821 909 OFFCURVE",
"794 909 CURVE SMOOTH",
"776 909 LINE SMOOTH",
"748 909 OFFCURVE",
"728 913 OFFCURVE",
"716 922 CURVE",
"763 956 LINE SMOOTH",
"835 1006 OFFCURVE",
"871 1061 OFFCURVE",
"871 1120 CURVE SMOOTH",
"871 1216 OFFCURVE",
"778 1283 OFFCURVE",
"637 1283 CURVE SMOOTH",
"458 1283 OFFCURVE",
"352 1213 OFFCURVE",
"319 1073 CURVE",
"329 1053 LINE",
"392 1041 OFFCURVE",
"454 989 OFFCURVE",
"493 913 CURVE",
"186 625 OFFCURVE",
"54 341 OFFCURVE",
"54 -32 CURVE SMOOTH",
"54 -428 OFFCURVE",
"314 -698 OFFCURVE",
"698 -698 CURVE SMOOTH",
"1135 -698 OFFCURVE",
"1511 -370 OFFCURVE",
"1748 230 CURVE",
"1685 248 LINE",
"1473 -157 OFFCURVE",
"1202 -335 OFFCURVE",
"815 -335 CURVE SMOOTH",
"455 -335 OFFCURVE",
"236 -134 OFFCURVE",
"236 187 CURVE SMOOTH",
"236 463 OFFCURVE",
"344 646 OFFCURVE",
"569 817 CURVE"
);
}
);
width = 740;
}
);
note = AinFin;
},
{
glyphname = FehxSep;
lastChange = "2016-12-06 15:22:26 +0000";
layers = (
{
layerId = "B831CC2C-6991-4D3A-BB51-B9DC9D9CB4BD";
paths = (
{
closed = 1;
nodes = (
"2376 1150 OFFCURVE",
"2287 1301 OFFCURVE",
"2156 1301 CURVE SMOOTH",
"2095 1301 OFFCURVE",
"2049 1269 OFFCURVE",
"2018 1204 CURVE SMOOTH",
"1951 1069 LINE SMOOTH",
"1924 1014 OFFCURVE",
"1910 963 OFFCURVE",
"1910 918 CURVE SMOOTH",
"1910 831 OFFCURVE",
"1995 761 OFFCURVE",
"2088 761 CURVE SMOOTH",
"2133 761 OFFCURVE",
"2175 774 OFFCURVE",
"2216 801 CURVE",
"2228 788 OFFCURVE",
"2234 768 OFFCURVE",
"2234 742 CURVE SMOOTH",
"2234 701 OFFCURVE",
"2219 665 OFFCURVE",
"2189 635 CURVE SMOOTH",
"1997 436 OFFCURVE",
"1424 301 OFFCURVE",
"896 301 CURVE SMOOTH",
"708 301 OFFCURVE",
"571 306 OFFCURVE",
"484 316 CURVE SMOOTH",
"310 336 OFFCURVE",
"229 404 OFFCURVE",
"229 551 CURVE SMOOTH",
"229 576 OFFCURVE",
"230 598 OFFCURVE",
"232 617 CURVE",
"169 626 LINE",
"136 507 OFFCURVE",
"119 408 OFFCURVE",
"119 328 CURVE SMOOTH",
"119 149 OFFCURVE",
"200 50 OFFCURVE",
"365 2 CURVE SMOOTH",
"447 -22 OFFCURVE",
"573 -34 OFFCURVE",
"742 -34 CURVE SMOOTH",
"1187 -34 OFFCURVE",
"1654 58 OFFCURVE",
"1933 208 CURVE SMOOTH",
"2212 358 OFFCURVE",
"2376 640 OFFCURVE",
"2376 959 CURVE SMOOTH"
);
}
);
width = 2493;
}
);
note = FehxSep;
},
{
glyphname = FehxFin;
lastChange = "2016-12-06 15:22:26 +0000";
layers = (
{
layerId = "B831CC2C-6991-4D3A-BB51-B9DC9D9CB4BD";
paths = (
{
closed = 1;
nodes = (
"2496 441 OFFCURVE",
"2507 468 OFFCURVE",
"2507 556 CURVE SMOOTH",
"2507 595 OFFCURVE",
"2486 619 OFFCURVE",
"2459 619 CURVE SMOOTH",
"2455 619 LINE",
"2503 700 OFFCURVE",
"2527 786 OFFCURVE",
"2527 878 CURVE SMOOTH",
"2527 1010 OFFCURVE",
"2443 1116 OFFCURVE",
"2318 1116 CURVE SMOOTH",
"2261 1116 OFFCURVE",
"2208 1095 OFFCURVE",
"2160 1053 CURVE SMOOTH",
"2064 969 OFFCURVE",
"1998 810 OFFCURVE",
"1998 682 CURVE SMOOTH",
"1998 605 OFFCURVE",
"2024 547 OFFCURVE",
"2075 506 CURVE",
"1786 383 OFFCURVE",
"1289 301 OFFCURVE",
"878 301 CURVE SMOOTH",
"588 301 OFFCURVE",
"407 319 OFFCURVE",
"336 355 CURVE SMOOTH",
"265 391 OFFCURVE",
"229 456 OFFCURVE",
"229 551 CURVE SMOOTH",
"229 577 OFFCURVE",
"230 599 OFFCURVE",
"232 617 CURVE",
"169 626 LINE",
"136 507 OFFCURVE",
"119 408 OFFCURVE",
"119 328 CURVE SMOOTH",
"119 149 OFFCURVE",
"200 50 OFFCURVE",
"364 2 CURVE SMOOTH",
"445 -22 OFFCURVE",
"571 -34 OFFCURVE",
"742 -34 CURVE SMOOTH",
"1355 -34 OFFCURVE",
"1969 150 OFFCURVE",
"2302 441 CURVE",
"2356 441 LINE SMOOTH"
);
},
{
closed = 1;
nodes = (
"2412 710 OFFCURVE",
"2374 664 OFFCURVE",
"2297 619 CURVE",
"2177 619 OFFCURVE",
"2101 672 OFFCURVE",
"2101 756 CURVE SMOOTH",
"2101 833 OFFCURVE",
"2189 902 OFFCURVE",
"2270 902 CURVE SMOOTH",
"2351 902 OFFCURVE",
"2412 833 OFFCURVE",
"2412 758 CURVE SMOOTH"
);
}
);
width = 2405;
}
);
note = FehxFin;
},
{
glyphname = QafxSep;
lastChange = "2016-12-06 15:22:26 +0000";
layers = (
{
layerId = "B831CC2C-6991-4D3A-BB51-B9DC9D9CB4BD";
paths = (
{
closed = 1;
nodes = (
"760 -698 OFFCURVE",
"931 -638 OFFCURVE",
"1086 -517 CURVE SMOOTH",
"1397 -277 OFFCURVE",
"1598 207 OFFCURVE",
"1598 704 CURVE SMOOTH",
"1598 900 OFFCURVE",
"1506 1071 OFFCURVE",
"1377 1071 CURVE SMOOTH",
"1316 1071 OFFCURVE",
"1269 1039 OFFCURVE",
"1238 974 CURVE SMOOTH",
"1172 839 LINE SMOOTH",
"1144 784 OFFCURVE",
"1130 733 OFFCURVE",
"1130 688 CURVE SMOOTH",
"1130 601 OFFCURVE",
"1213 531 OFFCURVE",
"1309 531 CURVE SMOOTH",
"1359 531 OFFCURVE",
"1407 547 OFFCURVE",
"1453 578 CURVE",
"1470 549 OFFCURVE",
"1478 505 OFFCURVE",
"1478 446 CURVE SMOOTH",
"1478 314 OFFCURVE",
"1441 184 OFFCURVE",
"1366 57 CURVE SMOOTH",
"1216 -199 OFFCURVE",
"964 -331 OFFCURVE",
"673 -331 CURVE SMOOTH",
"373 -331 OFFCURVE",
"194 -178 OFFCURVE",
"194 130 CURVE SMOOTH",
"194 263 OFFCURVE",
"233 422 OFFCURVE",
"310 608 CURVE",
"252 630 LINE",
"123 359 OFFCURVE",
"58 115 OFFCURVE",
"58 -173 CURVE SMOOTH",
"58 -488 OFFCURVE",
"259 -698 OFFCURVE",
"574 -698 CURVE SMOOTH"
);
}
);
width = 1751;
}
);
note = QafxSep;
},
